<svg width="409" height="335" viewBox="0 0 409 335" fill="none" xmlns="http://www.w3.org/2000/svg">
<g clip-path="url(#clip0_105_801)">
<path d="M53.1699 233.63C99.4099 286.63 146.1 293.34 211.73 305.9C277.36 318.46 325.55 309.78 361.06 277.77C402.06 240.77 400.44 156.01 337.7 125.83C318.1 116.38 294.76 113.52 277.59 100.23C244.8 74.87 218.28 35.41 165.64 28C113 20.59 77.5099 55.9 77.5099 55.9C34.2799 103.24 6.92994 180.59 53.1699 233.63Z" fill="#4865BC"/>
<path opacity="0.7" d="M53.1699 233.63C99.4099 286.63 146.1 293.34 211.73 305.9C277.36 318.46 325.55 309.78 361.06 277.77C402.06 240.77 400.44 156.01 337.7 125.83C318.1 116.38 294.76 113.52 277.59 100.23C244.8 74.87 218.28 35.41 165.64 28C113 20.59 77.5099 55.9 77.5099 55.9C34.2799 103.24 6.92994 180.59 53.1699 233.63Z" fill="white"/>
<path d="M405.95 318.38H15.95V334.38H405.95V318.38Z" fill="#4865BC"/>
<path opacity="0.5" d="M405.95 318.38H15.95V334.38H405.95V318.38Z" fill="white"/>
<path d="M107.92 146.29C106.013 146.912 104.14 147.637 102.31 148.46C103.31 147.73 104.31 146.97 105.31 146.2C109.762 142.619 114 138.779 118 134.7C113.306 139.26 108.293 143.481 103 147.33C103.73 146.062 104.371 144.746 104.92 143.39C105.92 140.9 106.1 138.39 103.73 137.06C100.8 135.42 97.26 137.87 98.19 142.06C98.7577 144.399 99.8637 146.574 101.42 148.41C97.9658 150.801 94.358 152.963 90.62 154.88L90.27 155.06C91.0602 153.691 91.7585 152.271 92.36 150.81C93.3 148.33 93.54 145.81 91.16 144.49C88.23 142.84 84.69 145.3 85.63 149.49C86.1881 151.798 87.2693 153.947 88.79 155.77C84.3 157.98 79.66 159.86 75.04 161.9L74.37 162.2C75.2717 161.232 76.1101 160.206 76.88 159.13C78.38 156.93 79.19 154.55 77.19 152.7C74.73 150.42 70.7 151.98 70.64 156.3C70.6427 158.684 71.1972 161.036 72.26 163.17C67.9368 165.19 63.8292 167.642 60 170.49L59.88 170.59C60.398 169.769 60.872 168.921 61.3 168.05C62.43 165.64 62.85 163.16 60.57 161.65C60.1067 161.331 59.5772 161.122 59.0213 161.037C58.4655 160.953 57.8976 160.996 57.3606 161.162C56.8235 161.329 56.3312 161.615 55.9206 161.999C55.51 162.383 55.1919 162.855 54.99 163.38C54.6895 162.911 54.2816 162.52 53.8 162.24C51.51 160.92 49.26 162.35 47.33 164.37C46.83 164.9 46.33 165.47 45.9 166.03C47.3888 161.898 49.2603 157.914 51.49 154.13C53.6134 155.057 55.903 155.544 58.22 155.56C62.78 155.56 64.7 151.76 62.46 149.4C60.64 147.49 58.08 148.22 55.66 149.62C54.8632 150.085 54.092 150.592 53.35 151.14C55.6682 147.649 58.299 144.375 61.21 141.36C63.1175 142.903 65.3342 144.018 67.71 144.63C72.14 145.72 74.92 142.51 73.32 139.68C72.02 137.38 69.32 137.47 66.67 138.24C65.4016 138.619 64.159 139.08 62.95 139.62C64.16 138.44 65.41 137.31 66.68 136.19C68.34 134.77 70.06 133.4 71.81 132.06C73.6916 133.562 75.8691 134.649 78.2 135.25C82.63 136.34 85.41 133.13 83.81 130.3C82.51 128 79.81 128.09 77.15 128.86C76.53 129.04 75.9 129.26 75.29 129.49C77.6 127.84 79.94 126.23 82.29 124.63L84.46 123.14C86.4154 124.778 88.711 125.96 91.18 126.6C95.61 127.69 98.4 124.48 96.8 121.65C95.49 119.35 92.8 119.44 90.14 120.21C89.0934 120.53 88.0634 120.9 87.05 121.32L88.39 120.32C89.21 119.73 90.03 119.13 90.83 118.5C91.83 117.75 92.78 116.92 93.75 116.12C94.31 115.68 94.84 115.21 95.37 114.73C97.3333 116.385 99.6436 117.578 102.13 118.22C106.56 119.31 109.34 116.1 107.74 113.27C106.44 110.97 103.74 111.06 101.09 111.83C99.6039 112.289 98.1478 112.84 96.73 113.48C98.54 111.8 100.29 110.05 101.95 108.23C102.06 108.1 102.16 107.97 102.28 107.85C102.99 107.06 103.69 106.26 104.37 105.43C105.05 104.6 105.93 103.51 106.67 102.51C109.709 98.5213 112.21 94.1506 114.11 89.51C112.119 94.0954 109.534 98.399 106.42 102.31C103.341 106.237 99.9024 109.87 96.15 113.16L95.74 113.51C96.5924 112.058 97.3474 110.552 98 109C98.95 106.52 99.18 104 96.8 102.68C93.88 101.03 90.33 103.49 91.27 107.68C91.8738 110.161 93.0793 112.455 94.78 114.36L93.9 115.12L92.9 115.98C92.32 116.45 91.72 116.9 91.12 117.35C90.8 117.59 90.49 117.84 90.12 118.08C89.27 118.71 88.41 119.32 87.54 119.92L86.29 120.77L84.87 121.77C85.7 120.353 86.4285 118.88 87.05 117.36C88 114.87 88.23 112.36 85.86 111.04C82.93 109.39 79.38 111.85 80.32 116.04C80.8997 118.447 82.0486 120.679 83.67 122.55L82.67 123.23L78.78 125.78L78.01 126.28L75.84 127.73L74.9 128.36C73.9 129.05 72.9 129.75 71.9 130.47C72.7035 129.031 73.4053 127.537 74 126C75 123.52 75.18 121 72.81 119.68C69.88 118.03 66.34 120.49 67.28 124.68C67.8674 127.119 69.0414 129.378 70.7 131.26C69 132.51 67.32 133.79 65.7 135.13C64.51 136.13 63.34 137.13 62.19 138.21C62.6911 137.283 63.1385 136.328 63.53 135.35C64.47 132.86 64.71 130.35 62.33 129.03C59.4 127.38 55.86 129.84 56.8 134.03C57.3581 136.338 58.4393 138.487 59.96 140.31C56.7213 143.528 53.8041 147.055 51.25 150.84C51.54 149.748 51.7605 148.64 51.91 147.52C52.23 144.88 51.85 142.4 49.22 141.68C45.98 140.79 43.14 144.03 45.07 147.89C46.1803 150.015 47.7686 151.853 49.71 153.26C47.191 157.374 45.0873 161.729 43.43 166.26C43.3868 165.312 43.2933 164.368 43.15 163.43C42.7 160.8 41.64 158.53 38.91 158.58C35.55 158.65 33.74 162.58 36.69 165.72C38.2633 167.36 40.1835 168.628 42.31 169.43C41.1728 172.928 40.2477 176.491 39.54 180.1C39.42 180.67 39.33 181.24 39.22 181.81C39.1 181.92 38.98 182.03 38.87 182.15C38.75 181.66 38.61 181.15 38.45 180.68C37.61 178.16 36.21 176.07 33.52 176.55C30.22 177.13 29.03 181.27 32.43 183.94C34.158 185.259 36.1499 186.19 38.27 186.67C38.27 186.77 38.35 186.86 38.4 186.96C38.03 189.67 37.75 192.4 37.58 195.14C37.45 197.14 37.38 199.23 37.34 201.28C34.48 201.28 32.46 204.42 34.43 207.82C35.2613 209.23 36.3265 210.488 37.58 211.54C37.82 215.39 38.2 219.24 38.71 223.06C38.3056 222.686 37.8108 222.424 37.2742 222.299C36.7376 222.175 36.1778 222.192 35.65 222.35C33.85 222.84 33.04 224.29 32.75 226.07C32.1095 226.733 31.751 227.618 31.75 228.54C30.41 226.54 29.14 224.54 27.91 222.43C29.7877 220.991 31.3442 219.175 32.48 217.1C34.63 213.1 32.2 209.59 29.07 210.44C26.51 211.14 25.95 213.74 26.07 216.53C26.11 217.588 26.2102 218.643 26.37 219.69L25.05 217.37C23.95 215.37 23.05 213.37 21.97 211.37C21.71 210.88 21.48 210.37 21.27 209.87C23.3768 208.809 25.2397 207.32 26.74 205.5C29.61 201.96 27.88 198.07 24.64 198.32C22 198.53 20.95 200.98 20.51 203.74C20.3386 204.943 20.2317 206.155 20.19 207.37L19.25 205.2C17.248 200.277 15.6004 195.218 14.32 190.06C16.7047 189.215 18.8707 187.848 20.66 186.06C23.87 182.81 22.54 178.78 19.29 178.7C16.65 178.64 15.36 180.97 14.64 183.7C14.2872 185.149 14.0233 186.619 13.85 188.1C13.15 185.14 12.55 182.14 12.05 179.1C11.71 177.24 11.49 175.35 11.26 173.47C13.8232 172.962 16.2374 171.878 18.32 170.3C21.92 167.5 21.13 163.3 17.91 162.83C15.3 162.42 13.72 164.57 12.66 167.16C12.0394 168.794 11.5185 170.463 11.1 172.16C10.9 169.98 10.67 167.79 10.57 165.6C10.2701 161.078 10.2701 156.542 10.57 152.02C10.1135 156.538 9.95654 161.081 10.1 165.62C10.1 167.71 10.28 169.79 10.41 171.88C9.83876 170.459 9.17052 169.079 8.41004 167.75C7.05004 165.46 5.23004 163.75 2.71004 164.75C-0.399959 166.03 -0.669959 170.33 3.23004 172.21C5.51745 173.261 8.0266 173.738 10.54 173.6C10.72 175.47 10.88 177.33 11.16 179.18C11.55 182.18 12.05 185.06 12.64 187.97C12.0001 186.855 11.2886 185.783 10.51 184.76C8.86004 182.67 6.84004 181.19 4.51004 182.54C1.60004 184.21 1.88004 188.54 5.99004 189.87C8.31572 190.593 10.7789 190.757 13.18 190.35C14.3209 195.564 15.8212 200.693 17.67 205.7L18.26 207.2C17.731 206.499 17.1599 205.832 16.55 205.2C14.7 203.28 12.55 202.01 10.32 203.6C7.59004 205.6 8.32004 209.8 12.52 210.74C14.838 211.209 17.2327 211.141 19.52 210.54C19.73 211.05 19.94 211.54 20.19 212.06C21.19 214.12 22.08 216.23 23.13 218.25L24 220C23.48 219.55 22.94 219.12 22.38 218.72C20.2 217.19 17.84 216.35 15.96 218.32C13.64 220.75 15.14 224.79 19.46 224.92C21.7091 224.972 23.942 224.529 26 223.62C27.24 225.86 28.51 228.07 29.89 230.24C30.4 231.07 30.89 231.89 31.47 232.71C30.6855 231.993 29.8573 231.325 28.99 230.71C26.81 229.18 24.45 228.34 22.56 230.31C20.25 232.74 21.75 236.78 26.07 236.91C28.5391 236.94 30.9798 236.381 33.19 235.28C33.91 236.28 34.65 237.28 35.41 238.28C33.8 240.15 34.33 243.28 37.6 244.71C39.1882 245.372 40.881 245.748 42.6 245.82C42.8 245.98 43 246.14 43.22 246.29L43.32 246.37C45.3867 254.09 47.8367 261.697 50.67 269.19C51.87 272.38 53.16 275.54 54.49 278.68H42.49V326H79.16V278.64H59.64C57.97 274.99 56.36 271.3 54.86 267.57C52.41 261.45 50.19 255.23 48.26 248.92C48.5885 249.017 48.9224 249.094 49.26 249.15C49.7042 249.24 50.1597 249.26 50.61 249.21L50.09 245.92H49.74C49.5315 245.891 49.3245 245.851 49.12 245.8C48.6581 245.668 48.2068 245.5 47.77 245.3L47.25 245.06C49.18 244.388 50.9722 243.371 52.54 242.06C56.01 239.06 55.03 234.96 51.79 234.61C49.17 234.32 47.69 236.54 46.79 239.17C46.52 239.92 46.3 240.7 46.11 241.46C45.92 240.76 45.73 240.06 45.55 239.36C45.02 237.29 44.55 235.2 44.07 233.11C46.1645 232.457 48.111 231.4 49.8 230C53.27 227 52.28 222.91 49.05 222.56C46.42 222.27 44.95 224.49 44.05 227.12C43.78 227.88 43.55 228.67 43.35 229.45C43.05 227.93 42.76 226.4 42.49 224.87C42.3 223.74 42.12 222.6 41.95 221.46C41.89 219.84 41.86 218.22 41.88 216.59C41.88 215.7 41.88 214.81 41.96 213.92C43.9206 214.54 45.9769 214.8 48.03 214.69C52.59 214.39 54.27 210.49 51.89 208.28C49.95 206.47 47.44 207.37 45.11 208.91C44.0652 209.62 43.0634 210.391 42.11 211.22C42.3909 207.414 42.9693 203.636 43.84 199.92C44.3503 197.731 44.9881 195.574 45.75 193.46C47.841 194.181 50.0516 194.49 52.26 194.37C56.82 194.08 58.5 190.18 56.12 187.96C54.19 186.16 51.67 187.05 49.34 188.6C48.5267 189.159 47.7455 189.763 47 190.41C47.8794 188.341 48.9018 186.336 50.06 184.41C52.3569 180.523 55.2372 177.012 58.6 174C60.3427 175.608 62.404 176.831 64.65 177.59C68.99 179.01 72 176.01 70.65 173.07C69.52 170.68 66.86 170.57 64.12 171.14C63.0642 171.366 62.0224 171.653 61 172L61.07 171.94C64.8015 169.028 68.8227 166.508 73.07 164.42C74.5685 166.382 76.4716 167.999 78.65 169.16C82.71 171.25 86.16 168.77 85.26 165.65C84.53 163.11 81.92 162.58 79.13 162.65C78.0342 162.71 76.9426 162.83 75.86 163.01C80.37 160.88 84.97 158.87 89.41 156.52H89.51C91.4978 158.236 93.8561 159.468 96.4 160.12C100.83 161.22 103.61 158 102.01 155.12C100.71 152.82 98.01 152.92 95.36 153.68C94.61 153.9 93.86 154.17 93.13 154.45C96.0952 152.727 98.969 150.851 101.74 148.83L101.97 149.08V148.95C103.978 150.681 106.355 151.93 108.92 152.6C113.34 153.69 116.13 150.48 114.53 147.6C113.27 145.43 110.61 145.52 107.92 146.29ZM38 236.9C37.09 235.84 36.23 234.73 35.39 233.61C35.59 233.43 35.81 233.23 36.03 233.01C37.2796 233.399 38.573 233.631 39.88 233.7V233.91L40.49 233.78C40.81 235.36 41.14 236.93 41.49 238.5C41.0837 237.968 40.5529 237.544 39.9444 237.265C39.336 236.986 38.6683 236.861 38 236.9ZM41.26 199.25C40.95 200.43 40.69 201.61 40.44 202.8L40.29 202.59C40.29 200.15 40.3267 197.717 40.4 195.29C40.47 193.59 40.59 191.9 40.74 190.2C41.5628 191.038 42.4673 191.792 43.44 192.45C42.5937 194.676 41.8693 196.946 41.27 199.25H41.26ZM45.36 188.05C45.42 187.61 45.47 187.16 45.49 186.72V186.05C45.85 185.94 46.22 185.81 46.58 185.66C46.18 186.45 45.76 187.25 45.37 188.05H45.36ZM50.57 179.6C50.3973 179.204 50.146 178.848 49.8314 178.552C49.5169 178.257 49.1456 178.028 48.74 177.88C46.27 176.88 44.27 178.68 42.68 180.98L42.6 181.09H42.44C42.2724 181.052 42.1017 181.029 41.93 181.02C41.9182 180.88 41.9423 180.739 42 180.61C42.6332 176.998 43.4881 173.427 44.56 169.92C46.8556 170.211 49.1866 170.031 51.41 169.39C52.7838 169.029 53.9786 168.179 54.77 167C55.2102 169.016 56.0501 170.924 57.24 172.61C54.7799 174.702 52.5475 177.049 50.58 179.61L50.57 179.6Z" fill="#4865BC"/>
<path opacity="0.3" d="M107.92 146.29C106.013 146.912 104.14 147.637 102.31 148.46C103.31 147.73 104.31 146.97 105.31 146.2C109.762 142.619 114 138.779 118 134.7C113.306 139.26 108.293 143.481 103 147.33C103.73 146.062 104.371 144.746 104.92 143.39C105.92 140.9 106.1 138.39 103.73 137.06C100.8 135.42 97.26 137.87 98.19 142.06C98.7577 144.399 99.8637 146.574 101.42 148.41C97.9658 150.801 94.358 152.963 90.62 154.88L90.27 155.06C91.0602 153.691 91.7585 152.271 92.36 150.81C93.3 148.33 93.54 145.81 91.16 144.49C88.23 142.84 84.69 145.3 85.63 149.49C86.1881 151.798 87.2693 153.947 88.79 155.77C84.3 157.98 79.66 159.86 75.04 161.9L74.37 162.2C75.2717 161.232 76.1101 160.206 76.88 159.13C78.38 156.93 79.19 154.55 77.19 152.7C74.73 150.42 70.7 151.98 70.64 156.3C70.6427 158.684 71.1972 161.036 72.26 163.17C67.9368 165.19 63.8292 167.642 60 170.49L59.88 170.59C60.398 169.769 60.872 168.921 61.3 168.05C62.43 165.64 62.85 163.16 60.57 161.65C60.1067 161.331 59.5772 161.122 59.0213 161.037C58.4655 160.953 57.8976 160.996 57.3606 161.162C56.8235 161.329 56.3312 161.615 55.9206 161.999C55.51 162.383 55.1919 162.855 54.99 163.38C54.6895 162.911 54.2816 162.52 53.8 162.24C51.51 160.92 49.26 162.35 47.33 164.37C46.83 164.9 46.33 165.47 45.9 166.03C47.3888 161.898 49.2603 157.914 51.49 154.13C53.6134 155.057 55.903 155.544 58.22 155.56C62.78 155.56 64.7 151.76 62.46 149.4C60.64 147.49 58.08 148.22 55.66 149.62C54.8632 150.085 54.092 150.592 53.35 151.14C55.6682 147.649 58.299 144.375 61.21 141.36C63.1175 142.903 65.3342 144.018 67.71 144.63C72.14 145.72 74.92 142.51 73.32 139.68C72.02 137.38 69.32 137.47 66.67 138.24C65.4016 138.619 64.159 139.08 62.95 139.62C64.16 138.44 65.41 137.31 66.68 136.19C68.34 134.77 70.06 133.4 71.81 132.06C73.6916 133.562 75.8691 134.649 78.2 135.25C82.63 136.34 85.41 133.13 83.81 130.3C82.51 128 79.81 128.09 77.15 128.86C76.53 129.04 75.9 129.26 75.29 129.49C77.6 127.84 79.94 126.23 82.29 124.63L84.46 123.14C86.4154 124.778 88.711 125.96 91.18 126.6C95.61 127.69 98.4 124.48 96.8 121.65C95.49 119.35 92.8 119.44 90.14 120.21C89.0934 120.53 88.0634 120.9 87.05 121.32L88.39 120.32C89.21 119.73 90.03 119.13 90.83 118.5C91.83 117.75 92.78 116.92 93.75 116.12C94.31 115.68 94.84 115.21 95.37 114.73C97.3333 116.385 99.6436 117.578 102.13 118.22C106.56 119.31 109.34 116.1 107.74 113.27C106.44 110.97 103.74 111.06 101.09 111.83C99.6039 112.289 98.1478 112.84 96.73 113.48C98.54 111.8 100.29 110.05 101.95 108.23C102.06 108.1 102.16 107.97 102.28 107.85C102.99 107.06 103.69 106.26 104.37 105.43C105.05 104.6 105.93 103.51 106.67 102.51C109.709 98.5213 112.21 94.1506 114.11 89.51C112.119 94.0954 109.534 98.399 106.42 102.31C103.341 106.237 99.9024 109.87 96.15 113.16L95.74 113.51C96.5924 112.058 97.3474 110.552 98 109C98.95 106.52 99.18 104 96.8 102.68C93.88 101.03 90.33 103.49 91.27 107.68C91.8738 110.161 93.0793 112.455 94.78 114.36L93.9 115.12L92.9 115.98C92.32 116.45 91.72 116.9 91.12 117.35C90.8 117.59 90.49 117.84 90.12 118.08C89.27 118.71 88.41 119.32 87.54 119.92L86.29 120.77L84.87 121.77C85.7 120.353 86.4285 118.88 87.05 117.36C88 114.87 88.23 112.36 85.86 111.04C82.93 109.39 79.38 111.85 80.32 116.04C80.8997 118.447 82.0486 120.679 83.67 122.55L82.67 123.23L78.78 125.78L78.01 126.28L75.84 127.73L74.9 128.36C73.9 129.05 72.9 129.75 71.9 130.47C72.7035 129.031 73.4053 127.537 74 126C75 123.52 75.18 121 72.81 119.68C69.88 118.03 66.34 120.49 67.28 124.68C67.8674 127.119 69.0414 129.378 70.7 131.26C69 132.51 67.32 133.79 65.7 135.13C64.51 136.13 63.34 137.13 62.19 138.21C62.6911 137.283 63.1385 136.328 63.53 135.35C64.47 132.86 64.71 130.35 62.33 129.03C59.4 127.38 55.86 129.84 56.8 134.03C57.3581 136.338 58.4393 138.487 59.96 140.31C56.7213 143.528 53.8041 147.055 51.25 150.84C51.54 149.748 51.7605 148.64 51.91 147.52C52.23 144.88 51.85 142.4 49.22 141.68C45.98 140.79 43.14 144.03 45.07 147.89C46.1803 150.015 47.7686 151.853 49.71 153.26C47.191 157.374 45.0873 161.729 43.43 166.26C43.3868 165.312 43.2933 164.368 43.15 163.43C42.7 160.8 41.64 158.53 38.91 158.58C35.55 158.65 33.74 162.58 36.69 165.72C38.2633 167.36 40.1835 168.628 42.31 169.43C41.1728 172.928 40.2477 176.491 39.54 180.1C39.42 180.67 39.33 181.24 39.22 181.81C39.1 181.92 38.98 182.03 38.87 182.15C38.75 181.66 38.61 181.15 38.45 180.68C37.61 178.16 36.21 176.07 33.52 176.55C30.22 177.13 29.03 181.27 32.43 183.94C34.158 185.259 36.1499 186.19 38.27 186.67C38.27 186.77 38.35 186.86 38.4 186.96C38.03 189.67 37.75 192.4 37.58 195.14C37.45 197.14 37.38 199.23 37.34 201.28C34.48 201.28 32.46 204.42 34.43 207.82C35.2613 209.23 36.3265 210.488 37.58 211.54C37.82 215.39 38.2 219.24 38.71 223.06C38.3056 222.686 37.8108 222.424 37.2742 222.299C36.7376 222.175 36.1778 222.192 35.65 222.35C33.85 222.84 33.04 224.29 32.75 226.07C32.1095 226.733 31.751 227.618 31.75 228.54C30.41 226.54 29.14 224.54 27.91 222.43C29.7877 220.991 31.3442 219.175 32.48 217.1C34.63 213.1 32.2 209.59 29.07 210.44C26.51 211.14 25.95 213.74 26.07 216.53C26.11 217.588 26.2102 218.643 26.37 219.69L25.05 217.37C23.95 215.37 23.05 213.37 21.97 211.37C21.71 210.88 21.48 210.37 21.27 209.87C23.3768 208.809 25.2397 207.32 26.74 205.5C29.61 201.96 27.88 198.07 24.64 198.32C22 198.53 20.95 200.98 20.51 203.74C20.3386 204.943 20.2317 206.155 20.19 207.37L19.25 205.2C17.248 200.277 15.6004 195.218 14.32 190.06C16.7047 189.215 18.8707 187.848 20.66 186.06C23.87 182.81 22.54 178.78 19.29 178.7C16.65 178.64 15.36 180.97 14.64 183.7C14.2872 185.149 14.0233 186.619 13.85 188.1C13.15 185.14 12.55 182.14 12.05 179.1C11.71 177.24 11.49 175.35 11.26 173.47C13.8232 172.962 16.2374 171.878 18.32 170.3C21.92 167.5 21.13 163.3 17.91 162.83C15.3 162.42 13.72 164.57 12.66 167.16C12.0394 168.794 11.5185 170.463 11.1 172.16C10.9 169.98 10.67 167.79 10.57 165.6C10.2701 161.078 10.2701 156.542 10.57 152.02C10.1135 156.538 9.95654 161.081 10.1 165.62C10.1 167.71 10.28 169.79 10.41 171.88C9.83876 170.459 9.17052 169.079 8.41004 167.75C7.05004 165.46 5.23004 163.75 2.71004 164.75C-0.399959 166.03 -0.669959 170.33 3.23004 172.21C5.51745 173.261 8.0266 173.738 10.54 173.6C10.72 175.47 10.88 177.33 11.16 179.18C11.55 182.18 12.05 185.06 12.64 187.97C12.0001 186.855 11.2886 185.783 10.51 184.76C8.86004 182.67 6.84004 181.19 4.51004 182.54C1.60004 184.21 1.88004 188.54 5.99004 189.87C8.31572 190.593 10.7789 190.757 13.18 190.35C14.3209 195.564 15.8212 200.693 17.67 205.7L18.26 207.2C17.731 206.499 17.1599 205.832 16.55 205.2C14.7 203.28 12.55 202.01 10.32 203.6C7.59004 205.6 8.32004 209.8 12.52 210.74C14.838 211.209 17.2327 211.141 19.52 210.54C19.73 211.05 19.94 211.54 20.19 212.06C21.19 214.12 22.08 216.23 23.13 218.25L24 220C23.48 219.55 22.94 219.12 22.38 218.72C20.2 217.19 17.84 216.35 15.96 218.32C13.64 220.75 15.14 224.79 19.46 224.92C21.7091 224.972 23.942 224.529 26 223.62C27.24 225.86 28.51 228.07 29.89 230.24C30.4 231.07 30.89 231.89 31.47 232.71C30.6855 231.993 29.8573 231.325 28.99 230.71C26.81 229.18 24.45 228.34 22.56 230.31C20.25 232.74 21.75 236.78 26.07 236.91C28.5391 236.94 30.9798 236.381 33.19 235.28C33.91 236.28 34.65 237.28 35.41 238.28C33.8 240.15 34.33 243.28 37.6 244.71C39.1882 245.372 40.881 245.748 42.6 245.82C42.8 245.98 43 246.14 43.22 246.29L43.32 246.37C45.3867 254.09 47.8367 261.697 50.67 269.19C51.87 272.38 53.16 275.54 54.49 278.68H42.49V326H79.16V278.64H59.64C57.97 274.99 56.36 271.3 54.86 267.57C52.41 261.45 50.19 255.23 48.26 248.92C48.5885 249.017 48.9224 249.094 49.26 249.15C49.7042 249.24 50.1597 249.26 50.61 249.21L50.09 245.92H49.74C49.5315 245.891 49.3245 245.851 49.12 245.8C48.6581 245.668 48.2068 245.5 47.77 245.3L47.25 245.06C49.18 244.388 50.9722 243.371 52.54 242.06C56.01 239.06 55.03 234.96 51.79 234.61C49.17 234.32 47.69 236.54 46.79 239.17C46.52 239.92 46.3 240.7 46.11 241.46C45.92 240.76 45.73 240.06 45.55 239.36C45.02 237.29 44.55 235.2 44.07 233.11C46.1645 232.457 48.111 231.4 49.8 230C53.27 227 52.28 222.91 49.05 222.56C46.42 222.27 44.95 224.49 44.05 227.12C43.78 227.88 43.55 228.67 43.35 229.45C43.05 227.93 42.76 226.4 42.49 224.87C42.3 223.74 42.12 222.6 41.95 221.46C41.89 219.84 41.86 218.22 41.88 216.59C41.88 215.7 41.88 214.81 41.96 213.92C43.9206 214.54 45.9769 214.8 48.03 214.69C52.59 214.39 54.27 210.49 51.89 208.28C49.95 206.47 47.44 207.37 45.11 208.91C44.0652 209.62 43.0634 210.391 42.11 211.22C42.3909 207.414 42.9693 203.636 43.84 199.92C44.3503 197.731 44.9881 195.574 45.75 193.46C47.841 194.181 50.0516 194.49 52.26 194.37C56.82 194.08 58.5 190.18 56.12 187.96C54.19 186.16 51.67 187.05 49.34 188.6C48.5267 189.159 47.7455 189.763 47 190.41C47.8794 188.341 48.9018 186.336 50.06 184.41C52.3569 180.523 55.2372 177.012 58.6 174C60.3427 175.608 62.404 176.831 64.65 177.59C68.99 179.01 72 176.01 70.65 173.07C69.52 170.68 66.86 170.57 64.12 171.14C63.0642 171.366 62.0224 171.653 61 172L61.07 171.94C64.8015 169.028 68.8227 166.508 73.07 164.42C74.5685 166.382 76.4716 167.999 78.65 169.16C82.71 171.25 86.16 168.77 85.26 165.65C84.53 163.11 81.92 162.58 79.13 162.65C78.0342 162.71 76.9426 162.83 75.86 163.01C80.37 160.88 84.97 158.87 89.41 156.52H89.51C91.4978 158.236 93.8561 159.468 96.4 160.12C100.83 161.22 103.61 158 102.01 155.12C100.71 152.82 98.01 152.92 95.36 153.68C94.61 153.9 93.86 154.17 93.13 154.45C96.0952 152.727 98.969 150.851 101.74 148.83L101.97 149.08V148.95C103.978 150.681 106.355 151.93 108.92 152.6C113.34 153.69 116.13 150.48 114.53 147.6C113.27 145.43 110.61 145.52 107.92 146.29ZM38 236.9C37.09 235.84 36.23 234.73 35.39 233.61C35.59 233.43 35.81 233.23 36.03 233.01C37.2796 233.399 38.573 233.631 39.88 233.7V233.91L40.49 233.78C40.81 235.36 41.14 236.93 41.49 238.5C41.0837 237.968 40.5529 237.544 39.9444 237.265C39.336 236.986 38.6683 236.861 38 236.9ZM41.26 199.25C40.95 200.43 40.69 201.61 40.44 202.8L40.29 202.59C40.29 200.15 40.3267 197.717 40.4 195.29C40.47 193.59 40.59 191.9 40.74 190.2C41.5628 191.038 42.4673 191.792 43.44 192.45C42.5937 194.676 41.8693 196.946 41.27 199.25H41.26ZM45.36 188.05C45.42 187.61 45.47 187.16 45.49 186.72V186.05C45.85 185.94 46.22 185.81 46.58 185.66C46.18 186.45 45.76 187.25 45.37 188.05H45.36ZM50.57 179.6C50.3973 179.204 50.146 178.848 49.8314 178.552C49.5169 178.257 49.1456 178.028 48.74 177.88C46.27 176.88 44.27 178.68 42.68 180.98L42.6 181.09H42.44C42.2724 181.052 42.1017 181.029 41.93 181.02C41.9182 180.88 41.9423 180.739 42 180.61C42.6332 176.998 43.4881 173.427 44.56 169.92C46.8556 170.211 49.1866 170.031 51.41 169.39C52.7838 169.029 53.9786 168.179 54.77 167C55.2102 169.016 56.0501 170.924 57.24 172.61C54.7799 174.702 52.5475 177.049 50.58 179.61L50.57 179.6Z" fill="white"/>
<path d="M354.49 282.37C354.49 282.37 349.65 271.56 348.49 270.45C347.33 269.34 338.06 265.98 335.49 257.45C332.92 248.92 328.04 226.15 340.34 227.64C352.64 229.13 349.65 252.98 354.12 252.23C358.59 251.48 350.4 213.49 358.22 208.23C366.04 202.97 378.71 207.86 377.22 227.98C375.73 248.1 372.75 259.64 375.36 258.53C377.97 257.42 385.42 253.31 385.42 261.88C385.42 270.45 378.34 276.41 374.24 276.78C370.14 277.15 368.24 277.53 368.24 277.53V283.11L354.49 282.37Z" fill="#2E353A" stroke="#2E353A" stroke-linecap="round" stroke-linejoin="round"/>
<path d="M350.55 261.42C347.74 258.76 345.16 256.18 343.97 253.81C341.61 249.08 339.83 235.81 339.83 235.81" stroke="white" stroke-width="0.5" stroke-linecap="round" stroke-linejoin="round"/>
<path d="M335.64 242.29C337.5 250.04 337.76 255.88 343.38 262.68C346.38 266.36 354.32 269.48 355.21 272.73C356.006 276.641 356.604 280.589 357 284.56L361.44 284.86C361.44 284.86 362.34 277.16 359.8 271.67" stroke="white" stroke-width="0.5" stroke-linecap="round" stroke-linejoin="round"/>
<path d="M336.88 229.86C336.88 229.86 333.56 232.41 334.74 238.69" stroke="white" stroke-width="0.5" stroke-linecap="round" stroke-linejoin="round"/>
<path d="M358.15 252.73L356.39 255.58" stroke="white" stroke-width="0.5" stroke-linecap="round" stroke-linejoin="round"/>
<path d="M358.76 251.74L358.15 252.73" stroke="white" stroke-width="0.5" stroke-linecap="round" stroke-linejoin="round"/>
<path d="M364.67 209.16C364.67 209.16 357.87 208.87 357.87 215.37C357.87 220.86 359.55 239.6 359.19 248.17" stroke="white" stroke-width="0.5" stroke-linecap="round" stroke-linejoin="round"/>
<path d="M370 262.41C369.84 264.64 369.74 266.22 369.74 266.82C369.74 270.07 378.01 257.65 381.86 257.36C381.86 257.36 385.7 257.06 384.22 264.16C383.682 266.796 382.434 269.234 380.612 271.213C378.79 273.192 376.462 274.636 373.88 275.39C370.62 276.28 367.96 274.8 367.37 276.28C366.899 278.02 366.601 279.802 366.48 281.6" stroke="white" stroke-width="0.5" stroke-linecap="round" stroke-linejoin="round"/>
<path d="M371.93 215.33C372.444 217.474 372.686 219.675 372.65 221.88C372.65 228.8 371.33 245.12 370.45 256.14" stroke="white" stroke-width="0.5" stroke-linecap="round" stroke-linejoin="round"/>
<path d="M368.51 209.76C369.398 210.269 370.118 211.027 370.58 211.94" stroke="white" stroke-width="0.5" stroke-linecap="round" stroke-linejoin="round"/>
<path d="M363.7 260.61L363.49 264.75" stroke="white" stroke-width="0.5" stroke-linecap="round" stroke-linejoin="round"/>
<path d="M365.26 213.3C365.26 213.3 363.49 213.89 364.08 220.1C364.57 225.23 364.08 248.52 363.85 256.47" stroke="white" stroke-width="0.5" stroke-linecap="round" stroke-linejoin="round"/>
<path d="M383.89 259.13C381.354 263.876 377.292 267.628 372.36 269.78C364.36 273.03 364.08 271.55 364.08 274.78C364.08 278.01 363.78 283.95 363.78 283.95" stroke="white" stroke-width="0.5" stroke-linecap="round" stroke-linejoin="round"/>
<path d="M372.8 325.97H346.96L341.43 288.54H378.33L372.8 325.97Z" fill="#4865BC" stroke="#2E353A" stroke-linecap="round" stroke-linejoin="round"/>
<path d="M381.5 282.64H338.26V292.66H381.5V282.64Z" fill="#4865BC" stroke="#2E353A" stroke-linecap="round" stroke-linejoin="round"/>
<path d="M230.92 300.77V280.45H171.08V300.77C171.07 307.389 168.83 313.811 164.72 319L162.1 322.3H239.9L237.28 319C233.17 313.811 230.93 307.389 230.92 300.77Z" fill="white" stroke="#2E353A" stroke-linecap="round" stroke-linejoin="round"/>
<path d="M167.4 315H234.6C232.188 310.645 230.921 305.748 230.92 300.77V280.45H171.08V300.77C171.079 305.748 169.813 310.645 167.4 315Z" fill="#4865BC"/>
<path d="M312.77 106.47H89.22C84.5366 106.47 80.74 110.267 80.74 114.95V278.38C80.74 283.063 84.5366 286.86 89.22 286.86H312.77C317.453 286.86 321.25 283.063 321.25 278.38V114.95C321.25 110.267 317.453 106.47 312.77 106.47Z" fill="#2E353A" stroke="#2E353A" stroke-linecap="round" stroke-linejoin="round"/>
<path d="M80.74 258.82H321.26V278.37C321.26 280.619 320.367 282.776 318.776 284.366C317.186 285.957 315.029 286.85 312.78 286.85H89.23C86.981 286.85 84.824 285.957 83.2337 284.366C81.6434 282.776 80.75 280.619 80.75 278.37V258.82H80.74Z" fill="white" stroke="#2E353A" stroke-linecap="round" stroke-linejoin="round"/>
<path d="M309.16 117.7H92.84V245.14H309.16V117.7Z" fill="white" stroke="#2E353A" stroke-linecap="round" stroke-linejoin="round"/>
<path d="M205.44 272.84C205.44 271.962 205.18 271.103 204.692 270.373C204.204 269.643 203.51 269.074 202.699 268.738C201.888 268.402 200.995 268.314 200.134 268.485C199.272 268.657 198.481 269.079 197.86 269.7C197.239 270.321 196.817 271.112 196.645 271.974C196.474 272.835 196.562 273.728 196.898 274.539C197.234 275.35 197.803 276.044 198.533 276.532C199.263 277.02 200.122 277.28 201 277.28C202.178 277.28 203.307 276.812 204.139 275.979C204.972 275.147 205.44 274.017 205.44 272.84Z" fill="#2E353A" stroke="#2E353A" stroke-linecap="round" stroke-linejoin="round"/>
<path d="M239.91 322.34H162.1V325.97H239.91V322.34Z" fill="white" stroke="#2E353A" stroke-linecap="round" stroke-linejoin="round"/>
<path d="M307.13 126.68H94.54V137.85H307.13V126.68Z" fill="white" stroke="#2E353A" stroke-linecap="round" stroke-linejoin="round"/>
<path d="M129.62 137.85L127.07 130.95H94.54V137.85V147V239.71H307.13V137.85H129.62Z" fill="#4865BC" stroke="#2E353A" stroke-linecap="round" stroke-linejoin="round"/>
<path d="M151.76 188.36H251.44" stroke="#2E353A" stroke-width="2" stroke-linecap="round" stroke-linejoin="round"/>
<path d="M151.76 198.16H251.44" stroke="#2E353A" stroke-width="2" stroke-linecap="round" stroke-linejoin="round"/>
<path d="M151.76 207.96H251.44" stroke="#2E353A" stroke-width="2" stroke-linecap="round" stroke-linejoin="round"/>
<path d="M151.76 217.77H251.44" stroke="#2E353A" stroke-width="2" stroke-linecap="round" stroke-linejoin="round"/>
<path d="M246.17 162.23H155.84C154.91 162.231 153.989 162.049 153.13 161.695C152.27 161.34 151.489 160.82 150.831 160.163C150.172 159.507 149.65 158.727 149.293 157.869C148.936 157.01 148.751 156.09 148.75 155.16C148.749 154.23 148.931 153.309 149.285 152.45C149.64 151.59 150.16 150.809 150.817 150.151C151.473 149.492 152.253 148.97 153.111 148.613C153.97 148.256 154.89 148.071 155.82 148.07H246.17C247.101 148.069 248.024 148.251 248.885 148.607C249.746 148.963 250.528 149.485 251.186 150.144C251.845 150.802 252.367 151.584 252.723 152.445C253.079 153.306 253.261 154.229 253.26 155.16C253.259 156.09 253.074 157.01 252.717 157.869C252.36 158.727 251.838 159.507 251.179 160.163C250.521 160.82 249.74 161.34 248.88 161.695C248.021 162.049 247.1 162.231 246.17 162.23Z" fill="white" stroke="#2E353A" stroke-linecap="round" stroke-linejoin="round"/>
<path d="M246.17 162.23H233.83V148.05H246.17C247.101 148.049 248.024 148.231 248.885 148.587C249.746 148.943 250.528 149.465 251.186 150.124C251.845 150.782 252.367 151.564 252.723 152.425C253.079 153.286 253.261 154.208 253.26 155.14C253.261 156.071 253.079 156.994 252.723 157.855C252.367 158.716 251.845 159.498 251.186 160.156C250.528 160.815 249.746 161.337 248.885 161.693C248.024 162.049 247.101 162.231 246.17 162.23Z" fill="#2E353A" stroke="#2E353A" stroke-linecap="round" stroke-linejoin="round"/>
<path d="M243.42 149.85C242.832 149.299 242.095 148.936 241.3 148.804C240.506 148.673 239.691 148.781 238.957 149.113C238.224 149.445 237.606 149.988 237.181 150.671C236.756 151.355 236.543 152.15 236.569 152.954C236.596 153.759 236.861 154.538 237.33 155.192C237.799 155.846 238.452 156.347 239.206 156.63C239.959 156.913 240.78 156.966 241.564 156.783C242.348 156.6 243.06 156.188 243.61 155.6C243.976 155.212 244.262 154.755 244.452 154.256C244.641 153.757 244.73 153.226 244.713 152.692C244.697 152.159 244.575 151.634 244.354 151.148C244.134 150.662 243.82 150.224 243.43 149.86L243.42 149.85ZM243.02 155.05C242.578 155.519 242.008 155.846 241.38 155.991C240.753 156.136 240.096 156.092 239.494 155.864C238.892 155.636 238.37 155.235 237.995 154.711C237.621 154.187 237.41 153.564 237.389 152.92C237.368 152.277 237.538 151.641 237.878 151.094C238.218 150.547 238.712 150.113 239.299 149.847C239.885 149.58 240.537 149.493 241.173 149.597C241.808 149.701 242.399 149.991 242.87 150.43C243.502 151.023 243.873 151.843 243.901 152.709C243.929 153.575 243.612 154.417 243.02 155.05Z" fill="white"/>
<path d="M246.48 157.08C246.391 156.993 246.278 156.933 246.156 156.909C246.033 156.884 245.906 156.895 245.79 156.94L244.32 155.56C244.245 155.487 244.145 155.446 244.04 155.446C243.935 155.446 243.835 155.487 243.76 155.56L243.63 155.7C243.558 155.778 243.519 155.879 243.519 155.985C243.519 156.091 243.558 156.192 243.63 156.27L245.08 157.63C245.037 157.754 245.03 157.887 245.06 158.015C245.091 158.142 245.156 158.259 245.25 158.35L247.75 160.8C247.915 160.964 248.138 161.056 248.37 161.056C248.602 161.056 248.825 160.964 248.99 160.8C249.154 160.635 249.246 160.412 249.246 160.18C249.246 159.948 249.154 159.725 248.99 159.56L246.48 157.08Z" fill="white"/>
<path d="M272.3 205C272.592 205.724 273.027 206.383 273.578 206.936C274.13 207.489 274.786 207.926 275.51 208.22C276.64 208.68 278.15 208.58 279.89 209.56C283.82 211.77 293.63 209.8 300.74 210.56C307.85 211.32 317.43 203.45 317.43 203.45L345.64 205V177C345.64 177 316.2 178.23 309.82 175.77C303.44 173.31 296.33 168.17 293.14 168.41C289.95 168.65 263.7 171.6 263.7 171.6L272.29 205H272.3Z" fill="white" stroke="#2E353A" stroke-linecap="round" stroke-linejoin="round"/>
<path d="M265 92.1001C259.175 92.7448 253.673 95.1023 249.188 98.8744C244.703 102.647 241.437 107.664 239.804 113.292C238.171 118.92 238.243 124.906 240.012 130.493C241.78 136.08 245.166 141.017 249.741 144.68C254.315 148.342 259.873 150.566 265.712 151.07C271.55 151.574 277.407 150.336 282.542 147.511C287.676 144.686 291.858 140.402 294.558 135.201C297.258 130 298.355 124.115 297.71 118.29C297.284 114.422 296.1 110.675 294.226 107.265C292.351 103.854 289.822 100.847 286.784 98.4141C283.746 95.9817 280.259 94.172 276.521 93.0886C272.783 92.0052 268.868 91.6693 265 92.1001ZM270.88 145.18C266.207 145.699 261.486 144.821 257.313 142.657C253.139 140.492 249.701 137.139 247.434 133.021C245.166 128.903 244.17 124.205 244.573 119.521C244.975 114.837 246.757 110.377 249.694 106.706C252.631 103.035 256.59 100.318 261.072 98.8969C265.553 97.4761 270.355 97.4161 274.871 98.7245C279.386 100.033 283.412 102.651 286.44 106.247C289.468 109.844 291.361 114.258 291.88 118.93C292.225 122.033 291.955 125.173 291.086 128.171C290.218 131.169 288.767 133.967 286.817 136.404C284.867 138.842 282.456 140.872 279.721 142.377C276.987 143.883 273.982 144.835 270.88 145.18Z" fill="white" stroke="#2E353A" stroke-linecap="round" stroke-linejoin="round"/>
<path d="M264.84 90.41C259.015 91.0548 253.513 93.4122 249.028 97.1844C244.543 100.956 241.277 105.974 239.644 111.602C238.011 117.23 238.083 123.216 239.852 128.803C241.62 134.39 245.006 139.327 249.581 142.99C254.155 146.652 259.713 148.876 265.552 149.38C271.39 149.884 277.247 148.646 282.382 145.821C287.516 142.996 291.698 138.712 294.398 133.511C297.098 128.31 298.195 122.425 297.55 116.6C296.683 108.791 292.75 101.645 286.616 96.7338C280.483 91.8228 272.65 89.5482 264.84 90.41ZM270.72 143.49C266.047 144.009 261.326 143.131 257.153 140.967C252.979 138.802 249.541 135.449 247.274 131.331C245.006 127.213 244.01 122.515 244.413 117.831C244.815 113.147 246.597 108.687 249.534 105.016C252.471 101.345 256.43 98.6276 260.912 97.2068C265.393 95.7861 270.195 95.7261 274.711 97.0345C279.226 98.3429 283.252 100.961 286.28 104.557C289.308 108.154 291.201 112.568 291.72 117.24C292.065 120.343 291.795 123.483 290.926 126.481C290.057 129.479 288.607 132.277 286.657 134.714C284.707 137.152 282.296 139.181 279.561 140.687C276.827 142.193 273.822 143.145 270.72 143.49Z" fill="white" stroke="#2E353A" stroke-linecap="round" stroke-linejoin="round"/>
<path d="M272.336 149.86L270.934 150.015C269.353 150.191 268.214 151.614 268.389 153.195L270.663 173.729C270.838 175.31 272.262 176.45 273.843 176.275L275.244 176.12C276.825 175.945 277.965 174.521 277.79 172.94L275.515 152.406C275.34 150.825 273.917 149.685 272.336 149.86Z" fill="#4865BC" stroke="#2E353A" stroke-linecap="round" stroke-linejoin="round"/>
<path d="M271.88 167L274.88 166.68C276.17 166.542 277.463 166.918 278.477 167.727C279.492 168.535 280.147 169.712 280.3 171L284.79 211.61C284.972 213.27 284.488 214.935 283.444 216.238C282.399 217.541 280.88 218.376 279.22 218.56H279.02C278.198 218.652 277.365 218.58 276.571 218.35C275.776 218.119 275.035 217.734 274.389 217.217C273.744 216.7 273.207 216.06 272.809 215.335C272.411 214.609 272.16 213.812 272.07 212.99L267.58 172.39C267.508 171.747 267.563 171.096 267.743 170.475C267.922 169.853 268.223 169.273 268.627 168.768C269.031 168.262 269.53 167.842 270.097 167.53C270.664 167.218 271.287 167.021 271.93 166.95L271.88 167Z" fill="#2E353A" stroke="#2E353A" stroke-linecap="round" stroke-linejoin="round"/>
<path d="M276.24 200.84C276.24 200.84 269.13 201.1 268.13 202.33C267.13 203.56 267.31 207.84 269.24 208.33C274.16 209.62 284.62 208.87 285.03 207.99C285.44 207.11 286.28 201.99 284.12 201.44C281.512 201.04 278.878 200.84 276.24 200.84Z" fill="white" stroke="#2E353A" stroke-linecap="round" stroke-linejoin="round"/>
<path d="M274.19 190.92C274.19 190.92 265.92 190.61 264.63 192.1C263.34 193.59 263.09 199.16 265.27 200C270.83 202.13 283.34 201.3 283.91 200.2C284.48 199.1 285.72 193.39 283.27 192.47C280.82 191.55 274.19 190.92 274.19 190.92Z" fill="white" stroke="#2E353A" stroke-linecap="round" stroke-linejoin="round"/>
<path d="M273 179.72C273 179.72 264.16 179.38 262.78 180.98C261.4 182.58 261.13 188.52 263.46 189.42C269.46 191.7 282.46 191.7 283.07 190.52C283.68 189.34 285.32 182.36 282.7 181.37C280.08 180.38 273 179.72 273 179.72Z" fill="white" stroke="#2E353A" stroke-linecap="round" stroke-linejoin="round"/>
<path d="M267.9 169.24C267.9 169.24 259.06 168.91 257.68 170.5C256.3 172.09 255.97 178.22 258.36 178.94C260.75 179.66 277.36 181.22 277.97 180.05C278.58 178.88 280.22 171.88 277.6 170.89C274.98 169.9 267.9 169.24 267.9 169.24Z" fill="white" stroke="#2E353A" stroke-linecap="round" stroke-linejoin="round"/>
<path d="M296.85 198.65C295.263 198.214 293.759 197.518 292.4 196.59C285.29 191.68 285.53 180.4 285.53 180.4L283.82 179.91C282.408 179.373 281.083 178.628 279.89 177.7C280.463 180.03 280.798 182.412 280.89 184.81C280.864 186.128 280.349 187.389 279.446 188.348C278.542 189.307 277.314 189.896 276 190C273.79 190.25 272.81 190.49 272.07 187.55C271.33 184.61 267.66 172.83 267.41 171.11C267.19 169.55 269.81 166.77 273.98 166.11C280.39 166.63 286.71 168.42 293.17 168.42C295.418 168.631 297.572 169.424 299.42 170.72" fill="white"/>
<path d="M296.85 198.65C295.263 198.214 293.759 197.518 292.4 196.59C285.29 191.68 285.53 180.4 285.53 180.4L283.82 179.91C282.408 179.373 281.083 178.628 279.89 177.7C280.463 180.03 280.798 182.412 280.89 184.81C280.864 186.128 280.349 187.389 279.446 188.348C278.542 189.307 277.314 189.896 276 190C273.79 190.25 272.81 190.49 272.07 187.55C271.33 184.61 267.66 172.83 267.41 171.11C267.19 169.55 269.81 166.77 273.98 166.11C280.39 166.63 286.71 168.42 293.17 168.42C295.418 168.631 297.572 169.424 299.42 170.72" stroke="#2E353A" stroke-linecap="round" stroke-linejoin="round"/>
<path d="M303.61 199.27C302.831 199.31 302.05 199.31 301.27 199.27Z" fill="white"/>
<path d="M303.61 199.27C302.831 199.31 302.05 199.31 301.27 199.27" stroke="#2E353A" stroke-linecap="round" stroke-linejoin="round"/>
<path d="M308.84 198.3C307.142 198.837 305.387 199.173 303.61 199.3Z" fill="white"/>
<path d="M308.84 198.3C307.142 198.837 305.387 199.173 303.61 199.3" stroke="#2E353A" stroke-linecap="round" stroke-linejoin="round"/>
<path d="M317.67 195.12H326.5" stroke="#2E353A" stroke-linecap="round" stroke-linejoin="round"/>
<path d="M318.41 197.57H322.09" stroke="#2E353A" stroke-linecap="round" stroke-linejoin="round"/>
<path d="M285.53 180.4C285.53 180.4 290.41 180.4 293.61 177.49" stroke="#2E353A" stroke-linecap="round" stroke-linejoin="round"/>
<path d="M279.78 177.38C279.639 176.048 279.361 174.735 278.95 173.46" stroke="#2E353A" stroke-linecap="round" stroke-linejoin="round"/>
<path d="M272 186.26C272 186.26 271.07 183.68 272.2 182.75C273.33 181.82 276.33 180.48 276.85 181.51C277.37 182.54 278.5 187.29 278.19 188.22L277.88 189.15" stroke="#2E353A" stroke-width="0.5" stroke-linecap="round" stroke-linejoin="round"/>
<path d="M407.55 217.55H323V175.99H407.55" fill="#4865BC"/>
<path d="M407.55 217.55H323V175.99H407.55" stroke="#2E353A" stroke-linecap="round" stroke-linejoin="round"/>
<path d="M329.2 214.77C330.249 214.77 331.1 213.919 331.1 212.87C331.1 211.821 330.249 210.97 329.2 210.97C328.151 210.97 327.3 211.821 327.3 212.87C327.3 213.919 328.151 214.77 329.2 214.77Z" fill="white" stroke="#2E353A" stroke-linecap="round" stroke-linejoin="round"/>
<path d="M194.83 136.41C195.554 136.118 196.213 135.683 196.766 135.132C197.319 134.58 197.756 133.924 198.05 133.2C198.51 132.07 198.4 130.57 199.39 128.82C201.59 124.9 199.63 115.09 200.39 107.97C201.15 100.85 193.27 91.2901 193.27 91.2901L194.8 63.0801H166.8C166.8 63.0801 168.02 92.5201 165.57 98.8901C163.12 105.26 157.97 112.39 158.21 115.58C158.45 118.77 161.42 145 161.42 145L194.78 136.41H194.83Z" fill="white" stroke="#2E353A" stroke-linecap="round" stroke-linejoin="round"/>
<path d="M81.9999 143.69C82.6404 149.515 84.9939 155.02 88.7629 159.508C92.5319 163.995 97.547 167.265 103.174 168.902C108.801 170.539 114.787 170.471 120.376 168.706C125.964 166.942 130.904 163.559 134.57 158.987C138.236 154.414 140.463 148.858 140.971 143.019C141.479 137.181 140.244 131.323 137.422 126.187C134.601 121.05 130.319 116.866 125.12 114.162C119.92 111.459 114.035 110.359 108.21 111H108.14C100.342 111.877 93.2109 115.811 88.3103 121.94C83.4098 128.068 81.1404 135.89 81.9999 143.69ZM135 137.8C135.521 142.474 134.644 147.198 132.48 151.374C130.316 155.55 126.963 158.99 122.844 161.26C118.725 163.53 114.025 164.528 109.339 164.127C104.653 163.726 100.191 161.945 96.5178 159.008C92.8442 156.071 90.1239 152.111 88.7009 147.629C87.2778 143.146 87.216 138.342 88.5231 133.824C89.8303 129.306 92.4477 125.278 96.0445 122.247C99.6412 119.217 104.056 117.321 108.73 116.8C114.998 116.103 121.286 117.924 126.212 121.862C131.138 125.8 134.299 131.533 135 137.8Z" fill="white" stroke="#2E353A" stroke-linecap="round" stroke-linejoin="round"/>
<path d="M80.27 143.87C80.9164 149.692 83.2744 155.191 87.0458 159.673C90.8173 164.155 95.8328 167.417 101.458 169.049C107.084 170.681 113.067 170.608 118.651 168.839C124.235 167.071 129.17 163.687 132.831 159.114C136.492 154.542 138.715 148.987 139.219 143.151C139.723 137.315 138.486 131.461 135.664 126.329C132.841 121.196 128.56 117.016 123.362 114.316C118.164 111.616 112.282 110.518 106.46 111.16C102.592 111.587 98.8462 112.772 95.4363 114.647C92.0265 116.522 89.0196 119.051 86.5874 122.088C84.1552 125.126 82.3454 128.613 81.2614 132.351C80.1775 136.088 79.8406 140.002 80.27 143.87ZM133.35 138C133.869 142.673 132.991 147.394 130.827 151.567C128.662 155.741 125.309 159.179 121.191 161.447C117.073 163.714 112.375 164.71 107.691 164.307C103.007 163.905 98.5474 162.123 94.8764 159.186C91.2053 156.249 88.4876 152.29 87.0668 147.808C85.6461 143.327 85.5861 138.525 86.8945 134.009C88.2029 129.494 90.8209 125.468 94.4174 122.44C98.014 119.412 102.428 117.519 107.1 117C110.203 116.655 113.343 116.925 116.341 117.794C119.339 118.663 122.137 120.113 124.574 122.063C127.012 124.013 129.042 126.425 130.547 129.159C132.053 131.893 133.005 134.898 133.35 138Z" fill="white" stroke="#2E353A" stroke-linecap="round" stroke-linejoin="round"/>
<path d="M162.807 130.936L142.273 133.21C140.692 133.385 139.552 134.809 139.727 136.39L139.882 137.791C140.057 139.372 141.481 140.512 143.062 140.336L163.596 138.062C165.177 137.887 166.317 136.464 166.142 134.883L165.987 133.481C165.811 131.9 164.388 130.761 162.807 130.936Z" fill="#4865BC" stroke="#2E353A" stroke-linecap="round" stroke-linejoin="round"/>
<path d="M156.86 136.84L156.53 133.84C156.387 132.54 156.766 131.237 157.583 130.217C158.401 129.197 159.59 128.543 160.89 128.4L201.49 123.91C202.316 123.814 203.152 123.882 203.952 124.11C204.751 124.339 205.497 124.723 206.148 125.24C206.798 125.758 207.34 126.399 207.742 127.126C208.144 127.854 208.398 128.654 208.49 129.48V129.68C208.586 130.506 208.518 131.342 208.29 132.142C208.061 132.941 207.677 133.687 207.16 134.338C206.642 134.988 206.001 135.53 205.274 135.932C204.546 136.334 203.746 136.588 202.92 136.68L162.32 141.17C161.022 141.316 159.72 140.943 158.696 140.132C157.673 139.32 157.013 138.137 156.86 136.84Z" fill="#2E353A" stroke="#2E353A" stroke-linecap="round" stroke-linejoin="round"/>
<path d="M190.69 132.48C190.69 132.48 190.96 139.58 192.18 140.58C193.4 141.58 197.7 141.4 198.18 139.47C199.48 134.56 198.72 124.09 197.84 123.69C196.96 123.29 191.84 122.43 191.3 124.6C190.897 127.207 190.693 129.842 190.69 132.48Z" fill="white" stroke="#2E353A" stroke-linecap="round" stroke-linejoin="round"/>
<path d="M180.78 134.52C180.78 134.52 180.46 142.79 181.95 144.08C183.44 145.37 189.01 145.63 189.85 143.44C191.99 137.88 191.15 125.37 190.05 124.81C188.95 124.25 183.24 123 182.32 125.45C181.4 127.9 180.78 134.52 180.78 134.52Z" fill="white" stroke="#2E353A" stroke-linecap="round" stroke-linejoin="round"/>
<path d="M169.58 135.73C169.58 135.73 169.24 144.57 170.83 145.95C172.42 147.33 178.38 147.6 179.28 145.26C181.56 139.32 181.56 126.26 180.38 125.66C179.2 125.06 172.21 123.41 171.23 126.03C170.25 128.65 169.58 135.73 169.58 135.73Z" fill="white" stroke="#2E353A" stroke-linecap="round" stroke-linejoin="round"/>
<path d="M159.1 140.82C159.1 140.82 158.76 149.66 160.36 151.04C161.96 152.42 168.08 152.75 168.8 150.35C169.52 147.95 171.08 131.35 169.9 130.74C168.72 130.13 161.74 128.5 160.75 131.12C159.76 133.74 159.1 140.82 159.1 140.82Z" fill="white" stroke="#2E353A" stroke-linecap="round" stroke-linejoin="round"/>
<path d="M189.12 105.08C189.527 109.019 188.582 112.98 186.44 116.31C181.54 123.43 170.25 123.18 170.25 123.18L169.76 124.9C169.226 126.311 168.481 127.633 167.55 128.82C169.883 128.247 172.269 127.912 174.67 127.82C175.983 127.858 177.236 128.381 178.187 129.287C179.137 130.194 179.719 131.42 179.82 132.73C180.07 134.94 180.31 135.92 177.37 136.65C174.43 137.38 162.65 141.07 160.93 141.32C159.37 141.54 156.59 138.92 155.93 134.75C156.46 128.34 158.25 122.01 158.25 115.56C158.459 113.309 159.252 111.151 160.55 109.3" fill="white"/>
<path d="M189.12 105.08C189.527 109.019 188.582 112.98 186.44 116.31C181.54 123.43 170.25 123.18 170.25 123.18L169.76 124.9C169.226 126.311 168.481 127.633 167.55 128.82C169.883 128.247 172.269 127.912 174.67 127.82C175.983 127.858 177.236 128.381 178.187 129.287C179.137 130.194 179.719 131.42 179.82 132.73C180.07 134.94 180.31 135.92 177.37 136.65C174.43 137.38 162.65 141.07 160.93 141.32C159.37 141.54 156.59 138.92 155.93 134.75C156.46 128.34 158.25 122.01 158.25 115.56C158.459 113.309 159.252 111.151 160.55 109.3" stroke="#2E353A" stroke-linecap="round" stroke-linejoin="round"/>
<path d="M188.16 99.88C188.456 100.816 188.683 101.771 188.84 102.74Z" fill="white"/>
<path d="M188.16 99.88C188.456 100.816 188.683 101.771 188.84 102.74" stroke="#2E353A" stroke-linecap="round" stroke-linejoin="round"/>
<path d="M184.97 91.0401V82.2101" stroke="#2E353A" stroke-linecap="round" stroke-linejoin="round"/>
<path d="M187.42 90.31V86.63" stroke="#2E353A" stroke-linecap="round" stroke-linejoin="round"/>
<path d="M170.25 123.18C170.25 123.18 170.25 118.3 167.34 115.1" stroke="#2E353A" stroke-linecap="round" stroke-linejoin="round"/>
<path d="M167.24 128.94C165.908 129.077 164.595 129.352 163.32 129.76" stroke="#2E353A" stroke-linecap="round" stroke-linejoin="round"/>
<path d="M176.12 136.68C176.12 136.68 173.54 137.61 172.61 136.47C171.68 135.33 170.34 132.34 171.37 131.83C172.4 131.32 177.15 130.18 178.08 130.49L179.01 130.79" stroke="#2E353A" stroke-width="0.5" stroke-linecap="round" stroke-linejoin="round"/>
<path d="M207.41 1.16003V85.71H165.84V1.16003" fill="#4865BC"/>
<path d="M207.41 1.16003V85.71H165.84V1.16003" stroke="#2E353A" stroke-linecap="round" stroke-linejoin="round"/>
<path d="M202.72 81.41C203.769 81.41 204.62 80.5593 204.62 79.51C204.62 78.4606 203.769 77.61 202.72 77.61C201.671 77.61 200.82 78.4606 200.82 79.51C200.82 80.5593 201.671 81.41 202.72 81.41Z" fill="white" stroke="#2E353A" stroke-linecap="round" stroke-linejoin="round"/>
<path d="M153 287C152.709 287.725 152.275 288.384 151.724 288.938C151.172 289.491 150.514 289.927 149.79 290.22C148.66 290.69 147.16 290.58 145.41 291.56C141.49 293.77 131.68 291.81 124.56 292.56C117.44 293.31 107.88 285.45 107.88 285.45L79.64 287V259C79.64 259 109.08 260.23 115.46 257.78C121.84 255.33 128.95 250.17 132.14 250.42C135.33 250.67 161.58 253.61 161.58 253.61L153 287Z" fill="white" stroke="#2E353A" stroke-linecap="round" stroke-linejoin="round"/>
<path d="M160.25 174.16C166.075 174.805 171.577 177.162 176.062 180.934C180.547 184.707 183.813 189.724 185.446 195.352C187.079 200.98 187.007 206.966 185.238 212.553C183.47 218.14 180.084 223.077 175.509 226.74C170.935 230.402 165.377 232.626 159.538 233.13C153.7 233.634 147.843 232.396 142.708 229.571C137.574 226.746 133.392 222.462 130.692 217.261C127.992 212.06 126.895 206.175 127.54 200.35C128.405 192.542 132.336 185.397 138.468 180.488C144.6 175.578 152.432 173.305 160.24 174.17L160.25 174.16ZM154.37 227.24C159.044 227.761 163.768 226.884 167.944 224.72C172.12 222.557 175.56 219.203 177.83 215.084C180.1 210.965 181.098 206.265 180.697 201.579C180.296 196.893 178.515 192.432 175.578 188.758C172.641 185.084 168.681 182.364 164.199 180.941C159.716 179.518 154.912 179.456 150.394 180.763C145.876 182.07 141.848 184.688 138.817 188.285C135.787 191.881 133.891 196.296 133.37 200.97C132.674 207.238 134.494 213.526 138.432 218.452C142.37 223.378 148.103 226.539 154.37 227.24Z" fill="white" stroke="#2E353A" stroke-linecap="round" stroke-linejoin="round"/>
<path d="M160.43 172.47C166.252 173.117 171.752 175.475 176.233 179.247C180.715 183.019 183.978 188.035 185.609 193.661C187.24 199.288 187.166 205.271 185.397 210.855C183.628 216.44 180.242 221.374 175.669 225.034C171.095 228.694 165.539 230.917 159.703 231.42C153.867 231.922 148.013 230.684 142.881 227.86C137.748 225.036 133.569 220.753 130.87 215.554C128.172 210.355 127.076 204.472 127.72 198.65C128.148 194.783 129.334 191.038 131.209 187.629C133.085 184.221 135.614 181.215 138.652 178.784C141.689 176.353 145.176 174.544 148.913 173.46C152.649 172.377 156.563 172.04 160.43 172.47ZM154.55 225.55C159.224 226.071 163.948 225.194 168.124 223.03C172.3 220.866 175.74 217.513 178.01 213.394C180.28 209.275 181.278 204.575 180.877 199.889C180.476 195.203 178.695 190.741 175.758 187.068C172.821 183.394 168.861 180.674 164.379 179.251C159.896 177.828 155.092 177.766 150.574 179.073C146.056 180.38 142.028 182.998 138.997 186.595C135.967 190.191 134.071 194.606 133.55 199.28C132.856 205.545 134.679 211.83 138.617 216.752C142.554 221.674 148.285 224.831 154.55 225.53V225.55Z" fill="white" stroke="#2E353A" stroke-linecap="round" stroke-linejoin="round"/>
<path d="M149.748 234.467L147.473 255.001C147.298 256.582 148.438 258.005 150.019 258.181L151.42 258.336C153.001 258.511 154.425 257.371 154.6 255.79L156.874 235.256C157.049 233.675 155.91 232.251 154.329 232.076L152.927 231.921C151.346 231.746 149.923 232.886 149.748 234.467Z" fill="#4865BC" stroke="#2E353A" stroke-linecap="round" stroke-linejoin="round"/>
<path d="M146.27 300.66H146.07C145.243 300.569 144.443 300.316 143.715 299.914C142.986 299.513 142.345 298.971 141.827 298.32C141.309 297.67 140.925 296.923 140.697 296.123C140.47 295.323 140.403 294.486 140.5 293.66L144.99 253.06C145.06 252.416 145.256 251.792 145.567 251.224C145.879 250.656 146.299 250.155 146.804 249.75C147.31 249.345 147.89 249.044 148.513 248.864C149.135 248.683 149.786 248.628 150.43 248.7L153.43 249.03C154.73 249.173 155.919 249.827 156.737 250.847C157.554 251.867 157.933 253.171 157.79 254.47L153.3 295.12C153.207 295.946 152.952 296.745 152.549 297.472C152.147 298.199 151.605 298.839 150.955 299.357C150.305 299.874 149.559 300.258 148.76 300.487C147.962 300.716 147.125 300.785 146.3 300.69L146.27 300.66Z" fill="#2E353A" stroke="#2E353A" stroke-linecap="round" stroke-linejoin="round"/>
<path d="M149 282.89C149 282.89 156.1 283.16 157.1 284.38C158.1 285.6 157.92 289.89 155.99 290.38C151.08 291.68 140.61 290.92 140.21 290.04C139.81 289.16 138.95 284.04 141.12 283.49C143.728 283.09 146.362 282.89 149 282.89Z" fill="white" stroke="#2E353A" stroke-linecap="round" stroke-linejoin="round"/>
<path d="M151.08 273C151.08 273 159.35 272.68 160.64 274.17C161.93 275.66 162.19 281.23 160 282.07C154.44 284.2 141.93 283.37 141.37 282.27C140.81 281.17 139.56 275.46 142.01 274.54C144.46 273.62 151.08 273 151.08 273Z" fill="white" stroke="#2E353A" stroke-linecap="round" stroke-linejoin="round"/>
<path d="M152.29 261.77C152.29 261.77 161.13 261.44 162.51 263.03C163.89 264.62 164.16 270.58 161.83 271.47C155.83 273.76 142.83 273.75 142.22 272.58C141.61 271.41 139.97 264.41 142.59 263.42C145.21 262.43 152.29 261.77 152.29 261.77Z" fill="white" stroke="#2E353A" stroke-linecap="round" stroke-linejoin="round"/>
<path d="M157.38 251.3C157.38 251.3 166.22 250.96 167.6 252.55C168.98 254.14 169.31 260.28 166.91 261C164.51 261.72 147.91 263.27 147.3 262.1C146.69 260.93 145.06 253.93 147.68 252.95C150.3 251.97 157.38 251.3 157.38 251.3Z" fill="white" stroke="#2E353A" stroke-linecap="round" stroke-linejoin="round"/>
<path d="M123 281.37C126.487 281.507 129.931 280.553 132.85 278.64C139.97 273.73 139.72 262.45 139.72 262.45L141.44 261.96C142.851 261.426 144.173 260.681 145.36 259.75C144.787 262.08 144.452 264.462 144.36 266.86C144.398 268.174 144.92 269.428 145.827 270.381C146.733 271.333 147.959 271.917 149.27 272.02C151.48 272.26 152.46 272.51 153.2 269.56C153.94 266.61 157.61 254.84 157.86 253.13C158.11 251.42 155.46 248.78 151.29 248.13C144.88 248.66 138.55 250.45 132.1 250.45C129.851 250.66 127.694 251.449 125.84 252.74" fill="white"/>
<path d="M123 281.37C126.487 281.507 129.931 280.553 132.85 278.64C139.97 273.73 139.72 262.45 139.72 262.45L141.44 261.96C142.851 261.426 144.173 260.681 145.36 259.75C144.787 262.08 144.452 264.462 144.36 266.86C144.398 268.174 144.92 269.428 145.827 270.381C146.733 271.333 147.959 271.917 149.27 272.02C151.48 272.26 152.46 272.51 153.2 269.56C153.94 266.61 157.61 254.84 157.86 253.13C158.11 251.42 155.46 248.78 151.29 248.13C144.88 248.66 138.55 250.45 132.1 250.45C129.851 250.66 127.694 251.449 125.84 252.74" stroke="#2E353A" stroke-linecap="round" stroke-linejoin="round"/>
<path d="M116.44 280.36C117.838 280.79 119.275 281.081 120.73 281.23Z" fill="white"/>
<path d="M116.44 280.36C117.838 280.79 119.275 281.081 120.73 281.23" stroke="#2E353A" stroke-linecap="round" stroke-linejoin="round"/>
<path d="M107.6 277.17H98.77" stroke="#2E353A" stroke-linecap="round" stroke-linejoin="round"/>
<path d="M106.87 279.62H103.19" stroke="#2E353A" stroke-linecap="round" stroke-linejoin="round"/>
<path d="M139.74 262.45C139.74 262.45 134.86 262.45 131.66 259.54" stroke="#2E353A" stroke-linecap="round" stroke-linejoin="round"/>
<path d="M145.5 259.43C145.637 258.099 145.912 256.785 146.32 255.51" stroke="#2E353A" stroke-linecap="round" stroke-linejoin="round"/>
<path d="M153.24 268.31C153.24 268.31 154.17 265.73 153.03 264.8C151.89 263.87 148.9 262.53 148.39 263.56C147.88 264.59 146.74 269.35 147.05 270.27L147.36 271.2" stroke="#2E353A" stroke-width="0.5" stroke-linecap="round" stroke-linejoin="round"/>
<path d="M17.72 299.61H102.27V258.04H17.72" fill="#4865BC"/>
<path d="M17.72 299.61H102.27V258.04H17.72" stroke="#2E353A" stroke-linecap="round" stroke-linejoin="round"/>
<path d="M94.1699 294.92C94.1699 295.296 94.2814 295.663 94.4901 295.976C94.6989 296.288 94.9956 296.532 95.3428 296.675C95.69 296.819 96.072 296.857 96.4406 296.784C96.8092 296.71 97.1477 296.529 97.4134 296.264C97.6791 295.998 97.8601 295.659 97.9334 295.291C98.0067 294.922 97.9691 294.54 97.8253 294.193C97.6815 293.846 97.438 293.549 97.1255 293.34C96.8131 293.131 96.4457 293.02 96.0699 293.02C95.566 293.02 95.0827 293.22 94.7264 293.577C94.3701 293.933 94.1699 294.416 94.1699 294.92Z" fill="white" stroke="#2E353A" stroke-linecap="round" stroke-linejoin="round"/>
</g>
<defs>
<clipPath id="clip0_105_801">
<rect width="409" height="335" fill="white"/>
</clipPath>
</defs>
</svg>
