<svg width="485" height="500" viewBox="0 0 485 500" fill="none" xmlns="http://www.w3.org/2000/svg">
<path d="M72.026 100.52C72.026 100.52 38.2396 128.602 38.9141 146.129C39.5887 163.656 84.431 108.46 204.641 57.7538C204.641 57.7538 198.591 36.2541 145 57.7538C145 57.7538 146.217 46.3984 136.881 45.988C127.544 45.5826 125.561 54.9112 125.561 54.9112C125.561 54.9112 118.207 31.79 93.0323 43.5558C67.8573 55.3216 72.026 100.52 72.026 100.52Z" fill="#F3E7D9"/>
<path d="M170.586 159.947C170.586 159.947 164.206 129.099 187.428 118.179C210.651 107.259 216.519 123.874 216.519 123.874C216.519 123.874 211.183 99.0253 234.867 86.1296C258.551 73.2338 274.917 86.1296 274.917 86.1296C274.917 86.1296 263.161 19.6645 324.055 4.20983C384.949 -11.2448 396.806 33.0619 390.101 62.9425C390.101 62.9425 396.806 49.5451 411.244 55.727C425.683 61.9088 417.949 75.8231 417.949 75.8231C417.949 75.8231 458.171 66.0335 471.063 73.7608C483.955 81.4881 356.087 124.173 300.619 157.555C245.152 190.937 288.859 143.702 288.859 143.702C288.859 143.702 130.541 207.735 91.9115 227.8C53.2868 247.866 82.9146 202.009 170.586 159.947Z" fill="#F3E7D9"/>
<path d="M246.162 316.405C208.982 313.309 30.7034 377.909 3.65197 395.619C-23.3995 413.328 161.28 493.469 199.524 496.266C237.763 499.063 455.088 395.619 461.62 381.644C468.152 367.658 302.126 321.066 246.162 316.405Z" fill="#F3E7D9"/>
<g opacity="0.1">
<path d="M162.685 348.713C127.919 350.983 60.0726 383.706 52.5515 398.122C45.0254 412.538 149.078 438.334 166.65 438.968C184.218 439.601 307.765 435.841 307.765 435.841L391.121 366.214C391.116 366.219 198.21 346.392 162.685 348.713Z" fill="black"/>
</g>
<g opacity="0.1">
<path d="M205.924 450.014C164.257 453.799 144.878 449.527 143.565 454.169C142.251 458.81 179.314 476.718 205.924 475.395C232.534 474.067 265.905 460.072 274.425 453.51C282.94 446.943 229.765 447.85 205.924 450.014Z" fill="black"/>
</g>
<path d="M441.1 423.574C441.1 423.574 335.704 477.625 282.54 493.469C229.375 509.314 406.594 487.88 463.486 468.306C520.383 448.737 441.1 423.574 441.1 423.574Z" fill="#F3E7D9"/>
<path d="M317.746 172.677C290.482 187.635 256.239 162.669 256.239 162.669C222.412 182.066 190.101 171.334 193.408 146.986C196.709 122.634 218.603 130.062 218.603 130.062C215.433 120.222 213.278 110.691 216.539 102.822C200.057 105.538 192.769 96.7918 190.781 85.8924C190.781 85.8924 190.781 85.8874 190.781 85.8823C188.544 73.5642 193.078 58.4997 198.773 54.1218C209.515 45.8675 210.342 61.9605 210.342 61.9605C210.342 61.9605 221.91 33.4835 242.977 39.265C263.836 44.9858 253.51 66.8908 253.307 67.3215C253.84 67.1341 285.709 55.9408 307.42 75.9964C319.526 87.1795 318.745 100.638 315.626 110.432C313.111 118.347 309.069 123.87 309.069 123.87C318.664 122.036 325.896 125.406 330.181 131.228C338.428 142.461 335.699 162.826 317.746 172.677Z" fill="#363E4F"/>
<g opacity="0.2">
<path d="M317.746 172.677C290.482 187.635 256.239 162.669 256.239 162.669C231.647 176.771 207.851 174.947 197.972 163.546C201.735 165.633 205.402 165.922 206.807 164.118C210.098 159.887 200.893 151.628 206.807 142.968C212.72 134.309 224.679 139.543 225.308 135.925C225.936 132.307 218.603 130.062 218.603 130.062C215.433 120.222 213.278 110.691 216.539 102.822C200.057 105.538 192.769 96.7918 190.781 85.8925C190.781 85.8925 190.781 85.8874 190.781 85.8823C190.689 82.3962 191.014 78.8948 191.76 75.4846C192.343 72.8194 193.251 70.0882 195.218 68.1931C197.186 66.3031 200.477 65.5531 202.694 67.1493C204.022 68.112 204.732 69.6929 205.377 71.2029C207.04 75.0641 208.698 78.9252 210.357 82.7863C212.03 74.4814 217.036 66.8909 224.014 62.072C229.446 58.3224 237.966 56.7921 241.871 62.1126C243.281 64.0279 243.758 66.4601 244.037 68.8214C244.742 74.7803 244.427 80.8608 243.109 86.7133C248.728 81.3777 256.67 79.3863 264.287 77.9371C271.24 76.6146 278.848 75.6721 285.055 79.0772C290.933 82.2999 294.311 88.9276 295.284 95.5554C296.258 102.183 295.178 108.922 294.098 115.535C301.238 113.691 308.414 111.993 315.626 110.432C313.111 118.347 309.069 123.87 309.069 123.87C307.613 125.264 302.4 129.49 301.436 131.258C298.287 137.035 302.329 144.98 308.592 146.997C314.86 149.013 322.011 145.902 325.997 140.668C328.112 137.891 329.446 134.643 330.181 131.228C338.428 142.462 335.699 162.826 317.746 172.677Z" fill="black"/>
</g>
<path d="M191.688 180.87C183.047 180.581 177.793 179.284 167.741 182.669C157.689 186.054 161.812 226.038 187.266 227.634C187.266 227.634 198.89 218.868 201.482 210.806C204.078 202.745 191.688 180.87 191.688 180.87Z" fill="#363E4F"/>
<path d="M203.596 214.06C203.596 214.06 183.138 227.791 165.88 236.096C161.67 238.123 157.897 239.314 154.524 239.881C144.067 241.655 137.459 237.48 133.594 233.862C128.477 229.073 130.08 216.613 139.665 207.994C144.802 203.373 158.105 195.271 169.744 188.592C179.826 182.811 188.661 178.098 189.853 177.652L203.596 214.06Z" fill="#FFB68D"/>
<g opacity="0.2">
<path d="M203.596 214.06C203.596 214.06 183.138 227.791 165.88 236.096C161.67 238.123 157.897 239.314 154.524 239.881C145.872 236 138.057 230.264 131.87 223.084C149.666 215.23 167.467 207.376 185.263 199.527C181.799 195.565 177.579 192.281 172.919 189.844C172.006 189.363 170.905 188.972 169.744 188.592C179.826 182.811 188.661 178.098 189.853 177.652L203.596 214.06Z" fill="black"/>
</g>
<path d="M234.588 201.513C218.826 209.712 187.758 227.356 187.271 227.629C187.454 227.239 196.248 208.521 190.791 197.247C190.629 196.897 190.446 196.558 190.248 196.223C183.63 184.98 167.746 182.669 167.746 182.669C167.746 182.669 207.628 164.605 225.749 159.436C225.749 159.436 225.749 159.436 225.749 159.431C228.695 158.59 231.069 158.088 232.6 158.063C260.063 157.592 250.472 193.249 234.588 201.513Z" fill="#65A9DF"/>
<g opacity="0.2">
<path d="M234.588 201.513C218.826 209.712 187.758 227.356 187.271 227.629C187.454 227.239 196.248 208.521 190.791 197.247C192.15 196.487 193.428 195.615 194.493 194.485C196.263 192.605 197.333 189.839 196.517 187.391C201.121 187.63 205.64 189.307 209.282 192.129C208.379 186.297 208.668 180.282 210.123 174.562C212.563 178.585 215.007 182.603 217.447 186.621C217.041 178.017 219.425 169.348 223.969 162.041C224.572 161.068 225.16 160.206 225.749 159.436C225.749 159.436 225.749 159.436 225.749 159.431C228.695 158.59 231.069 158.088 232.6 158.063C260.063 157.592 250.472 193.249 234.588 201.513Z" fill="black"/>
</g>
<path d="M369.521 335.315C369.521 335.315 366.575 336.785 361.077 338.756C358.47 339.688 355.285 340.737 351.568 341.791C337.921 345.657 317.102 349.625 291.202 348.525C243.393 346.493 201.69 329.219 201.69 329.219C225.034 297.966 228.143 257.905 228.498 251.546C228.528 250.978 228.538 250.679 228.538 250.679C219.409 242.278 215.271 233.178 214.247 223.859C213.45 216.71 214.495 209.428 216.524 202.243C221.195 185.694 227.113 159.963 228.386 159.112C229.025 158.686 232.316 156.502 237.956 154.349C243.58 152.206 251.532 150.087 261.513 149.778C270.054 149.51 284.583 150.574 297.921 154.101C309.474 157.151 320.125 162.056 325.211 169.55C327.062 172.281 328.178 175.357 328.325 178.813C328.442 181.564 328.508 184.615 328.533 187.858C328.711 212.793 326.418 249.225 326.418 249.225L369.521 335.315Z" fill="#F7BC4B"/>
<g opacity="0.2">
<path d="M369.521 335.315C369.521 335.315 366.575 336.785 361.077 338.756C361.042 338.7 361.001 338.644 360.966 338.589C346.917 317.398 338.433 292.584 322.052 273.132C318.867 269.347 315.373 265.769 311.28 262.982C299.925 255.24 285.395 254.363 271.661 253.745C259.079 253.178 246.501 252.605 233.924 252.037C232.119 251.956 230.278 251.865 228.498 251.546C228.528 250.978 228.538 250.679 228.538 250.679C219.409 242.278 215.271 233.178 214.247 223.859C230.389 238.154 255.544 241.533 274.775 231.632C277.306 230.33 279.771 228.795 281.683 226.682C284.046 224.067 285.435 220.713 286.435 217.333C288.97 208.749 289.28 199.669 291.329 190.959C293.383 182.248 297.708 173.391 305.625 169.211C311.209 165.486 319.41 166.556 325.211 169.55C327.062 172.281 328.178 175.357 328.325 178.813C329.345 202.694 326.418 249.225 326.418 249.225L369.521 335.315Z" fill="black"/>
</g>
<g opacity="0.2">
<path d="M369.521 335.315C369.521 335.315 366.575 336.785 361.077 338.756C358.47 339.688 355.285 340.737 351.568 341.791C347.942 339.171 345.518 335.077 343.073 331.256C338.458 324.041 333.163 317.221 329.395 309.534C326.925 304.497 325.14 299.156 323.365 293.831C316.012 271.779 308.658 249.727 301.304 227.68C297.84 220.753 288.499 191.724 297.896 187.052C303.363 184.331 316.367 187.386 322.478 187.625C324.496 187.701 326.515 187.782 328.533 187.858C328.711 212.793 326.418 249.225 326.418 249.225L369.521 335.315Z" fill="black"/>
</g>
<path d="M269.435 146.181L281.606 158.762H288.742C288.742 158.762 276.149 175.119 263.141 175.955C250.128 176.796 242.576 167.99 242.576 167.99L251.811 166.312L241.739 154.572L269.435 146.181Z" fill="#FFB68D"/>
<g opacity="0.3">
<path d="M297.921 154.101C267.366 183.991 243.864 173.867 237.956 154.349C243.58 152.206 251.532 150.087 261.513 149.778C270.053 149.51 284.583 150.574 297.921 154.101Z" fill="black"/>
</g>
<path d="M91.9115 392.107L142.657 363.367C142.657 363.367 295.299 382.353 296.785 384.577C298.276 386.802 296.415 435.532 290.826 438.507C285.238 441.481 201 429.208 199.377 428.464C197.759 427.719 91.9115 392.107 91.9115 392.107Z" fill="#363E4F"/>
<path d="M279.877 405.611C277.96 414.666 279.309 422.018 279.309 422.018C265.626 415.907 256.893 425.216 256.893 425.216L101.309 390.014C101.309 390.014 99.2855 387.228 101.055 384.952C101.055 384.952 99.5391 383.432 99.7926 382.166C100.046 380.899 102.83 378.365 102.83 378.365C102.83 378.365 100.802 374.317 100.3 372.543C99.7926 370.77 102.374 368.342 102.374 368.342C102.374 368.342 100.315 365.54 100.822 364.274C101.329 363.007 103.591 361.152 103.591 361.152C103.591 361.152 102.577 359.632 101.563 357.352C100.553 355.077 104.352 352.543 102.83 350.263C102.628 349.954 102.465 349.645 102.354 349.331C101.608 347.324 102.663 345.252 104.859 343.934L267.665 376.354L286.587 390.313C282.905 395.32 280.912 400.716 279.877 405.611Z" fill="#EFE6D9"/>
<g opacity="0.2">
<path d="M286.587 390.313C282.905 395.32 280.912 400.716 279.877 405.611C273.609 403.118 249.97 398.122 249.97 398.122L270.033 398.943C270.033 398.943 260.453 384.481 258.49 384.572C256.68 384.664 122.691 354.084 102.354 349.331C101.608 347.324 102.663 345.252 104.859 343.934L267.665 376.354L286.587 390.313Z" fill="black"/>
</g>
<g opacity="0.2">
<path d="M145.948 363.848C145.948 363.848 121.255 377.97 120.814 378C120.566 378.016 110.428 376.83 101.421 375.386C100.954 374.347 100.503 373.258 100.3 372.543C99.7926 370.77 102.374 368.342 102.374 368.342C102.374 368.342 100.315 365.54 100.822 364.274C100.893 364.091 101.005 363.899 101.132 363.701C101.137 363.701 101.137 363.701 101.137 363.696C107.38 360.716 113.435 358.112 113.435 358.112L145.948 363.848Z" fill="black"/>
<path d="M174.329 377.225C174.329 377.225 149.641 391.347 149.199 391.377C148.758 391.408 117.218 387.663 116.037 385.373C114.855 383.083 141.82 371.489 141.82 371.489L174.329 377.225Z" fill="black"/>
<path d="M206.731 387.648C206.731 387.648 182.042 401.77 181.601 401.801C181.16 401.831 149.62 398.086 148.439 395.796C147.257 393.506 174.222 381.912 174.222 381.912L206.731 387.648Z" fill="black"/>
<path d="M237.799 400.65C237.799 400.65 213.111 414.772 212.669 414.803C212.583 414.808 211.209 414.656 209.063 414.392C209.058 414.392 209.053 414.392 209.043 414.387L179.983 407.815C183.61 404.238 205.29 394.914 205.29 394.914L237.799 400.65Z" fill="black"/>
<path d="M270.033 412.046C270.033 412.046 256.994 419.505 249.702 423.589C249.696 423.589 249.696 423.589 249.696 423.589L216.843 416.156C224.374 411.965 237.525 406.305 237.525 406.305L270.033 412.046Z" fill="black"/>
</g>
<path d="M398.616 365.338C395.132 368.819 312.365 438.375 301.537 444.942C290.705 451.514 284.908 448.423 284.908 448.423C284.908 448.423 279.877 440.696 270.596 439.92C261.315 439.145 254.738 446.102 252.42 445.717C250.097 445.332 93.4583 405.14 91.9115 402.049C90.3647 398.958 88.4325 390.455 94.6197 392.006C100.807 393.551 256.67 428.712 256.67 428.712C256.67 428.712 262.472 422.915 270.596 423.305C278.716 423.69 282.266 431.068 282.266 431.068C306.802 412.32 289.964 390.688 289.964 390.688C269.754 395.016 265.905 380.595 265.905 380.595C229.339 370.02 95.5833 345.019 95.5833 345.019C92.8599 338.675 94.1329 335.178 95.4464 333.461C96.2325 332.442 97.0287 332.042 97.0287 332.042C119.14 313.43 144.042 298.381 165.352 287.233C181.282 278.903 195.208 272.757 204.464 268.926C211.924 265.84 216.351 264.259 216.351 264.259C241.136 267.107 264.556 271.054 285.111 275.194C308.262 279.861 327.777 284.771 341.486 288.637C354.687 292.366 362.507 295.133 363.03 295.782C364.576 297.717 368.831 306.605 371.154 306.99C373.477 307.375 382.372 306.605 385.075 306.605C385.654 306.605 386.49 306.64 387.495 306.848C391.212 307.613 397.196 310.745 400.549 323.22C404.804 339.065 402.095 361.862 398.616 365.338Z" fill="#ED4A2F"/>
<g opacity="0.2">
<path d="M341.486 288.637C337.165 291.551 331.505 295.3 327.696 297.616C320.769 301.822 319.597 298.183 319.597 298.183C319.597 298.183 325.521 290.426 314.658 296.532C303.789 302.632 305.422 296.258 305.696 295.716C305.965 295.174 314.657 285.946 302.303 293.273C289.944 300.6 290.761 293.273 290.761 293.273C290.761 293.273 296.324 284.183 286.587 289.068C276.849 293.952 274.871 287.71 279.081 281.335C279.081 281.335 281.926 278.315 285.111 275.194C308.262 279.861 327.778 284.771 341.486 288.637Z" fill="black"/>
</g>
<g opacity="0.2">
<path d="M191.744 284.447C191.744 284.447 169.764 293.557 145.162 308.368C145.162 308.368 240.776 322.278 303.87 338.69L337.084 310.998C337.084 310.993 266.427 292.057 191.744 284.447Z" fill="black"/>
</g>
<path d="M225.358 309.255C226.687 307.431 228.295 305.815 230.11 304.487C230.105 304.522 230.1 304.558 230.095 304.593C229.836 306.22 228.112 307.583 226.824 308.424C226.347 308.738 225.86 309.017 225.358 309.255ZM205.61 294.246C205.61 294.246 205.62 294.201 205.64 294.155C205.62 294.221 205.61 294.246 205.61 294.246ZM205.645 294.14C205.65 294.135 205.65 294.125 205.655 294.12C205.701 294.135 205.757 294.16 205.787 294.186C205.889 294.262 205.995 294.333 206.102 294.403C206.102 294.403 206.102 294.403 206.107 294.403C206.112 294.409 206.112 294.414 206.117 294.419C206.178 294.5 206.279 294.596 206.355 294.662C206.371 294.677 206.381 294.687 206.391 294.697C206.401 294.713 206.411 294.728 206.421 294.743C206.548 294.93 206.67 295.118 206.781 295.316C207.136 295.939 207.197 296.096 207.42 296.755C207.603 297.302 207.755 297.864 207.856 298.432C207.856 298.437 207.862 298.462 207.867 298.498C207.78 298.457 207.674 298.412 207.649 298.401C207.547 298.346 207.324 298.153 207.304 298.153C207.294 298.153 207.319 298.183 207.39 298.259C207.162 298.016 206.928 297.778 206.726 297.51C206.3 296.947 205.934 296.329 205.742 295.726C205.701 295.594 205.661 295.468 205.63 295.336C205.625 295.321 205.574 295.032 205.564 295.032C205.549 294.844 205.559 294.657 205.554 294.464C205.554 294.449 205.554 294.434 205.554 294.424C205.559 294.414 205.564 294.403 205.569 294.388C205.6 294.312 205.625 294.221 205.645 294.14ZM205.605 294.11C205.605 294.104 205.605 294.104 205.605 294.11C205.615 294.11 205.62 294.11 205.63 294.115C205.62 294.11 205.61 294.11 205.605 294.11ZM205.569 294.099H205.574C205.579 294.099 205.579 294.099 205.584 294.099C205.579 294.104 205.574 294.099 205.569 294.099ZM205.544 294.094C205.539 294.094 205.534 294.089 205.529 294.089C205.534 294.089 205.539 294.089 205.544 294.094C205.544 294.089 205.544 294.089 205.544 294.094ZM205.488 294.074C205.478 294.069 205.463 294.064 205.453 294.059C205.463 294.064 205.473 294.069 205.488 294.074ZM193.595 286.772C192.718 286.772 192.14 287.472 192.074 288.293C191.932 290.142 191.207 291.89 190.75 293.674C190.304 295.417 190.106 297.241 190.492 299.014C191.328 302.865 195.031 304.193 198.434 305.054C199.884 305.419 201.4 305.668 202.897 305.668C205.138 305.668 207.319 305.105 209.119 303.534C209.586 303.124 209.971 302.673 210.271 302.181C210.413 302.202 210.56 302.222 210.702 302.237C211.523 302.344 212.335 302.379 213.151 302.379C213.653 302.379 214.16 302.364 214.673 302.344C216.782 302.257 218.887 302.171 220.997 302.08C222.092 302.034 223.188 301.989 224.283 301.943C224.806 301.923 225.338 301.893 225.871 301.893C226.378 301.893 226.885 301.918 227.377 302.009C227.63 302.055 227.879 302.116 228.112 302.186C228.077 302.212 228.041 302.242 228.006 302.268C224.937 304.603 222.391 307.588 220.723 311.074C220.16 312.25 220.966 313.329 222.143 313.329C222.239 313.329 222.341 313.324 222.442 313.309C225.668 312.822 228.802 311.216 231.038 308.835C232.205 307.593 233.209 305.977 233.158 304.213C233.143 303.702 233.047 303.215 232.879 302.754C233.99 302.176 235.151 301.695 236.353 301.32C237.915 300.834 239.731 300.413 241.491 300.413C242.916 300.413 244.311 300.692 245.507 301.437C246.583 302.105 247.45 303.235 247.617 304.497C247.668 304.882 247.612 305.384 247.44 305.885C247.343 306.179 246.897 306.924 246.709 307.157C245.802 308.272 244.655 309.164 243.616 310.152C242.459 311.252 241.501 312.463 240.908 313.957C240.471 315.057 241.562 315.847 242.525 315.847C242.612 315.847 242.698 315.842 242.779 315.827C249.935 314.682 257.05 313.314 264.115 311.718C263.912 312.295 263.8 312.903 263.821 313.547C263.887 315.483 265.083 317.221 267.061 317.601C268.086 317.793 269.136 317.763 270.17 317.778C271.225 317.793 272.275 317.803 273.33 317.808C273.771 317.808 274.207 317.813 274.648 317.813C276.398 317.813 278.148 317.798 279.897 317.773C282.043 317.737 284.193 317.682 286.338 317.601C286.982 317.575 287.662 317.535 288.341 317.535C289.33 317.535 290.319 317.631 291.192 318.026C291.968 318.376 292.51 319.004 293.058 319.633C293.621 320.276 294.204 320.874 294.874 321.406C296.349 322.571 298.023 323.413 299.818 323.965C301.857 324.593 303.952 324.816 306.051 324.816C308.516 324.816 310.991 324.512 313.42 324.193C314.237 324.086 314.942 323.57 314.942 322.673C314.942 321.974 314.318 321.142 313.557 321.142C313.511 321.142 313.466 321.148 313.42 321.153C311.042 321.462 308.587 321.806 306.158 321.806C304.824 321.806 303.495 321.705 302.192 321.436C300.665 321.122 299.2 320.616 297.861 319.81C296.466 318.969 295.568 317.758 294.417 316.638C292.591 314.859 290.218 314.515 287.804 314.515C286.587 314.515 285.354 314.601 284.178 314.636C280.993 314.733 277.808 314.778 274.628 314.778C273.771 314.778 272.909 314.773 272.052 314.768C270.956 314.758 269.861 314.748 268.765 314.722C268.36 314.712 267.944 314.733 267.563 314.611C267.224 314.5 267.183 314.459 267.056 314.266C266.777 313.836 266.782 313.299 266.975 312.721C267.244 311.895 267.822 311.181 268.36 310.512C268.786 309.975 268.968 309.301 268.598 308.667C268.319 308.186 267.797 307.922 267.259 307.922C267.132 307.922 267.006 307.938 266.879 307.968C259.9 309.62 252.871 311.054 245.802 312.265C245.903 312.169 246.004 312.072 246.111 311.976C247.176 310.998 248.271 310.071 249.159 308.921C250.112 307.679 250.756 306.144 250.645 304.548C250.518 302.698 249.615 300.96 248.236 299.724C246.339 298.026 243.92 297.428 241.46 297.428C239.979 297.428 238.483 297.646 237.079 297.971C234.969 298.462 232.915 299.258 231.008 300.307C230.881 300.21 230.749 300.114 230.612 300.028C229.177 299.09 227.402 298.862 225.718 298.862C225.627 298.862 225.536 298.862 225.445 298.862C223.538 298.888 221.626 299.009 219.719 299.091C217.781 299.172 215.839 299.253 213.902 299.334C213.577 299.349 213.258 299.359 212.933 299.359C212.735 299.359 212.538 299.354 212.335 299.344C212.096 299.334 211.858 299.319 211.62 299.298C211.467 299.283 211.315 299.273 211.163 299.253C211.143 299.253 211.067 299.243 210.986 299.232C210.955 298.067 210.681 296.876 210.296 295.792C209.591 293.795 208.059 291.044 205.655 291.044C205.437 291.044 205.209 291.069 204.971 291.115C203.759 291.368 202.907 292.407 202.623 293.572C202.263 295.067 202.709 296.648 203.409 297.971C204.093 299.263 205.082 300.575 206.447 301.188C206.609 301.259 206.771 301.325 206.933 301.391C206.746 301.548 206.543 301.685 206.335 301.806C205.265 302.44 204.099 302.663 202.881 302.663C202.643 302.663 202.4 302.653 202.156 302.637C200.31 302.516 198.418 301.984 196.674 301.376C195.396 300.93 194.118 300.22 193.621 298.933C193.043 297.449 193.327 295.782 193.732 294.256C194.26 292.265 194.944 290.355 195.107 288.287C195.183 287.477 194.376 286.772 193.595 286.772Z" fill="#363E4F"/>
<g opacity="0.2">
<path d="M398.616 365.338C395.132 368.819 312.365 438.375 301.537 444.942C293.23 449.978 287.885 449.34 285.846 448.767C285.222 448.59 284.908 448.423 284.908 448.423C284.908 448.423 279.877 440.696 270.596 439.92C261.315 439.145 254.738 446.102 252.42 445.717C250.097 445.332 93.4583 405.14 91.9115 402.049C90.3647 398.958 88.4325 390.455 94.6197 392.006C100.807 393.551 256.67 428.712 256.67 428.712C256.67 428.712 262.472 422.915 270.596 423.305C278.716 423.69 282.266 431.068 282.266 431.068C306.802 412.32 289.964 390.688 289.964 390.688C269.754 395.016 265.905 380.595 265.905 380.595C229.339 370.02 95.5833 345.019 95.5833 345.019C92.8599 338.675 94.1329 335.178 95.4464 333.461C123.857 338.249 225.155 355.548 280.186 367.856C280.186 367.856 279.527 383.498 297.891 381.228L387.495 306.848C391.212 307.613 397.196 310.745 400.549 323.22C400.767 324.036 400.97 324.867 401.147 325.718C404.525 341.36 401.918 362.039 398.616 365.338Z" fill="black"/>
</g>
<g opacity="0.4">
<path d="M306.634 418.314C301.538 444.942 284.908 448.423 284.908 448.423C284.908 448.423 279.877 440.696 270.596 439.92C261.315 439.145 254.738 446.102 252.42 445.717C250.097 445.332 93.4583 405.14 91.9115 402.049C90.3647 398.958 88.4325 390.455 94.6197 392.006C100.807 393.551 256.67 428.712 256.67 428.712C256.67 428.712 262.472 422.915 270.596 423.305C278.716 423.69 282.266 431.068 282.266 431.068C306.802 412.32 289.964 390.688 289.964 390.688C269.754 395.016 265.905 380.595 265.905 380.595C229.339 370.02 95.5833 345.019 95.5833 345.019C92.8599 338.675 94.1329 335.178 95.4464 333.461C123.857 338.249 225.155 355.548 280.186 367.856C280.186 367.856 279.527 383.498 297.891 381.228C297.891 381.228 311.731 391.692 306.634 418.314Z" fill="black"/>
</g>
<g opacity="0.2">
<path d="M356.898 331.819L322.189 360.782C322.189 360.782 345.041 381.77 330.192 422.611L373.949 386.366C373.944 386.366 381.825 351.358 356.898 331.819Z" fill="black"/>
</g>
<g opacity="0.2">
<path d="M358.856 301.695C356.381 302.84 290.923 359.085 286.358 365.449C281.789 371.813 294.858 371.337 322.189 350.304C349.514 329.27 371.849 295.68 358.856 301.695Z" fill="black"/>
</g>
<g opacity="0.2">
<path d="M398.616 365.338C395.132 368.819 312.365 438.375 301.537 444.942C293.23 449.978 287.885 449.34 285.846 448.767C286.227 448.428 286.607 448.078 286.977 447.729C291.592 445.818 302.643 439.155 306.634 418.314C307.385 414.392 307.725 410.825 307.755 407.587C308.136 407.035 308.572 406.518 309.069 406.047C311.817 403.452 315.854 402.91 319.582 402.257C326.038 401.116 332.636 399.105 337.358 394.56C342.079 390.014 344.311 382.368 341.014 376.703C340.37 375.599 339.508 374.509 339.477 373.227C339.437 371.195 341.547 369.711 343.56 369.462C345.579 369.214 347.597 369.792 349.626 369.878C356.589 370.162 363.035 363.569 362.583 356.622C362.477 355.001 362.091 353.217 362.989 351.859C363.871 350.522 365.646 350.167 367.229 349.893C376.86 348.241 386.708 345.323 393.819 338.619C397.607 335.052 400.133 330.557 401.147 325.718C404.525 341.36 401.918 362.039 398.616 365.338Z" fill="black"/>
</g>
<path opacity="0.2" d="M330.521 382.171C314.942 387.663 317.34 397.352 331.672 390.942C346.005 384.532 338.169 379.475 330.521 382.171Z" fill="black"/>
<g opacity="0.2">
<path d="M229.705 404.233C229.705 404.233 244.498 406.635 254.2 408.15C263.902 409.665 277.722 412.512 277.722 412.512C277.722 412.512 271.159 413.637 254.839 410.734C238.042 407.744 229.705 404.233 229.705 404.233Z" fill="black"/>
</g>
<path d="M237.515 406.178C237.515 406.178 229.781 412.897 229.274 413.404C228.766 413.911 226.17 415.973 230.08 416.895C233.99 417.823 254.565 421.795 256.269 422.251C257.973 422.707 260.134 422.023 261.726 420.321C263.319 418.618 270.368 411.914 270.023 411.914C269.678 411.914 237.515 406.178 237.515 406.178Z" fill="#F7BC4B"/>
<path d="M247.698 416.389L246.293 417.417L239.624 415.755L247.201 410.207L253.713 411.828L252.308 412.857L247.779 411.727L246.136 412.933L250.138 413.931L248.773 414.929L244.772 413.931L243.017 415.213L247.698 416.389Z" fill="#363E4F"/>
<g opacity="0.2">
<path d="M197.911 392.969C197.911 392.969 212.705 395.37 222.407 396.885C232.108 398.4 269.846 405.971 269.846 405.971C269.846 405.971 239.366 402.373 223.046 399.47C206.249 396.48 197.911 392.969 197.911 392.969Z" fill="black"/>
</g>
<path d="M205.716 394.914C205.716 394.914 197.982 401.633 197.475 402.14C196.973 402.642 194.371 404.709 198.281 405.631C202.192 406.559 222.767 410.531 224.471 410.987C226.175 411.443 228.335 410.759 229.928 409.057C231.52 407.354 238.57 400.65 238.225 400.65C237.885 400.65 205.716 394.914 205.716 394.914Z" fill="#ED4A2F"/>
<path d="M215.403 398.943L219.318 399.921C222.138 400.625 222.574 402.201 220.282 403.878C217.989 405.56 214.561 406.168 211.741 405.464L207.826 404.486L215.403 398.943ZM213.08 404.385C214.789 404.81 216.808 404.435 218.258 403.371C219.709 402.312 219.485 401.375 217.776 400.944L215.956 400.488L211.259 403.929L213.08 404.385Z" fill="#363E4F"/>
<g opacity="0.2">
<path d="M167.132 379.961C167.132 379.961 181.926 382.363 191.628 383.878C201.329 385.393 239.067 392.963 239.067 392.963C239.067 392.963 208.587 389.366 192.267 386.462C175.47 383.478 167.132 379.961 167.132 379.961Z" fill="black"/>
</g>
<path d="M174.937 381.912C174.937 381.912 167.203 388.631 166.696 389.138C166.194 389.639 163.592 391.707 167.502 392.629C171.413 393.556 191.988 397.529 193.692 397.985C195.396 398.441 197.556 397.757 199.149 396.054C200.741 394.352 207.791 387.648 207.446 387.648C207.106 387.648 174.937 381.912 174.937 381.912Z" fill="#65A9DF"/>
<path d="M180.293 388.575C182.575 386.903 186.206 386.204 188.889 386.873C190.38 387.243 191.146 387.901 191.09 388.738L188.772 389.178C188.777 388.606 188.357 388.205 187.494 387.988C185.882 387.587 183.741 388.028 182.311 389.077C180.881 390.121 181.028 391.139 182.641 391.54C183.503 391.752 184.533 391.712 185.704 391.423L185.948 392.502C184.259 392.943 182.54 392.979 181.038 392.604C178.371 391.94 178.011 390.248 180.293 388.575Z" fill="#363E4F"/>
<g opacity="0.2">
<path d="M134.624 369.168C134.624 369.168 149.417 371.57 159.119 373.085C168.821 374.6 206.558 382.171 206.558 382.171C206.558 382.171 176.078 378.573 159.758 375.669C142.961 372.68 134.624 369.168 134.624 369.168Z" fill="black"/>
</g>
<path d="M142.429 371.114C142.429 371.114 134.695 377.833 134.188 378.34C133.686 378.841 131.084 380.909 134.994 381.831C138.904 382.758 159.479 386.731 161.183 387.187C162.887 387.643 165.048 386.959 166.64 385.256C168.233 383.554 175.282 376.85 174.937 376.85C174.597 376.85 142.429 371.114 142.429 371.114Z" fill="#F7BC4B"/>
<path d="M154.504 381.147C153.196 382.105 151.253 382.368 148.991 381.801L144.539 380.691L152.115 375.142L156.325 376.191C158.48 376.728 158.795 377.585 157.613 378.446C156.857 378.999 155.828 379.318 154.803 379.379C155.493 379.819 155.458 380.448 154.504 381.147ZM152.683 380.509C153.322 380.042 153.074 379.683 152.039 379.424L149.712 378.847L147.84 380.215L150.168 380.792C151.198 381.056 152.034 380.985 152.683 380.509ZM152.775 376.602L150.99 377.909L152.973 378.406C153.946 378.649 154.778 378.558 155.371 378.122C155.965 377.686 155.731 377.342 154.758 377.098L152.775 376.602Z" fill="#363E4F"/>
<g opacity="0.2">
<path d="M105.63 356.166C105.63 356.166 120.424 358.568 130.125 360.083C139.827 361.598 177.564 369.168 177.564 369.168C177.564 369.168 147.084 365.571 130.764 362.667C113.968 359.678 105.63 356.166 105.63 356.166Z" fill="black"/>
</g>
<path d="M113.435 358.112C113.435 358.112 105.701 364.831 105.194 365.338C104.692 365.839 102.09 367.907 106 368.829C109.91 369.756 130.485 373.729 132.189 374.185C133.894 374.641 136.054 373.957 137.646 372.254C139.239 370.552 146.288 363.848 145.943 363.848C145.604 363.848 113.435 358.112 113.435 358.112Z" fill="#ED4A2F"/>
<path d="M122.843 367.912L118.841 366.914L116.453 367.912L114.409 367.4L125.825 362.809L127.792 363.301L124.065 369.807L121.97 369.285L122.843 367.912ZM123.548 366.782L125.084 364.319L120.819 366.103L123.548 366.782Z" fill="#363E4F"/>
<path d="M191.131 242.805L177.199 252.189L163.638 261.325C163.638 261.325 135.511 247.594 131.358 235.139C129.674 230.097 129.172 224.518 130.658 219.451C132.849 211.997 139.35 205.668 152.77 203.839C159.804 202.882 170.353 204.158 175.465 214.698C180.582 225.238 191.131 242.805 191.131 242.805Z" fill="#FFB68D"/>
<g opacity="0.2">
<path d="M177.199 252.189L163.638 261.325C163.638 261.325 135.511 247.594 131.358 235.139C129.674 230.097 129.172 224.518 130.658 219.451C131.576 220.297 132.494 221.346 133.544 222.501C141.891 231.663 154.879 238.341 165.317 244.852C169.267 247.32 173.238 249.747 177.199 252.189Z" fill="black"/>
</g>
<g opacity="0.2">
<path d="M204.048 273.036L193.174 277.844L197.201 284.32L184.943 280.109C184.943 280.109 191.744 284.447 189.68 285.805C188.468 286.605 176.388 286.889 165.352 287.234C181.282 278.903 195.208 272.757 204.464 268.926C204.408 271.064 204.048 273.036 204.048 273.036Z" fill="black"/>
</g>
<path d="M170.586 238.387C162.436 245.197 171.027 267.751 176.92 270.289C182.813 272.828 200.548 267.416 200.665 264.259C200.782 261.103 200.508 250.872 197.906 248.637C195.304 246.403 181.53 238.655 179.978 238.387C178.426 238.118 170.586 238.387 170.586 238.387Z" fill="#363E4F"/>
<path d="M206.36 241.143L202.065 246.763L194.914 256.122C194.914 256.122 184.01 251.49 182.651 249.038C181.53 247.026 178.381 234.89 177.301 230.634C177.062 229.712 176.925 229.16 176.925 229.16C192.733 233.244 206.36 241.143 206.36 241.143Z" fill="#FFB68D"/>
<path opacity="0.2" d="M202.065 246.763L194.914 256.122C194.914 256.122 184.01 251.49 182.651 249.038C181.53 247.026 178.381 234.89 177.301 230.634C183.919 239.881 194.402 243.955 202.065 246.763Z" fill="black"/>
<path d="M191.242 282.237C191.197 284.249 190.081 285.658 188.372 285.8C185.101 286.073 160.027 276.816 159.758 274.363C159.586 272.802 157.091 256.684 157.902 243.697C158.364 236.279 159.905 229.879 163.572 227.802L171.479 229.98L175.389 255.742L176.109 260.474C176.109 260.474 184.01 270.821 188.372 275.726C190.451 278.062 191.293 280.403 191.242 282.237Z" fill="#FFB68D"/>
<path opacity="0.2" d="M191.242 282.237C191.197 284.249 190.081 285.658 188.372 285.8C185.101 286.073 160.027 276.816 159.758 274.363C159.758 274.363 163.354 270.137 167.746 270.289C171.473 270.416 183.488 279.222 191.242 282.237Z" fill="black"/>
<path opacity="0.2" d="M175.389 255.742C171.25 251.166 164.409 244.726 157.902 243.697C158.364 236.279 159.905 229.879 163.572 227.802L171.478 229.98L175.389 255.742Z" fill="black"/>
<path d="M197.201 267.396V284.32L182.818 272.823L143.57 185.932C144.447 181.681 146.669 179.948 149.073 179.421C152.927 178.58 157.248 180.845 157.248 180.845L196.74 266.393L197.201 267.396Z" fill="#F7BC4B"/>
<path d="M197.201 267.396V284.32L182.818 272.823C182.818 272.823 187.317 264.558 196.74 266.393L197.201 267.396Z" fill="#363E4F"/>
<path opacity="0.2" d="M197.201 267.396V284.32L182.818 272.823L143.57 185.932C144.447 181.681 146.669 179.948 149.073 179.421C159.733 207.239 187.271 268.212 187.271 268.212C187.271 268.212 191.12 265.374 196.74 266.393L197.201 267.396Z" fill="black"/>
<path d="M209.347 259.152C208.876 260.565 206.583 267.984 204.048 273.036C202.202 276.724 200.224 279.151 198.728 277.084C195.188 272.184 194.914 256.122 194.914 256.122L195.462 242.775C195.462 242.775 203.906 238.691 206.36 241.143C208.815 243.596 210.169 256.699 209.347 259.152Z" fill="#FFB68D"/>
<path opacity="0.2" d="M204.048 273.036C202.202 276.724 200.224 279.152 198.728 277.084C195.188 272.184 194.914 256.122 194.914 256.122L195.462 242.775L201.689 248.637C201.689 248.637 200.893 256.299 200.67 264.259C200.543 268.941 202.339 271.602 204.048 273.036Z" fill="black"/>
<path d="M331.738 242.8C331.738 242.8 375.688 241.412 372.381 196.335L346.141 191.992L324.055 217.455L331.738 242.8Z" fill="#363E4F"/>
<path d="M370.353 240.794C368.192 243.428 365.956 245.075 363.75 246.003C354.246 250.016 345.295 240.794 345.295 240.794C345.295 240.794 319.384 217.454 311.315 203.875L343.17 188.177C343.17 188.177 359.358 199.897 368.542 207.482C371.717 210.107 374.055 212.23 374.598 213.213C376.723 217.029 381.82 226.788 370.353 240.794Z" fill="#FFB68D"/>
<g opacity="0.2">
<path d="M344.955 223.652C344.63 224.047 344.29 224.483 344.265 224.994C344.235 225.587 344.63 226.104 345 226.565C349.747 232.372 354.971 237.768 360.585 242.739C361.64 243.677 362.791 244.817 363.75 246.003C354.246 250.016 345.295 240.794 345.295 240.794C345.295 240.794 319.384 217.454 311.315 203.875L343.17 188.177C343.17 188.177 359.358 199.897 368.542 207.482C368.04 207.574 367.543 207.67 367.041 207.766C363.856 208.389 360.646 209.18 357.836 210.801C355.098 212.382 352.851 214.678 350.716 217.009C348.733 219.167 346.811 221.382 344.955 223.652Z" fill="black"/>
</g>
<path d="M372.381 196.335C372.381 196.335 360.266 197.896 346.197 208.83C344.615 210.062 343.205 211.44 341.952 212.93C332.048 224.655 331.738 242.8 331.738 242.8C325.876 229.134 295.781 210.781 293.829 192.043C293.104 185.071 294.711 178.661 297.506 173.553C302.212 164.919 310.286 159.978 316.154 162.233C321.235 164.184 325.095 169.783 334.862 177.202C344.635 184.62 372.381 196.335 372.381 196.335Z" fill="#65A9DF"/>
<path opacity="0.2" d="M341.952 212.93C332.048 224.655 331.738 242.8 331.738 242.8C325.876 229.134 295.781 210.781 293.829 192.043C293.104 185.071 294.711 178.661 297.506 173.553C297.354 174.967 297.496 176.431 297.901 177.779C298.946 181.27 301.39 184.149 303.886 186.799C307.431 190.563 311.209 194.1 315.2 197.394C314.592 194.039 314.348 190.614 314.48 187.209C319.176 192.058 322.118 198.387 326.799 203.251C330.998 207.619 336.328 210.548 341.952 212.93Z" fill="black"/>
<path d="M378.843 247.158C364.404 263.281 338.073 285.774 338.073 285.774L318.314 275.326L316.412 274.317C316.412 274.317 336.374 248.43 340.198 242.065C344.022 235.701 352.892 210.923 371.2 211.936C374.856 212.139 380.075 216.527 382.935 222.815C386.049 229.661 386.369 238.757 378.843 247.158Z" fill="#FFB68D"/>
<g opacity="0.2">
<path d="M378.843 247.158C364.404 263.281 338.073 285.774 338.073 285.774L318.314 275.326C323.675 272.63 329.106 270.031 334.299 267.031C348.231 258.969 360.276 248.085 372.204 237.287C376.165 233.7 380.258 229.935 382.256 224.979C382.54 224.28 382.768 223.555 382.935 222.815C386.049 229.661 386.369 238.757 378.843 247.158Z" fill="black"/>
</g>
<path d="M286.12 286.539C286.12 286.539 277.428 291.287 275.034 285.44C273.578 281.888 286.465 261.123 297.12 258.376C307.775 255.63 307.775 264.214 307.775 264.214C307.775 264.214 314.992 263.185 318.431 269.022C318.431 269.022 328.746 266.621 331.84 273.831C331.84 273.831 337.682 271.769 342.495 277.267C347.308 282.764 322.899 298.564 317.746 298.564C312.588 298.564 315.342 293.066 315.342 293.066C315.342 293.066 307.065 298.781 301.735 297.064C298.515 296.025 299.184 290.314 299.184 290.314C299.184 290.314 292.708 295.782 288.123 294.044C283.752 292.392 286.12 286.539 286.12 286.539Z" fill="#FFB68D"/>
<path opacity="0.2" d="M303.216 265.795C303.216 265.795 294.275 270.629 288.123 283.22C288.123 283.22 290.908 269.017 303.216 265.795Z" fill="black"/>
<path opacity="0.2" d="M317.259 270.289C317.259 270.289 308.13 274.9 301.472 286.909C301.472 286.909 304.819 273.36 317.259 270.289Z" fill="black"/>
<g opacity="0.2">
<path d="M330.521 275.437C330.521 275.437 324.06 280.925 317.802 290.02C317.802 290.02 320.363 278.599 330.521 275.437Z" fill="black"/>
</g>
<path d="M289.457 125.122C289.346 127.919 289.158 130.721 288.859 133.498C286.764 152.971 279.213 171.01 254.925 174.369C250.873 174.926 247.196 175.013 243.874 174.658C224.45 172.611 217.061 155.788 216.554 133.376C216.224 118.661 218.471 105.639 225.308 96.9185C228.655 92.6469 233.102 89.404 238.889 87.5038C238.904 87.4937 238.919 87.4886 238.94 87.4886C242.393 86.3536 246.329 85.6999 250.792 85.5884C274.405 85.0007 290.345 102.705 289.457 125.122Z" fill="#FFB68D"/>
<path opacity="0.2" d="M289.457 125.122C289.346 127.919 289.158 130.721 288.859 133.498C286.764 152.971 279.213 171.01 254.925 174.369C250.873 174.926 247.196 175.013 243.874 174.658C245.259 174.339 246.633 173.979 248.003 173.589C251.74 172.525 255.503 171.182 258.475 168.684C262.167 165.583 264.292 160.987 265.55 156.335C266.965 151.111 267.421 145.679 267.782 140.278C268.628 127.509 268.847 114.172 263.521 102.533C261.325 97.7292 258.141 93.2651 253.764 90.3008C249.468 87.3873 243.93 86.0749 238.94 87.4886C242.394 86.3536 246.329 85.6999 250.792 85.5884C274.405 85.0007 290.345 102.705 289.457 125.122Z" fill="black"/>
<g opacity="0.2">
<path d="M216.564 106.151C216.59 106.09 216.625 106.009 216.671 105.902C216.625 106.009 216.59 106.095 216.564 106.151Z" fill="black"/>
</g>
<path d="M289.457 125.122C289.346 127.919 289.158 130.721 288.859 133.498C286.815 117.162 280.176 96.4624 259.926 92.9763C242.459 89.9664 231.728 92.9965 225.308 96.9185C230.663 90.0829 238.838 85.8874 250.792 85.5884C274.405 85.0007 290.345 102.705 289.457 125.122Z" fill="#F7BC4B"/>
<path d="M277.118 97.04C275.034 98.393 263.192 108.78 262.172 111.952C261.153 115.124 268.72 112.631 268.72 112.631C268.72 112.631 265.023 123.343 268.486 123.232C271.95 123.115 281.221 103.298 281.221 103.298L277.118 97.04Z" fill="#ED4A2F"/>
<path d="M278.771 106.201C277.575 108.38 272.077 123.136 272.686 126.409C273.294 129.682 278.771 123.906 278.771 123.906C278.771 123.906 280.597 135.089 283.594 133.351C286.592 131.613 285.354 109.769 285.354 109.769L278.771 106.201Z" fill="#ED4A2F"/>
<path d="M294.828 119.573C292.358 122.406 289.493 124.59 287.905 124.215C284.31 123.369 282.306 110.407 282.306 110.407C282.306 110.407 284.097 104.555 287.905 103.075C287.905 103.075 288.149 103.171 288.57 103.344C290.588 104.18 296.633 106.835 298.91 109.535C300.447 111.36 297.957 115.986 294.828 119.573Z" fill="#ED4A2F"/>
<path opacity="0.2" d="M294.828 119.573C292.358 122.406 289.493 124.59 287.905 124.215C284.31 123.369 282.306 110.407 282.306 110.407C282.306 110.407 284.097 104.555 287.905 103.075C287.905 103.075 288.149 103.171 288.57 103.344C288.128 107.195 285.293 111.415 285.293 111.415C285.293 111.415 291.608 115.971 292.084 119.862C292.211 120.916 293.306 120.597 294.828 119.573Z" fill="black"/>
<path opacity="0.2" d="M284.731 113.113C284.234 112.723 285.684 121.539 287.961 122.127C290.238 122.715 291.755 118.595 284.731 113.113Z" fill="black"/>
<path d="M289.493 101.92C289.518 102.654 289.193 103.668 288.646 104.783C288.646 104.788 288.641 104.793 288.641 104.798C287.069 108.025 283.711 112.064 281.982 112.378C279.654 112.799 271.398 104.762 271.398 102.436C271.398 100.212 277.25 93.1637 279.568 91.6233C279.674 91.5524 279.771 91.4916 279.862 91.446C281.617 90.544 289.386 99.0567 289.493 101.92Z" fill="#ED4A2F"/>
<path opacity="0.2" d="M288.641 104.798C287.069 108.025 283.711 112.064 281.982 112.378C279.654 112.799 271.398 104.762 271.398 102.436C271.398 100.212 277.25 93.1637 279.568 91.6233C277.828 94.6331 274.953 101.849 275.201 103.399C275.465 105.061 279.989 109.313 282.514 109.247C284.543 109.196 286.749 107.894 288.641 104.798Z" fill="black"/>
<path d="M279.441 93.5589C280.131 91.4764 272.037 79.1836 269.07 78.758C266.103 78.3323 259.667 92.9256 259.926 96.0976C260.184 99.2696 273.938 101.884 273.938 101.884C273.938 101.884 277.483 99.4773 279.441 93.5589Z" fill="#ED4A2F"/>
<path opacity="0.2" d="M264.216 94.0302C261.599 94.6889 262.335 96.4877 265.509 97.8863C268.684 99.2797 273.051 101.008 273.624 100.476C274.197 99.9435 266.6 93.4323 264.216 94.0302Z" fill="black"/>
<path d="M285.096 130.224C285.096 130.224 287.089 119.746 295.923 122.629C305.463 125.745 300.046 149.961 283.549 147.123L285.096 130.224Z" fill="#FFB68D"/>
<g opacity="0.2">
<path d="M295.152 143.804C292.312 146.444 288.412 147.959 283.549 147.123L285.096 130.224C285.096 130.224 285.096 130.219 285.101 130.209C285.268 129.844 288.387 123.212 295.229 125.102C300.401 126.53 299.773 137.278 295.152 143.804Z" fill="black"/>
</g>
<path d="M231.393 127.797C227.24 127.797 227.894 135.925 231.596 135.925C235.298 135.925 235.542 127.797 231.393 127.797Z" fill="#363E4F"/>
<path d="M258.551 127.797C262.705 127.797 262.051 135.925 258.348 135.925C254.646 135.925 254.398 127.797 258.551 127.797Z" fill="#363E4F"/>
<path d="M225.064 122.548C225.079 122.528 225.82 121.459 227.214 120.42C228.614 119.376 230.653 118.363 233.331 118.363C233.792 118.363 234.269 118.393 234.771 118.459C235.187 118.515 235.567 118.221 235.623 117.805C235.679 117.39 235.385 117.01 234.969 116.954C234.401 116.878 233.858 116.847 233.331 116.847C230.207 116.847 227.818 118.058 226.231 119.259C224.643 120.46 223.832 121.651 223.801 121.702C223.568 122.051 223.659 122.523 224.004 122.756C224.354 122.989 224.831 122.898 225.064 122.548Z" fill="#363E4F"/>
<path d="M266.138 121.697C266.108 121.651 265.296 120.46 263.709 119.254C262.127 118.053 259.733 116.842 256.609 116.842C256.082 116.842 255.534 116.878 254.971 116.949C254.555 117.004 254.261 117.384 254.317 117.8C254.372 118.215 254.753 118.509 255.169 118.454C255.671 118.388 256.147 118.357 256.609 118.357C259.327 118.357 261.386 119.406 262.791 120.46C263.491 120.987 264.018 121.519 264.373 121.914C264.551 122.112 264.678 122.274 264.764 122.386C264.805 122.441 264.835 122.482 264.855 122.507L264.876 122.538L264.881 122.543C265.114 122.892 265.591 122.984 265.935 122.745C266.285 122.517 266.377 122.046 266.138 121.697Z" fill="#363E4F"/>
</svg>
