<svg width="429" height="335" viewBox="0 0 429 335" fill="none" xmlns="http://www.w3.org/2000/svg">
<g clip-path="url(#clip0_106_900)">
<path d="M425.277 227.594C425.277 227.594 446.036 117.868 389.493 55.6615C339.58 0.711162 260.587 -20.6155 196.154 24.7384C173.25 40.9215 156.492 72.3599 129.68 82.0698C99.6187 92.965 60.9778 96.8922 33.0619 143.545C5.14592 190.197 15.1697 250.157 52.3875 282.07C89.6053 313.983 154.739 282.843 213.427 280.513C272.116 278.184 394.505 362.996 425.277 227.594Z" fill="#4865BC"/>
<path opacity="0.8" d="M425.277 227.594C425.277 227.594 446.036 117.868 389.493 55.6615C339.58 0.711162 260.587 -20.6155 196.154 24.7384C173.25 40.9215 156.492 72.3599 129.68 82.0698C99.6187 92.965 60.9778 96.8922 33.0619 143.545C5.14592 190.197 15.1697 250.157 52.3875 282.07C89.6053 313.983 154.739 282.843 213.427 280.513C272.116 278.184 394.505 362.996 425.277 227.594Z" fill="white"/>
<path d="M223.162 61.8461H288.647V80.4618H223.162C221.759 80.4618 220.414 79.9047 219.422 78.913C218.43 77.9213 217.872 76.5763 217.872 75.1739V67.1236C217.875 65.723 218.433 64.3806 219.425 63.3912C220.417 62.4018 221.761 61.8461 223.162 61.8461Z" fill="#4865BC"/>
<path d="M288.647 38.6228H227.184C224.723 38.6228 222.362 39.6002 220.622 41.3399C218.881 43.0797 217.903 45.4393 217.903 47.8997C217.903 50.3601 218.881 52.7197 220.622 54.4595C222.362 56.1993 224.723 57.1766 227.184 57.1766H288.647V38.6228Z" fill="#4865BC"/>
<path d="M316.583 17.2137H294.236V79.5753H316.583V17.2137Z" fill="#4865BC"/>
<path d="M344.52 17.2137H322.173V79.5753H344.52V17.2137Z" fill="#4865BC"/>
<path d="M372.457 17.2137H350.109V79.5753H372.457V17.2137Z" fill="#4865BC"/>
<path opacity="0.4" d="M223.162 61.8461H288.647V80.4618H223.162C221.759 80.4618 220.414 79.9047 219.422 78.913C218.43 77.9213 217.872 76.5763 217.872 75.1739V67.1236C217.875 65.723 218.433 64.3806 219.425 63.3912C220.417 62.4018 221.761 61.8461 223.162 61.8461Z" fill="white"/>
<path opacity="0.4" d="M288.647 38.6228H227.184C224.723 38.6228 222.362 39.6002 220.622 41.3399C218.881 43.0797 217.903 45.4393 217.903 47.8997C217.903 50.3601 218.881 52.7197 220.622 54.4595C222.362 56.1993 224.723 57.1766 227.184 57.1766H288.647V38.6228Z" fill="white"/>
<path opacity="0.4" d="M316.583 17.2137H294.236V79.5753H316.583V17.2137Z" fill="white"/>
<path opacity="0.4" d="M344.52 17.2137H322.173V79.5753H344.52V17.2137Z" fill="white"/>
<path opacity="0.4" d="M372.457 17.2137H350.109V79.5753H372.457V17.2137Z" fill="white"/>
<path d="M385.956 81.2451H210.458V91.6353H224.699V117.404H233.176V91.6353H359.102V117.404H367.579V91.6353H385.956V81.2451Z" fill="#4865BC"/>
<path opacity="0.1" d="M385.956 81.2451H210.458V91.6353H224.699V117.404H233.176V91.6353H359.102V117.404H367.579V91.6353H385.956V81.2451Z" fill="black"/>
<path d="M176.344 112.168C174.347 112.817 172.387 113.577 170.476 114.446C171.507 113.673 172.538 112.89 173.57 112.076C178.232 108.344 182.664 104.334 186.842 100.067C181.926 104.835 176.674 109.245 171.126 113.261C171.886 111.932 172.558 110.555 173.137 109.138C174.168 106.54 174.364 103.984 171.878 102.531C168.785 100.82 165.124 103.386 166.103 107.788C166.688 110.23 167.84 112.5 169.465 114.415C165.861 116.915 162.096 119.174 158.194 121.177L157.823 121.363C158.648 119.937 159.375 118.456 159.998 116.93C161.03 114.333 161.236 111.725 158.751 110.323C155.657 108.602 151.986 111.168 152.976 115.58C153.552 117.992 154.682 120.236 156.276 122.136C151.583 124.445 146.737 126.403 141.91 128.537L141.209 128.856C142.152 127.843 143.027 126.768 143.828 125.64C145.396 123.342 146.242 120.858 144.148 118.92C141.58 116.539 137.373 118.178 137.301 122.692C137.305 125.196 137.888 127.665 139.002 129.908C134.493 131.996 130.209 134.538 126.215 137.494L126.091 137.587C126.637 136.735 127.129 135.851 127.566 134.938C128.752 132.423 129.185 129.784 126.813 128.259C126.329 127.923 125.776 127.701 125.194 127.611C124.612 127.521 124.017 127.565 123.454 127.738C122.892 127.912 122.376 128.212 121.947 128.615C121.517 129.017 121.185 129.512 120.976 130.062C120.667 129.568 120.237 129.161 119.728 128.877C117.336 127.496 114.984 128.99 112.973 131.104C112.448 131.65 111.942 132.237 111.478 132.835C113.037 128.516 114.994 124.351 117.325 120.394C119.538 121.371 121.929 121.884 124.348 121.899C129.113 121.899 131.123 117.93 128.783 115.467C126.885 113.467 124.204 114.23 121.677 115.683C120.842 116.168 120.027 116.714 119.264 117.271C121.695 113.624 124.457 110.208 127.514 107.066C129.506 108.675 131.82 109.838 134.3 110.478C138.93 111.622 141.838 108.262 140.157 105.324C138.796 102.922 136.032 103.015 133.207 103.819C131.886 104.218 130.592 104.697 129.329 105.252C130.587 104.025 131.897 102.84 133.217 101.675C134.96 100.191 136.754 98.758 138.579 97.3665C140.548 98.9329 142.825 100.067 145.262 100.696C149.882 101.84 152.79 98.4797 151.119 95.542C149.758 93.1403 146.994 93.2434 144.169 94.0474C143.519 94.2329 142.859 94.4597 142.22 94.6968C144.633 92.9754 147.087 91.2952 149.542 89.6151L151.81 88.0689C153.859 89.776 156.261 91.008 158.843 91.6766C163.474 92.8208 166.372 89.4605 164.701 86.5228C163.34 84.1108 160.576 84.2138 157.75 85.0178C156.653 85.3407 155.575 85.7261 154.523 86.1723C154.997 85.8425 155.461 85.5023 155.925 85.1415C156.791 84.5231 157.637 83.8943 158.483 83.2449C159.514 82.4615 160.545 81.5854 161.576 80.7608C162.154 80.2969 162.711 79.8021 163.268 79.2971C165.314 81.0351 167.73 82.2831 170.332 82.946C174.962 84.0902 177.87 80.7402 176.199 77.7922C174.838 75.3905 172.074 75.4832 169.238 76.2872C167.688 76.7653 166.169 77.3402 164.691 78.0086C166.578 76.2563 168.403 74.4318 170.136 72.5249C170.259 72.3909 170.363 72.2569 170.476 72.1229C171.229 71.2983 171.961 70.4634 172.673 69.6078C173.384 68.7523 174.292 67.5463 175.075 66.5155C178.252 62.3527 180.863 57.788 182.841 52.9403C180.776 57.7469 178.074 62.254 174.807 66.3403C171.59 70.4423 167.999 74.2379 164.082 77.6788L163.659 78.0395C164.556 76.4966 165.349 74.8953 166.031 73.2465C167.063 70.6489 167.269 68.0411 164.783 66.6392C161.69 64.9281 158.018 67.4845 159.008 71.8962C159.639 74.4899 160.896 76.8896 162.669 78.8848L161.752 79.6681C161.391 79.9671 161.019 80.2763 160.648 80.5649C160.04 81.0597 159.421 81.5338 158.802 81.9977L157.771 82.7605C156.884 83.4098 155.977 84.0592 155.069 84.688L153.656 85.5538L152.171 86.5846C153.035 85.1025 153.797 83.5631 154.45 81.9771C155.482 79.3795 155.688 76.7717 153.203 75.3698C150.109 73.6485 146.438 76.2151 147.417 80.6268C148.028 83.1377 149.23 85.4665 150.923 87.4195L149.82 88.1308L145.695 90.7902L144.901 91.3158C144.138 91.8106 143.385 92.3466 142.632 92.8311C142.302 93.0475 141.972 93.264 141.653 93.4908C140.621 94.2123 139.538 94.9441 138.497 95.6966C139.373 94.1895 140.148 92.6262 140.817 91.0169C141.848 88.4194 142.055 85.8012 139.569 84.4097C136.476 82.6883 132.804 85.2549 133.784 89.6563C134.402 92.207 135.63 94.5697 137.363 96.5418C135.589 97.8406 133.836 99.1806 132.124 100.572C130.886 101.603 129.659 102.696 128.463 103.788C128.985 102.823 129.449 101.829 129.855 100.809C130.886 98.2117 131.093 95.6554 128.607 94.202C125.513 92.4909 121.842 95.0472 122.822 99.4589C123.408 101.872 124.541 104.118 126.132 106.025C122.747 109.387 119.697 113.07 117.026 117.023C117.332 115.885 117.562 114.728 117.717 113.56C118.057 110.797 117.655 108.2 114.912 107.447C111.53 106.52 108.549 109.901 110.571 113.941C111.731 116.16 113.39 118.079 115.418 119.549C112.79 123.836 110.593 128.373 108.859 133.093C108.815 132.105 108.715 131.121 108.56 130.145C108.096 127.403 106.982 124.991 104.136 125.084C100.629 125.146 98.7319 129.207 101.815 132.536C103.462 134.249 105.47 135.573 107.693 136.412C106.506 140.066 105.535 143.787 104.785 147.555C104.672 148.152 104.569 148.75 104.466 149.348C104.332 149.454 104.208 149.571 104.094 149.699C103.971 149.183 103.826 148.668 103.661 148.163C102.774 145.524 101.31 143.349 98.505 143.844C95.0503 144.452 93.8128 148.781 97.3603 151.564C99.1682 152.947 101.255 153.921 103.476 154.42C103.508 154.523 103.549 154.623 103.599 154.718C103.218 157.553 102.929 160.398 102.754 163.264C102.623 165.394 102.537 167.534 102.496 169.685C99.5053 169.685 97.3397 172.953 99.4641 176.509C100.328 177.981 101.437 179.295 102.743 180.395C103.001 184.415 103.393 188.435 103.929 192.424C103.507 192.034 102.989 191.761 102.428 191.633C101.868 191.505 101.283 191.525 100.732 191.692C98.8453 192.197 97.9997 193.754 97.7006 195.578C97.0433 196.272 96.6746 197.189 96.6694 198.145C95.2669 196.083 93.9469 193.929 92.6681 191.764C94.6264 190.26 96.2491 188.365 97.4325 186.198C99.6806 182.003 97.1541 178.354 93.8747 179.251C91.2038 179.972 90.6159 182.694 90.6984 185.611C90.7433 186.715 90.8466 187.816 91.0078 188.909L89.7188 186.404C88.5638 184.343 87.5841 182.281 86.5013 180.137C86.2228 179.632 85.9856 179.106 85.7588 178.581C87.9629 177.472 89.9121 175.917 91.4822 174.014C94.4728 170.314 92.6681 166.253 89.2856 166.521C86.5219 166.727 85.4391 169.294 84.975 172.169C84.7877 173.426 84.674 174.693 84.6347 175.963L83.6034 173.695C81.5086 168.558 79.7854 163.277 78.4472 157.893C80.9294 157.02 83.1895 155.612 85.0678 153.77C88.4194 150.379 87.0375 146.163 83.6344 146.081C80.8706 146.019 79.5094 148.462 78.7772 151.234C78.4082 152.749 78.1327 154.284 77.9522 155.832C77.22 152.739 76.5909 149.647 76.0753 146.483C75.7144 144.534 75.4875 142.566 75.24 140.597C77.9233 140.077 80.4502 138.945 82.6238 137.288C86.3878 134.371 85.5525 130.011 82.1906 129.485C79.4681 129.063 77.8181 131.31 76.7044 134.01C76.0526 135.724 75.5084 137.476 75.075 139.257C74.8584 136.969 74.6213 134.691 74.5181 132.402C74.219 127.679 74.2397 122.94 74.58 118.219C74.0954 122.937 73.93 127.683 74.085 132.423C74.085 134.608 74.2706 136.783 74.4047 138.968C73.8195 137.482 73.1303 136.039 72.3422 134.649C70.9191 132.258 69.0113 130.454 66.3816 131.557C63.1331 132.887 62.8547 137.391 66.9178 139.35C69.3131 140.446 71.939 140.945 74.5697 140.803C74.7553 142.751 74.9203 144.699 75.2091 146.627C75.6216 149.719 76.1475 152.812 76.7559 155.811C76.0918 154.647 75.3511 153.528 74.5388 152.461C72.8063 150.276 70.6922 148.73 68.2172 150.142C65.1234 151.884 65.4741 156.378 69.7641 157.79C72.195 158.549 74.7712 158.722 77.2819 158.295C78.4647 163.742 80.0327 169.099 81.9741 174.324L82.5928 175.89C82.0359 175.179 81.4378 174.447 80.8088 173.829C78.87 171.829 76.6116 170.51 74.2913 172.159C71.4347 174.221 72.2288 178.643 76.5909 179.622C79.0325 180.119 81.5562 180.045 83.9644 179.405C84.1809 179.941 84.3975 180.436 84.6553 181.003C85.6866 183.147 86.6353 185.353 87.7491 187.466C88.0584 188.074 88.3781 188.672 88.6978 189.27C88.1512 188.806 87.5841 188.352 86.9963 187.94C84.7275 186.332 82.2525 185.456 80.2828 187.518C77.8697 190.053 79.4372 194.279 83.9541 194.413C86.28 194.445 88.5848 193.97 90.7088 193.022C91.9978 195.362 93.3384 197.671 94.7719 199.938C95.3081 200.804 95.865 201.66 96.4219 202.515C95.6035 201.752 94.7391 201.039 93.8334 200.382C91.5544 198.774 89.0794 197.897 87.12 199.959C84.6966 202.495 86.2641 206.721 90.7809 206.855C93.3637 206.885 95.9164 206.298 98.2266 205.144C98.9691 206.174 99.7425 207.205 100.547 208.236C98.8659 210.184 99.4125 213.493 102.826 214.957C104.501 215.649 106.285 216.04 108.096 216.111C108.302 216.286 108.518 216.451 108.735 216.606L108.848 216.688C109.643 219.657 110.509 222.605 111.416 225.532H96.1125V274.092H134.434V225.501H116.583C115.046 220.255 113.757 215.688 113.489 215.565L112.953 215.307C114.964 214.619 116.834 213.571 118.47 212.215C122.1 209.122 121.069 204.804 117.697 204.443C114.943 204.134 113.396 206.453 112.417 209.205C112.134 209.989 111.893 210.787 111.695 211.596C111.499 210.864 111.303 210.133 111.117 209.401C110.56 207.236 110.086 205.051 109.57 202.876C111.755 202.177 113.783 201.06 115.541 199.588C119.171 196.496 118.14 192.187 114.768 191.816C112.014 191.517 110.478 193.877 109.488 196.578C109.203 197.376 108.959 198.188 108.756 199.011C108.436 197.423 108.137 195.836 107.858 194.238C107.652 193.042 107.467 191.857 107.291 190.672C107.219 188.981 107.198 187.28 107.219 185.59C107.219 184.652 107.219 183.724 107.302 182.786C109.347 183.448 111.497 183.724 113.644 183.601C118.408 183.291 120.161 179.22 117.676 176.901C115.613 175.025 113.025 175.952 110.591 177.56C109.515 178.304 108.482 179.11 107.498 179.972C107.79 175.986 108.397 172.03 109.313 168.139C109.855 165.857 110.523 163.607 111.313 161.398C113.499 162.153 115.811 162.475 118.119 162.346C122.873 162.047 124.637 157.965 122.152 155.656C120.089 153.77 117.501 154.708 115.067 156.316C114.203 156.902 113.37 157.531 112.571 158.202C113.488 156.044 114.556 153.953 115.768 151.946C118.198 147.905 121.238 144.265 124.781 141.154C126.606 142.825 128.759 144.099 131.103 144.895C135.64 146.38 138.786 143.246 137.29 140.174C136.115 137.68 133.33 137.566 130.463 138.113C129.38 138.354 128.31 138.649 127.256 138.999H127.328C131.217 135.959 135.409 133.327 139.838 131.145C141.405 133.191 143.396 134.875 145.674 136.082C149.913 138.267 153.522 135.69 152.584 132.423C151.821 129.764 149.088 129.217 146.169 129.331C145.025 129.394 143.886 129.522 142.756 129.712C147.469 127.486 152.274 125.383 156.915 122.93L157.018 122.878C159.104 124.669 161.574 125.956 164.237 126.64C168.867 127.784 171.775 124.424 170.094 121.486C168.743 119.074 165.969 119.178 163.144 119.982C162.36 120.198 161.587 120.487 160.823 120.775C163.918 118.973 166.92 117.016 169.816 114.91L170.063 115.168C170.058 115.13 170.058 115.092 170.063 115.054C172.146 116.861 174.616 118.165 177.282 118.868C181.913 120.002 184.821 116.652 183.15 113.714C181.892 111.323 179.108 111.323 176.344 112.168ZM103.28 206.803C102.341 205.7 101.434 204.546 100.557 203.381C100.774 203.185 101.001 202.969 101.228 202.742C102.532 203.152 103.884 203.394 105.249 203.464V203.68L105.889 203.556C106.219 205.195 106.569 206.844 106.92 208.483C106.49 207.924 105.93 207.479 105.288 207.186C104.646 206.893 103.943 206.762 103.238 206.803H103.28ZM106.693 167.49C106.373 168.716 106.095 169.953 105.837 171.19L105.683 170.974C105.683 168.431 105.72 165.892 105.796 163.356C105.868 161.573 106.002 159.8 106.157 158.038C107.008 158.916 107.952 159.701 108.972 160.377C108.07 162.704 107.296 165.079 106.652 167.49H106.693ZM110.983 155.79C110.983 155.327 111.086 154.852 111.117 154.399C111.117 154.162 111.117 153.925 111.117 153.698C111.488 153.585 111.87 153.451 112.252 153.296C111.777 154.121 111.375 154.945 110.942 155.79H110.983ZM116.418 146.957C116.237 146.545 115.974 146.174 115.646 145.866C115.319 145.558 114.932 145.319 114.51 145.163C111.932 144.132 109.838 146.008 108.178 148.4L108.096 148.524L107.931 148.472L107.394 148.4C107.394 148.256 107.446 148.111 107.467 147.967C108.13 144.199 109.022 140.474 110.138 136.814C112.536 137.113 114.971 136.924 117.294 136.257C118.716 135.896 119.96 135.037 120.801 133.835C121.268 135.937 122.144 137.926 123.379 139.69C120.803 141.867 118.456 144.302 116.377 146.957H116.418Z" fill="#4865BC"/>
<path d="M197.649 129.114H380.975C383.163 129.114 385.261 129.983 386.808 131.529C388.355 133.076 389.225 135.173 389.225 137.36V265.938H189.43V137.329C189.438 135.153 190.307 133.068 191.847 131.529C193.386 129.99 195.472 129.122 197.649 129.114Z" fill="#263238" stroke="#263238" stroke-linecap="round" stroke-linejoin="round"/>
<path d="M419.162 326.414H159.462L189.43 265.928H389.194L419.162 326.414Z" fill="white" stroke="#263238" stroke-linecap="round" stroke-linejoin="round"/>
<path d="M377.097 139.948H201.527V255.095H377.097V139.948Z" fill="#4865BC" stroke="#263238" stroke-linecap="round" stroke-linejoin="round"/>
<path d="M280.974 285.069L281.325 277.699H270.765L270.064 285.069H280.974Z" fill="#263238" stroke="white" stroke-linecap="round" stroke-linejoin="round"/>
<path d="M302.796 285.069L302.435 277.699H291.875L291.885 285.069H302.796Z" fill="#263238" stroke="white" stroke-linecap="round" stroke-linejoin="round"/>
<path d="M359.607 292.955H370.889L368.239 285.07H357.338L359.607 292.955Z" fill="#263238" stroke="white" stroke-linecap="round" stroke-linejoin="round"/>
<path d="M270.064 285.069L270.765 277.699H260.215L259.163 285.069H270.064Z" fill="#263238" stroke="white" stroke-linecap="round" stroke-linejoin="round"/>
<path d="M248.253 285.069L249.655 277.699H239.106L237.342 285.069H248.253Z" fill="#263238" stroke="white" stroke-linecap="round" stroke-linejoin="round"/>
<path d="M346.428 285.069L344.654 277.699H334.104L335.517 285.069H346.428Z" fill="#263238" stroke="white" stroke-linecap="round" stroke-linejoin="round"/>
<path d="M357.338 285.069L355.214 277.699H344.654L346.428 285.069H357.338Z" fill="#263238" stroke="white" stroke-linecap="round" stroke-linejoin="round"/>
<path d="M237.342 285.069L239.106 277.699H228.546L226.432 285.069H237.342Z" fill="#263238" stroke="white" stroke-linecap="round" stroke-linejoin="round"/>
<path d="M313.696 285.069L312.984 277.699H302.435L302.796 285.069H313.696Z" fill="#263238" stroke="white" stroke-linecap="round" stroke-linejoin="round"/>
<path d="M368.239 285.069L365.764 277.699H355.214L357.338 285.069H368.239Z" fill="#263238" stroke="white" stroke-linecap="round" stroke-linejoin="round"/>
<path d="M335.517 285.069L334.104 277.699H323.544L324.607 285.069H335.517Z" fill="#263238" stroke="white" stroke-linecap="round" stroke-linejoin="round"/>
<path d="M324.607 285.069L323.544 277.699H312.984L313.696 285.069H324.607Z" fill="#263238" stroke="white" stroke-linecap="round" stroke-linejoin="round"/>
<path d="M291.885 285.069L291.875 277.699H281.325L280.974 285.069H291.885Z" fill="#263238" stroke="white" stroke-linecap="round" stroke-linejoin="round"/>
<path d="M215.531 285.07H204.621L201.609 292.955H212.891L215.531 285.07Z" fill="#263238" stroke="white" stroke-linecap="round" stroke-linejoin="round"/>
<path d="M217.986 277.699H207.436L204.621 285.069H215.531L217.986 277.699Z" fill="#263238" stroke="white" stroke-linecap="round" stroke-linejoin="round"/>
<path d="M226.432 285.069L228.546 277.699H217.986L215.531 285.069H226.432Z" fill="#263238" stroke="white" stroke-linecap="round" stroke-linejoin="round"/>
<path d="M198.382 301.397L194.906 310.468H207.034L210.066 301.397H198.382Z" fill="#263238" stroke="white" stroke-linecap="round" stroke-linejoin="round"/>
<path d="M212.891 292.955H201.609L198.382 301.397H210.066L212.891 292.955Z" fill="#263238" stroke="white" stroke-linecap="round" stroke-linejoin="round"/>
<path d="M210.066 301.397L207.034 310.468H219.161L221.76 301.397H210.066Z" fill="#263238" stroke="white" stroke-linecap="round" stroke-linejoin="round"/>
<path d="M259.163 285.069L260.215 277.699H249.655L248.253 285.069H259.163Z" fill="#263238" stroke="white" stroke-linecap="round" stroke-linejoin="round"/>
<path d="M258.029 292.955L259.163 285.07H248.253L246.747 292.955H258.029Z" fill="#263238" stroke="white" stroke-linecap="round" stroke-linejoin="round"/>
<path d="M246.747 292.955L248.253 285.07H237.342L235.465 292.955H246.747Z" fill="#263238" stroke="white" stroke-linecap="round" stroke-linejoin="round"/>
<path d="M269.321 292.955L270.064 285.07H259.163L258.029 292.955H269.321Z" fill="#263238" stroke="white" stroke-linecap="round" stroke-linejoin="round"/>
<path d="M226.432 285.07H215.531L212.891 292.955H224.173L226.432 285.07Z" fill="#263238" stroke="white" stroke-linecap="round" stroke-linejoin="round"/>
<path d="M362.041 301.397H373.735L370.889 292.955H359.607L362.041 301.397Z" fill="#263238" stroke="white" stroke-linecap="round" stroke-linejoin="round"/>
<path d="M235.465 292.955L237.342 285.07H226.432L224.173 292.955H235.465Z" fill="#263238" stroke="white" stroke-linecap="round" stroke-linejoin="round"/>
<path d="M212.891 292.955L210.066 301.397H221.76L224.173 292.955H212.891Z" fill="#263238" stroke="white" stroke-linecap="round" stroke-linejoin="round"/>
<path d="M337.033 292.955L335.517 285.07H324.607L325.751 292.955H337.033Z" fill="#263238" stroke="white" stroke-linecap="round" stroke-linejoin="round"/>
<path d="M325.751 292.955L324.607 285.07H313.696L314.459 292.955H325.751Z" fill="#263238" stroke="white" stroke-linecap="round" stroke-linejoin="round"/>
<path d="M359.607 292.955L357.338 285.07H346.428L348.315 292.955H359.607Z" fill="#263238" stroke="white" stroke-linecap="round" stroke-linejoin="round"/>
<path d="M291.895 292.955L291.885 285.07H280.974L280.603 292.955H291.895Z" fill="#263238" stroke="white" stroke-linecap="round" stroke-linejoin="round"/>
<path d="M314.459 292.955L313.696 285.07H302.796L303.177 292.955H314.459Z" fill="#263238" stroke="white" stroke-linecap="round" stroke-linejoin="round"/>
<path d="M303.177 292.955L302.796 285.07H291.885L291.895 292.955H303.177Z" fill="#263238" stroke="white" stroke-linecap="round" stroke-linejoin="round"/>
<path d="M280.603 292.955L280.974 285.07H270.064L269.321 292.955H280.603Z" fill="#263238" stroke="white" stroke-linecap="round" stroke-linejoin="round"/>
<path d="M314.459 292.955L315.284 301.397H326.968L325.751 292.955H314.459Z" fill="#263238" stroke="white" stroke-linecap="round" stroke-linejoin="round"/>
<path d="M325.751 292.955L326.968 301.397H338.662L337.033 292.955H325.751Z" fill="#263238" stroke="white" stroke-linecap="round" stroke-linejoin="round"/>
<path d="M224.173 292.955L221.76 301.397H233.454L235.465 292.955H224.173Z" fill="#263238" stroke="white" stroke-linecap="round" stroke-linejoin="round"/>
<path d="M337.033 292.955L338.663 301.397H350.347L348.315 292.955H337.033Z" fill="#263238" stroke="white" stroke-linecap="round" stroke-linejoin="round"/>
<path d="M291.895 292.955V301.397H303.59L303.177 292.955H291.895Z" fill="#263238" stroke="white" stroke-linecap="round" stroke-linejoin="round"/>
<path d="M348.315 292.955L350.347 301.397H362.041L359.607 292.955H348.315Z" fill="#263238" stroke="white" stroke-linecap="round" stroke-linejoin="round"/>
<path d="M303.177 292.955L303.59 301.397H315.284L314.459 292.955H303.177Z" fill="#263238" stroke="white" stroke-linecap="round" stroke-linejoin="round"/>
<path d="M246.747 292.955L245.138 301.397H256.833L258.029 292.955H246.747Z" fill="#263238" stroke="white" stroke-linecap="round" stroke-linejoin="round"/>
<path d="M235.465 292.955L233.454 301.397H245.138L246.747 292.955H235.465Z" fill="#263238" stroke="white" stroke-linecap="round" stroke-linejoin="round"/>
<path d="M280.603 292.955L280.211 301.397H291.895V292.955H280.603Z" fill="#263238" stroke="white" stroke-linecap="round" stroke-linejoin="round"/>
<path d="M269.321 292.955L268.517 301.397H280.211L280.603 292.955H269.321Z" fill="#263238" stroke="white" stroke-linecap="round" stroke-linejoin="round"/>
<path d="M258.029 292.955L256.833 301.397H268.517L269.321 292.955H258.029Z" fill="#263238" stroke="white" stroke-linecap="round" stroke-linejoin="round"/>
<path d="M348.315 292.955L346.428 285.07H335.517L337.033 292.955H348.315Z" fill="#263238" stroke="white" stroke-linecap="round" stroke-linejoin="round"/>
<path d="M217.986 277.7L220.512 270.154H210.313L207.436 277.7H217.986Z" fill="#263238" stroke="white" stroke-linecap="round" stroke-linejoin="round"/>
<path d="M207.436 277.699H197.691L194.545 285.069H204.621L207.436 277.699Z" fill="#263238" stroke="white" stroke-linecap="round" stroke-linejoin="round"/>
<path d="M210.313 270.154H200.908L197.691 277.7H207.436L210.313 270.154Z" fill="#263238" stroke="white" stroke-linecap="round" stroke-linejoin="round"/>
<path d="M204.621 285.07H194.545L191.194 292.955H201.609L204.621 285.07Z" fill="#263238" stroke="white" stroke-linecap="round" stroke-linejoin="round"/>
<path d="M201.609 292.955H191.194L187.584 301.397H198.382L201.609 292.955Z" fill="#263238" stroke="white" stroke-linecap="round" stroke-linejoin="round"/>
<path d="M198.382 301.397H187.584L183.717 310.468H194.906L198.382 301.397Z" fill="#263238" stroke="white" stroke-linecap="round" stroke-linejoin="round"/>
<path d="M379.149 285.07L382.181 292.955H392.164L388.802 285.07H379.149Z" fill="#263238" stroke="white" stroke-linecap="round" stroke-linejoin="round"/>
<path d="M385.419 301.397H395.763L392.164 292.955H382.181L385.419 301.397Z" fill="#263238" stroke="white" stroke-linecap="round" stroke-linejoin="round"/>
<path d="M388.905 310.468H399.63L395.763 301.397H385.419L388.905 310.468Z" fill="#263238" stroke="white" stroke-linecap="round" stroke-linejoin="round"/>
<path d="M302.435 277.7L302.063 270.154H291.875V277.7H302.435Z" fill="#263238" stroke="white" stroke-linecap="round" stroke-linejoin="round"/>
<path d="M379.149 285.069H388.802L385.657 277.699H376.324L379.149 285.069Z" fill="#263238" stroke="white" stroke-linecap="round" stroke-linejoin="round"/>
<path d="M373.735 301.397H385.419L382.181 292.955H370.889L373.735 301.397Z" fill="#263238" stroke="white" stroke-linecap="round" stroke-linejoin="round"/>
<path d="M228.546 277.7L230.701 270.154H220.512L217.986 277.7H228.546Z" fill="#263238" stroke="white" stroke-linecap="round" stroke-linejoin="round"/>
<path d="M365.764 277.699L368.239 285.069H379.149L376.324 277.699H365.764Z" fill="#263238" stroke="white" stroke-linecap="round" stroke-linejoin="round"/>
<path d="M385.657 277.7L382.439 270.154H373.426L376.324 277.7H385.657Z" fill="#263238" stroke="white" stroke-linecap="round" stroke-linejoin="round"/>
<path d="M376.324 277.7L373.426 270.154H363.227L365.764 277.7H376.324Z" fill="#263238" stroke="white" stroke-linecap="round" stroke-linejoin="round"/>
<path d="M338.662 301.397L340.405 310.468H352.533L350.347 301.397H338.662Z" fill="#263238" stroke="white" stroke-linecap="round" stroke-linejoin="round"/>
<path d="M376.777 310.468H388.905L385.419 301.397H373.735L376.777 310.468Z" fill="#263238" stroke="white" stroke-linecap="round" stroke-linejoin="round"/>
<path d="M365.764 277.7L363.227 270.154H353.038L355.214 277.7H365.764Z" fill="#263238" stroke="white" stroke-linecap="round" stroke-linejoin="round"/>
<path d="M362.041 301.397L364.66 310.468H376.777L373.735 301.397H362.041Z" fill="#263238" stroke="white" stroke-linecap="round" stroke-linejoin="round"/>
<path d="M350.347 301.397L352.533 310.468H364.66L362.041 301.397H350.347Z" fill="#263238" stroke="white" stroke-linecap="round" stroke-linejoin="round"/>
<path d="M370.889 292.955H382.181L379.149 285.07H368.239L370.889 292.955Z" fill="#263238" stroke="white" stroke-linecap="round" stroke-linejoin="round"/>
<path d="M270.765 277.7L271.487 270.154H261.288L260.215 277.7H270.765Z" fill="#263238" stroke="white" stroke-linecap="round" stroke-linejoin="round"/>
<path d="M355.214 277.7L353.038 270.154H342.839L344.654 277.7H355.214Z" fill="#263238" stroke="white" stroke-linecap="round" stroke-linejoin="round"/>
<path d="M260.215 277.7L261.288 270.154H251.099L249.655 277.7H260.215Z" fill="#263238" stroke="white" stroke-linecap="round" stroke-linejoin="round"/>
<path d="M291.875 277.7V270.154H281.676L281.325 277.7H291.875Z" fill="#263238" stroke="white" stroke-linecap="round" stroke-linejoin="round"/>
<path d="M249.655 277.7L251.099 270.154H240.9L239.106 277.7H249.655Z" fill="#263238" stroke="white" stroke-linecap="round" stroke-linejoin="round"/>
<path d="M239.106 277.7L240.9 270.154H230.701L228.546 277.7H239.106Z" fill="#263238" stroke="white" stroke-linecap="round" stroke-linejoin="round"/>
<path d="M281.325 277.7L281.676 270.154H271.487L270.765 277.7H281.325Z" fill="#263238" stroke="white" stroke-linecap="round" stroke-linejoin="round"/>
<path d="M344.654 277.7L342.839 270.154H332.65L334.104 277.7H344.654Z" fill="#263238" stroke="white" stroke-linecap="round" stroke-linejoin="round"/>
<path d="M334.104 277.7L332.65 270.154H322.451L323.544 277.7H334.104Z" fill="#263238" stroke="white" stroke-linecap="round" stroke-linejoin="round"/>
<path d="M312.984 277.7L312.262 270.154H302.063L302.435 277.7H312.984Z" fill="#263238" stroke="white" stroke-linecap="round" stroke-linejoin="round"/>
<path d="M338.663 301.397H326.968H315.284H303.59H291.895H280.211H268.517H256.833H245.138H233.454H221.76L219.161 310.468H231.289H243.406H255.533H267.661H279.788H291.906H304.033H316.161H328.278H340.405L338.663 301.397Z" fill="#263238" stroke="white" stroke-linecap="round" stroke-linejoin="round"/>
<path d="M323.544 277.7L322.451 270.154H312.262L312.984 277.7H323.544Z" fill="#263238" stroke="white" stroke-linecap="round" stroke-linejoin="round"/>
<path d="M419.275 326.403H159.462V330.083H419.275V326.403Z" fill="#263238" stroke="#263238" stroke-linecap="round" stroke-linejoin="round"/>
<path opacity="0.15" d="M358.782 166.211V265.258L329.979 302.788L325.132 304.603L177.375 326.393V331.238L123.255 334.144V280.998H215.531V165.737L358.782 166.211Z" fill="black"/>
<path d="M90.0694 270.371C83.4178 270.701 76.2094 275.772 76.2094 275.772L1.03125 334.144H123.255C123.255 334.144 200.423 275.937 202.733 274.267C206.394 271.628 213.654 270.288 213.654 270.288L210.22 270.371H90.0694Z" fill="white" stroke="#263238" stroke-linecap="round" stroke-linejoin="round"/>
<path d="M371.25 166.304H207.683" stroke="#263238" stroke-linecap="round" stroke-linejoin="round"/>
<path d="M346.582 131.073C344.979 131.071 343.391 131.386 341.91 131.999C340.428 132.612 339.083 133.511 337.949 134.645C336.816 135.778 335.918 137.124 335.306 138.606C334.694 140.087 334.38 141.674 334.383 143.277V293.161C334.379 295.138 333.901 297.085 332.989 298.839C332.078 300.593 330.758 302.103 329.143 303.243C327.527 304.383 325.661 305.119 323.702 305.389C321.743 305.66 319.747 305.457 317.883 304.798L225.349 271.948C220.495 270.22 215.247 269.927 210.231 271.103V143.277C210.231 140.043 211.516 136.941 213.804 134.654C216.092 132.368 219.195 131.083 222.43 131.083L346.582 131.073Z" fill="white"/>
<mask id="mask0_106_900" style="mask-type:luminance" maskUnits="userSpaceOnUse" x="210" y="131" width="137" height="175">
<path d="M346.582 131.073C344.979 131.071 343.391 131.386 341.91 131.999C340.428 132.612 339.083 133.511 337.949 134.645C336.816 135.778 335.918 137.124 335.306 138.606C334.694 140.087 334.38 141.674 334.383 143.277V293.161C334.379 295.138 333.901 297.085 332.989 298.839C332.078 300.593 330.758 302.103 329.143 303.243C327.527 304.383 325.661 305.119 323.702 305.389C321.743 305.66 319.747 305.457 317.883 304.798L225.349 271.948C220.495 270.22 215.247 269.927 210.231 271.103V143.277C210.231 140.043 211.516 136.941 213.804 134.654C216.092 132.368 219.195 131.083 222.43 131.083L346.582 131.073Z" fill="white"/>
</mask>
<g mask="url(#mask0_106_900)">
<path d="M236.713 275.988L317.872 304.798C319.737 305.457 321.733 305.66 323.692 305.389C325.651 305.119 327.516 304.383 329.132 303.243C330.748 302.103 332.067 300.593 332.979 298.839C333.891 297.085 334.369 295.138 334.372 293.161V275.988H236.713Z" fill="#4865BC"/>
<path opacity="0.6" d="M236.713 275.988L317.872 304.798C319.737 305.457 321.733 305.66 323.692 305.389C325.651 305.119 327.516 304.383 329.132 303.243C330.748 302.103 332.067 300.593 332.979 298.839C333.891 297.085 334.369 295.138 334.372 293.161V275.988H236.713Z" fill="white"/>
<path d="M236.713 295.728L317.872 324.589C319.738 325.248 321.734 325.451 323.694 325.18C325.654 324.909 327.52 324.172 329.136 323.031C330.753 321.89 332.071 320.378 332.983 318.623C333.894 316.867 334.37 314.919 334.372 312.942V295.728H236.713Z" fill="#4865BC"/>
</g>
<path d="M346.582 131.073C344.979 131.071 343.391 131.386 341.91 131.999C340.428 132.612 339.083 133.511 337.949 134.645C336.816 135.778 335.918 137.124 335.306 138.606C334.694 140.087 334.38 141.674 334.383 143.277V293.161C334.379 295.138 333.901 297.085 332.989 298.839C332.078 300.593 330.758 302.103 329.143 303.243C327.527 304.383 325.661 305.119 323.702 305.389C321.743 305.66 319.747 305.457 317.883 304.798L225.349 271.948C220.495 270.22 215.247 269.927 210.231 271.103V143.277C210.231 140.043 211.516 136.941 213.804 134.654C216.092 132.368 219.195 131.083 222.43 131.083L346.582 131.073Z" stroke="#263238" stroke-linecap="round" stroke-linejoin="round"/>
<path d="M215.48 270.371H210.22" stroke="#263238" stroke-linecap="round" stroke-linejoin="round"/>
<path d="M322.028 305.53H197.866C196.459 305.524 195.064 305.277 193.741 304.798L172.301 297.264L198.959 276.751C202.558 273.719 206.888 271.68 211.519 270.837C216.151 269.995 220.922 270.378 225.359 271.948L317.893 304.798C319.219 305.277 320.618 305.525 322.028 305.53Z" fill="white"/>
<mask id="mask1_106_900" style="mask-type:luminance" maskUnits="userSpaceOnUse" x="172" y="270" width="151" height="36">
<path d="M322.028 305.53H197.866C196.459 305.524 195.064 305.277 193.741 304.798L172.301 297.264L198.959 276.751C202.558 273.719 206.888 271.68 211.519 270.837C216.151 269.995 220.922 270.378 225.359 271.948L317.893 304.798C319.219 305.277 320.618 305.525 322.028 305.53Z" fill="white"/>
</mask>
<g mask="url(#mask1_106_900)">
<path d="M322.028 305.53H197.866C196.459 305.524 195.064 305.277 193.741 304.798L170.971 296.862L198.938 276.751C202.538 273.719 206.868 271.68 211.499 270.837C216.13 269.995 220.901 270.378 225.338 271.948L317.872 304.798C319.205 305.28 320.611 305.527 322.028 305.53Z" fill="#4865BC"/>
<path opacity="0.2" d="M322.028 305.53H197.866C196.459 305.524 195.064 305.277 193.741 304.798L170.971 296.862L198.938 276.751C202.538 273.719 206.868 271.68 211.499 270.837C216.13 269.995 220.901 270.378 225.338 271.948L317.872 304.798C319.205 305.28 320.611 305.527 322.028 305.53Z" fill="black"/>
</g>
<path d="M322.028 305.53H197.866C196.459 305.524 195.064 305.277 193.741 304.798L172.301 297.264L198.959 276.751C202.558 273.719 206.888 271.68 211.519 270.837C216.151 269.995 220.922 270.378 225.359 271.948L317.893 304.798C319.219 305.277 320.618 305.525 322.028 305.53Z" stroke="#263238" stroke-linecap="round" stroke-linejoin="round"/>
<path d="M197.866 305.53H197.598" stroke="#263238" stroke-linecap="round" stroke-linejoin="round"/>
<path d="M322.266 305.53H322.028" stroke="#263238" stroke-linecap="round" stroke-linejoin="round"/>
<path d="M355.204 134.649C354.075 133.513 352.732 132.611 351.252 131.997C349.772 131.383 348.185 131.069 346.582 131.073C333.877 131.073 334.383 143.267 334.383 143.267V166.211H358.782V143.277C358.786 141.674 358.472 140.086 357.858 138.605C357.243 137.124 356.341 135.779 355.204 134.649Z" fill="white"/>
<mask id="mask2_106_900" style="mask-type:luminance" maskUnits="userSpaceOnUse" x="334" y="131" width="25" height="36">
<path d="M355.204 134.649C354.075 133.513 352.732 132.611 351.252 131.997C349.772 131.383 348.185 131.069 346.582 131.073C333.877 131.073 334.383 143.267 334.383 143.267V166.211H358.782V143.277C358.786 141.674 358.472 140.086 357.858 138.605C357.243 137.124 356.341 135.779 355.204 134.649Z" fill="white"/>
</mask>
<g mask="url(#mask2_106_900)">
<path d="M355.204 134.649C354.075 133.513 352.732 132.611 351.252 131.997C349.772 131.383 348.185 131.069 346.582 131.073C333.877 131.073 334.383 143.267 334.383 143.267V166.211H358.782V143.277C358.786 141.674 358.472 140.086 357.858 138.605C357.243 137.124 356.341 135.779 355.204 134.649Z" fill="#4865BC"/>
<path opacity="0.2" d="M355.204 134.649C354.075 133.513 352.732 132.611 351.252 131.997C349.772 131.383 348.185 131.069 346.582 131.073C333.877 131.073 334.383 143.267 334.383 143.267V166.211H358.782V143.277C358.786 141.674 358.472 140.086 357.858 138.605C357.243 137.124 356.341 135.779 355.204 134.649Z" fill="black"/>
</g>
<path d="M355.204 134.649C354.075 133.513 352.732 132.611 351.252 131.997C349.772 131.383 348.185 131.069 346.582 131.073C333.877 131.073 334.383 143.267 334.383 143.267V166.211H358.782V143.277C358.786 141.674 358.472 140.086 357.858 138.605C357.243 137.124 356.341 135.779 355.204 134.649Z" stroke="#263238" stroke-linecap="round" stroke-linejoin="round"/>
<g opacity="0.15">
<path d="M221.616 152.08V152.296V157.501V157.718V162.923V163.14V168.335V168.551V173.757V173.973V179.179V179.395V184.59V184.807V190.012V190.228V195.434V195.65V200.845V201.062V206.267V206.484V211.905H233.403V206.484V206.267V201.062V200.845V195.65V195.434V190.228V190.012V184.807V184.59V179.395V179.179V173.973V173.757V168.551V168.335V163.14V162.923V157.718V157.501V152.296V152.08V146.668H221.616V152.08Z" fill="black"/>
<path d="M314.552 146.668H314.304H303.022H302.765H291.483H291.225H279.953H279.696H268.414H268.156H256.884H256.627H245.345H245.087H233.557V152.296H245.087H245.345H256.627H256.884H268.156H268.414H279.696H279.953H291.225H291.483H302.765H303.022H314.304H314.552H326.092V146.668H314.552Z" fill="black"/>
</g>
<path d="M233.403 146.668H221.616V152.306H233.403V146.668Z" stroke="#263238" stroke-width="0.25" stroke-linecap="round" stroke-linejoin="round"/>
<path d="M233.403 152.08H221.616V157.718H233.403V152.08Z" stroke="#263238" stroke-width="0.25" stroke-linecap="round" stroke-linejoin="round"/>
<path d="M233.403 157.501H221.616V163.14H233.403V157.501Z" stroke="#263238" stroke-width="0.25" stroke-linecap="round" stroke-linejoin="round"/>
<path d="M233.403 162.923H221.616V168.562H233.403V162.923Z" stroke="#263238" stroke-width="0.25" stroke-linecap="round" stroke-linejoin="round"/>
<path d="M233.403 168.335H221.616V173.973H233.403V168.335Z" stroke="#263238" stroke-width="0.25" stroke-linecap="round" stroke-linejoin="round"/>
<path d="M233.403 173.757H221.616V179.395H233.403V173.757Z" stroke="#263238" stroke-width="0.25" stroke-linecap="round" stroke-linejoin="round"/>
<path d="M233.403 179.178H221.616V184.817H233.403V179.178Z" stroke="#263238" stroke-width="0.25" stroke-linecap="round" stroke-linejoin="round"/>
<path d="M233.403 184.59H221.616V190.228H233.403V184.59Z" stroke="#263238" stroke-width="0.25" stroke-linecap="round" stroke-linejoin="round"/>
<path d="M233.403 190.012H221.616V195.65H233.403V190.012Z" stroke="#263238" stroke-width="0.25" stroke-linecap="round" stroke-linejoin="round"/>
<path d="M233.403 195.434H221.616V201.072H233.403V195.434Z" stroke="#263238" stroke-width="0.25" stroke-linecap="round" stroke-linejoin="round"/>
<path d="M233.403 200.845H221.616V206.484H233.403V200.845Z" stroke="#263238" stroke-width="0.25" stroke-linecap="round" stroke-linejoin="round"/>
<path d="M233.403 206.267H221.616V211.905H233.403V206.267Z" stroke="#263238" stroke-width="0.25" stroke-linecap="round" stroke-linejoin="round"/>
<path d="M245.345 146.668H233.557V152.306H245.345V146.668Z" stroke="#263238" stroke-width="0.25" stroke-linecap="round" stroke-linejoin="round"/>
<path d="M256.874 146.668H245.087V152.306H256.874V146.668Z" stroke="#263238" stroke-width="0.25" stroke-linecap="round" stroke-linejoin="round"/>
<path d="M268.414 146.668H256.627V152.306H268.414V146.668Z" stroke="#263238" stroke-width="0.25" stroke-linecap="round" stroke-linejoin="round"/>
<path d="M279.943 146.668H268.156V152.306H279.943V146.668Z" stroke="#263238" stroke-width="0.25" stroke-linecap="round" stroke-linejoin="round"/>
<path d="M291.483 146.668H279.696V152.306H291.483V146.668Z" stroke="#263238" stroke-width="0.25" stroke-linecap="round" stroke-linejoin="round"/>
<path d="M303.012 146.668H291.225V152.306H303.012V146.668Z" stroke="#263238" stroke-width="0.25" stroke-linecap="round" stroke-linejoin="round"/>
<path d="M314.552 146.668H302.765V152.306H314.552V146.668Z" stroke="#263238" stroke-width="0.25" stroke-linecap="round" stroke-linejoin="round"/>
<path d="M326.092 146.668H314.304V152.306H326.092V146.668Z" stroke="#263238" stroke-width="0.25" stroke-linecap="round" stroke-linejoin="round"/>
<path d="M326.081 152.296H233.403V211.895H326.081V152.296Z" stroke="#263238" stroke-width="0.25" stroke-linecap="round" stroke-linejoin="round"/>
<path d="M245.19 152.296V211.885" stroke="#263238" stroke-width="0.25" stroke-linecap="round" stroke-linejoin="round"/>
<path d="M256.73 152.296V211.885" stroke="#263238" stroke-width="0.25" stroke-linecap="round" stroke-linejoin="round"/>
<path d="M268.269 152.296V211.885" stroke="#263238" stroke-width="0.25" stroke-linecap="round" stroke-linejoin="round"/>
<path d="M279.809 152.296V211.885" stroke="#263238" stroke-width="0.25" stroke-linecap="round" stroke-linejoin="round"/>
<path d="M291.338 152.296V211.885" stroke="#263238" stroke-width="0.25" stroke-linecap="round" stroke-linejoin="round"/>
<path d="M302.878 152.296V211.885" stroke="#263238" stroke-width="0.25" stroke-linecap="round" stroke-linejoin="round"/>
<path d="M314.418 152.296V211.885" stroke="#263238" stroke-width="0.25" stroke-linecap="round" stroke-linejoin="round"/>
<path d="M233.403 157.718H326.019" stroke="#263238" stroke-width="0.25" stroke-linecap="round" stroke-linejoin="round"/>
<path d="M233.403 163.119H326.019" stroke="#263238" stroke-width="0.25" stroke-linecap="round" stroke-linejoin="round"/>
<path d="M233.403 168.52H326.019" stroke="#263238" stroke-width="0.25" stroke-linecap="round" stroke-linejoin="round"/>
<path d="M233.403 173.922H326.019" stroke="#263238" stroke-width="0.25" stroke-linecap="round" stroke-linejoin="round"/>
<path d="M233.403 179.323H326.019" stroke="#263238" stroke-width="0.25" stroke-linecap="round" stroke-linejoin="round"/>
<path d="M233.403 184.714H326.019" stroke="#263238" stroke-width="0.25" stroke-linecap="round" stroke-linejoin="round"/>
<path d="M233.403 190.115H326.019" stroke="#263238" stroke-width="0.25" stroke-linecap="round" stroke-linejoin="round"/>
<path d="M233.403 195.516H326.019" stroke="#263238" stroke-width="0.25" stroke-linecap="round" stroke-linejoin="round"/>
<path d="M233.403 200.917H326.019" stroke="#263238" stroke-width="0.25" stroke-linecap="round" stroke-linejoin="round"/>
<path d="M233.403 206.319H326.019" stroke="#263238" stroke-width="0.25" stroke-linecap="round" stroke-linejoin="round"/>
<path d="M174.322 284.884H74.9616L81.8194 279.678H181.18L174.322 284.884Z" fill="#4865BC"/>
<path d="M22.3781 326.671H19.9444L81.8194 279.678H84.2634L22.3781 326.671Z" fill="#4865BC"/>
<path d="M152.429 301.479H53.0784L60.8437 295.666H160.194L152.429 301.479Z" fill="#263238"/>
<path d="M118.986 326.908H19.6247L81.8194 279.678H181.18L118.986 326.908Z" stroke="#263238" stroke-width="0.25" stroke-linecap="round" stroke-linejoin="round"/>
<path d="M92.0597 279.854L30.1331 326.877" stroke="#263238" stroke-width="0.25" stroke-linecap="round" stroke-linejoin="round"/>
<path d="M102.042 279.854L40.1156 326.877" stroke="#263238" stroke-width="0.25" stroke-linecap="round" stroke-linejoin="round"/>
<path d="M112.014 279.854L50.0878 326.877" stroke="#263238" stroke-width="0.25" stroke-linecap="round" stroke-linejoin="round"/>
<path d="M121.997 279.854L60.0703 326.877" stroke="#263238" stroke-width="0.25" stroke-linecap="round" stroke-linejoin="round"/>
<path d="M131.979 279.854L70.0528 326.877" stroke="#263238" stroke-width="0.25" stroke-linecap="round" stroke-linejoin="round"/>
<path d="M141.962 279.854L80.025 326.877" stroke="#263238" stroke-width="0.25" stroke-linecap="round" stroke-linejoin="round"/>
<path d="M151.934 279.854L90.0075 326.877" stroke="#263238" stroke-width="0.25" stroke-linecap="round" stroke-linejoin="round"/>
<path d="M161.917 279.854L99.99 326.877" stroke="#263238" stroke-width="0.25" stroke-linecap="round" stroke-linejoin="round"/>
<path d="M171.899 279.854L109.962 326.877" stroke="#263238" stroke-width="0.25" stroke-linecap="round" stroke-linejoin="round"/>
<path d="M68.8772 289.636H167.939" stroke="#263238" stroke-width="0.25" stroke-linecap="round" stroke-linejoin="round"/>
<path d="M60.9675 295.645H160.029" stroke="#263238" stroke-width="0.25" stroke-linecap="round" stroke-linejoin="round"/>
<path d="M53.0578 301.655H152.12" stroke="#263238" stroke-width="0.25" stroke-linecap="round" stroke-linejoin="round"/>
<path d="M45.1481 307.654H144.21" stroke="#263238" stroke-width="0.25" stroke-linecap="round" stroke-linejoin="round"/>
<path d="M37.2384 313.663H136.3" stroke="#263238" stroke-width="0.25" stroke-linecap="round" stroke-linejoin="round"/>
<path d="M29.3288 319.672H128.391" stroke="#263238" stroke-width="0.25" stroke-linecap="round" stroke-linejoin="round"/>
<path d="M326.246 216.451H221.523V220.296H326.246V216.451Z" fill="#4865BC"/>
<path d="M224.091 216.451H221.523V265.969H224.091V216.451Z" fill="#4865BC"/>
<path d="M326.246 216.451H221.523V266.227H326.246V216.451Z" stroke="#263238" stroke-width="0.25" stroke-linecap="round" stroke-linejoin="round"/>
<path d="M232.557 216.637V266.196" stroke="#263238" stroke-width="0.25" stroke-linecap="round" stroke-linejoin="round"/>
<path d="M243.076 216.637V266.196" stroke="#263238" stroke-width="0.25" stroke-linecap="round" stroke-linejoin="round"/>
<path d="M253.595 216.637V266.196" stroke="#263238" stroke-width="0.25" stroke-linecap="round" stroke-linejoin="round"/>
<path d="M264.113 216.637V266.196" stroke="#263238" stroke-width="0.25" stroke-linecap="round" stroke-linejoin="round"/>
<path d="M274.632 216.637V266.196" stroke="#263238" stroke-width="0.25" stroke-linecap="round" stroke-linejoin="round"/>
<path d="M285.151 216.637V266.196" stroke="#263238" stroke-width="0.25" stroke-linecap="round" stroke-linejoin="round"/>
<path d="M295.67 216.637V266.196" stroke="#263238" stroke-width="0.25" stroke-linecap="round" stroke-linejoin="round"/>
<path d="M306.178 216.637V266.196" stroke="#263238" stroke-width="0.25" stroke-linecap="round" stroke-linejoin="round"/>
<path d="M316.697 216.637V266.196" stroke="#263238" stroke-width="0.25" stroke-linecap="round" stroke-linejoin="round"/>
<path d="M221.698 226.944H326.112" stroke="#263238" stroke-width="0.25" stroke-linecap="round" stroke-linejoin="round"/>
<path d="M221.698 233.284H326.112" stroke="#263238" stroke-width="0.25" stroke-linecap="round" stroke-linejoin="round"/>
<path d="M221.698 239.613H326.112" stroke="#263238" stroke-width="0.25" stroke-linecap="round" stroke-linejoin="round"/>
<path d="M221.698 245.941H326.112" stroke="#263238" stroke-width="0.25" stroke-linecap="round" stroke-linejoin="round"/>
<path d="M221.698 252.27H326.112" stroke="#263238" stroke-width="0.25" stroke-linecap="round" stroke-linejoin="round"/>
<path d="M221.698 258.599H326.112" stroke="#263238" stroke-width="0.25" stroke-linecap="round" stroke-linejoin="round"/>
<path d="M291.576 248.219H287.213V258.403H291.576V248.219Z" fill="#263238" stroke="#263238" stroke-width="0.5" stroke-miterlimit="10"/>
<path d="M298.567 242.117H294.205V258.414H298.567V242.117Z" fill="#4865BC" stroke="#263238" stroke-width="0.5" stroke-miterlimit="10"/>
<path d="M305.549 231.933H301.187V258.414H305.549V231.933Z" fill="#263238" stroke="#263238" stroke-width="0.5" stroke-miterlimit="10"/>
<path d="M312.541 241.818H308.179V258.403H312.541V241.818Z" fill="#4865BC" stroke="#263238" stroke-width="0.5" stroke-miterlimit="10"/>
<path d="M319.523 231.933H315.16V258.414H319.523V231.933Z" fill="#263238" stroke="#263238" stroke-width="0.5" stroke-miterlimit="10"/>
<path d="M246.665 246.168V258.269C243.454 258.269 240.374 256.995 238.104 254.725C235.833 252.456 234.558 249.378 234.558 246.168C234.558 242.959 235.833 239.881 238.104 237.611C240.374 235.342 243.454 234.067 246.665 234.067V246.168Z" fill="#4865BC" stroke="#263238" stroke-width="0.5" stroke-miterlimit="10"/>
<path d="M246.665 246.168L258.173 242.427C258.669 243.938 258.861 245.533 258.739 247.119C258.616 248.706 258.182 250.252 257.461 251.67C256.739 253.089 255.745 254.35 254.535 255.384C253.325 256.417 251.922 257.202 250.408 257.692C249.202 258.096 247.937 258.298 246.665 258.29V246.168Z" fill="white" stroke="#263238" stroke-width="0.5" stroke-miterlimit="10"/>
<path d="M246.665 246.168V234.067C249.227 234.037 251.732 234.835 253.805 236.341C255.878 237.847 257.41 239.981 258.173 242.427L246.665 246.168Z" fill="#263238" stroke="#263238" stroke-width="0.5" stroke-miterlimit="10"/>
</g>
<defs>
<clipPath id="clip0_106_900">
<rect width="429" height="335" fill="white"/>
</clipPath>
</defs>
</svg>
