<svg width="162" height="191" viewBox="0 0 162 191" fill="none" xmlns="http://www.w3.org/2000/svg">
<g clip-path="url(#clip0_120_2)">
<path d="M122.968 100.879L97.522 107.685C90.7194 109.767 83.5414 110.322 76.4996 109.311C74.433 114.403 73.239 120.771 75.7812 125.664V125.683C72.8049 132.689 69.1515 139.387 64.873 145.682C54.4827 144.233 44.1821 142.201 34.0201 139.595C30.3505 144.861 28.656 148.181 29.5963 156.988C40.7692 160.579 49.9192 163.283 60.6194 165.684C64.0283 166.452 67.5858 166.229 70.8719 165.041C74.1581 163.852 77.0357 161.749 79.1652 158.979C84.7231 151.542 89.8364 143.784 94.4783 135.744L84.4825 132.234C93.1868 134.607 104.356 130.225 111.477 126.59V126.609L105.706 150.788C110.218 154.437 117.099 155.816 122.664 154.89L135.235 113.598C135.759 111.874 135.813 110.042 135.392 108.29C134.97 106.538 134.089 104.931 132.838 103.635C131.587 102.338 130.013 101.399 128.278 100.915C126.543 100.43 124.71 100.418 122.968 100.879Z" fill="#FECFC4"/>
<path d="M132.061 74.3179L136.977 73.4294L125.161 8.45292L118.639 0.475006L132.061 74.3179Z" fill="#FECFC4"/>
<path d="M117.996 0.58844L114.688 10.3623L126.522 75.3388L131.419 74.4503L117.996 0.58844Z" fill="#FECFC4"/>
<path d="M64.7218 113.716C64.6651 113.149 63.7766 112.544 61.7159 112.279L62.094 115.209C63.6631 115.02 64.7815 114.378 64.7218 113.716Z" fill="#6153BD"/>
<path d="M54.3041 112.506C51.7171 112.904 50.6823 113.564 50.6565 114.17C50.6246 114.888 52.0365 115.531 53.9838 115.455C54.1479 115.313 54.2723 115.131 54.343 114.926C54.4328 114.121 54.4191 113.308 54.3041 112.506Z" fill="#6153BD"/>
<path d="M32.1863 142.244C30.0816 141.426 27.9287 140.737 25.7397 140.183C19.9169 143.529 11.8097 147.111 3.60193 154.192C3.44131 154.325 3.32306 154.502 3.26164 154.702C8.29435 154.91 13.335 154.771 18.3478 154.286C21.8831 154.003 25.7964 153.398 29.3316 153.927C29.2391 149.526 29.7346 146.36 32.1863 142.244Z" fill="#6153BD"/>
<path d="M120.227 166.441C119.928 162.811 119.301 158.766 119.906 155.197C115.842 155.331 111.814 154.399 108.222 152.494C107.456 154.513 106.793 156.57 106.237 158.657C109.754 164.574 113.383 172.949 120.642 181.72C120.852 176.624 120.712 171.518 120.227 166.441Z" fill="#6153BD"/>
<path d="M86.8028 52.0667C86.6578 51.7173 86.3979 51.4278 86.066 51.2461C85.7341 51.0644 85.3502 51.0014 84.9777 51.0675C84.6051 51.1337 84.2663 51.325 84.0172 51.6098C83.7682 51.8946 83.6238 52.2559 83.6079 52.6339C83.5701 52.6339 83.5512 52.6528 83.5134 52.6528C83.3541 52.2929 83.073 52.0007 82.7197 51.8274C82.3663 51.6542 81.9631 51.611 81.5811 51.7056C81.1987 51.8003 80.8622 52.0273 80.6311 52.3464C80.4 52.6654 80.2892 53.0559 80.3184 53.4488C80.2995 53.4488 80.2806 53.4677 80.2617 53.4677C80.0733 53.081 79.7424 52.7824 79.3386 52.6344C78.9347 52.4864 78.4892 52.5006 78.0955 52.674C77.7019 52.8473 77.3907 53.1665 77.2273 53.5643C77.0639 53.9622 77.0609 54.4079 77.219 54.808C77.0458 54.4937 76.7751 54.2444 76.4476 54.0978C76.1202 53.9511 75.7539 53.9151 75.4041 53.9951C75.1395 54.0597 74.8945 54.1874 74.6898 54.3671C74.4851 54.5468 74.3269 54.7733 74.2285 55.0273C74.1301 55.2813 74.0945 55.5552 74.1248 55.8259C74.155 56.0966 74.2502 56.356 74.4022 56.5821C75.5176 58.6805 81.2269 69.8723 79.9413 73.8951C81.5672 70.2275 80.7373 65.1042 80.395 64.8207C77.0678 62.0605 79.5254 58.979 81.1323 61.0397C81.9074 62.0227 82.2666 61.9849 82.4746 61.361C83.1363 58.1472 87.1252 53.4588 89.2406 59.9054C86.5272 51.1533 86.9581 52.5334 86.8028 52.0667Z" fill="#6153BD"/>
<path d="M72.8699 93.3931C71.2387 93.9673 69.6579 94.6755 68.1436 95.5104L71.8679 91.2946C72.239 91.9752 72.5743 92.6757 72.8699 93.3931Z" fill="#6153BD"/>
<path d="M98.1269 105.095L89.4306 91.5026L98.2782 101.692C98.3518 102.829 98.3011 103.97 98.1269 105.095Z" fill="#6153BD"/>
<path d="M96.5389 132.148C95.8583 133.342 95.1778 134.53 94.4594 135.74L83.5701 131.921C87.4456 133.302 92.2097 133.075 96.5389 132.148Z" fill="#6153BD"/>
<path d="M133.517 93.998L137.015 93.3553L135.994 87.7594C134.973 87.9862 133.763 88.1574 132.511 88.4211L133.517 93.998Z" fill="#6153BD"/>
<path d="M133.914 76.4164L133.479 74.0722L129.982 74.7149L130.417 77.0592C131.048 76.9457 133.542 76.493 133.914 76.4164Z" fill="#6153BD"/>
<path d="M150.418 178.39C150.451 178.65 150.583 178.887 150.787 179.052C150.991 179.217 151.25 179.296 151.511 179.274C151.772 179.253 152.015 179.131 152.188 178.934C152.361 178.737 152.452 178.482 152.441 178.22L152.29 176.628C152.267 176.36 152.139 176.111 151.933 175.938C151.728 175.764 151.462 175.679 151.193 175.701C150.925 175.724 150.677 175.852 150.503 176.058C150.329 176.263 150.244 176.53 150.267 176.798L150.418 178.39Z" fill="#6153BD"/>
<path d="M113.667 176.67C108.58 181.719 102.823 186.045 96.5578 189.525C83.4945 185.082 71.5833 176.67 61.5458 165.875" stroke="#120071" stroke-linecap="round" stroke-linejoin="round"/>
<path d="M122.023 49.7603C108.545 44.5324 95.4227 38.4321 82.7383 31.4981C65.0412 44.6035 46.5827 56.6482 27.4601 67.5689L29.9366 95.7751C31.5493 112.032 36.4847 127.784 44.4367 142.055" stroke="#120071" stroke-linecap="round" stroke-linejoin="round"/>
<path d="M120.34 169.353C139.037 146.459 148.376 113.659 145.919 85.6042L143.442 57.4169C140.093 56.3289 136.759 55.1945 133.441 54.014" stroke="#120071" stroke-linecap="round" stroke-linejoin="round"/>
<path d="M76.4807 77.2482C82.3413 75.2254 80.8716 65.2376 80.394 64.8276C77.1026 62.0058 79.5184 58.99 81.1313 61.0466C81.6955 61.767 82.2905 62.2128 82.4845 61.3143C83.2397 57.8169 87.9063 52.6259 89.7709 61.9919C92.3191 74.7916 83.0407 69.4215 83.0407 69.4215" stroke="#120071" stroke-linecap="round" stroke-linejoin="round"/>
<path d="M53.9838 115.455C52.0366 115.531 50.6246 114.887 50.6565 114.17C50.7291 112.532 56.6733 112.22 58.2901 112.171C59.8602 112.123 64.6203 112.148 64.7218 113.716C64.7218 113.935 64.5397 114.91 62.094 115.208" stroke="#120071" stroke-linecap="round" stroke-linejoin="round"/>
<path d="M62.1318 115.777C62.4731 118.08 62.6562 120.404 62.6801 122.734C62.4532 124 59.2971 130.369 57.3299 133.131C56.0802 134.889 54.3818 135.401 55.8743 131.865C56.7285 129.742 57.436 127.563 57.9916 125.343C59.5438 119.444 55.1927 118.196 53.4733 120.597C51.0067 124.043 49.1242 125.059 49.957 122.431C50.4664 120.824 50.7321 119.86 51.0913 118.631C51.3699 117.685 53.2276 116.278 53.9589 115.492C54.1231 115.342 54.2484 115.154 54.324 114.945C54.4036 114.14 54.3917 113.328 54.2862 112.525C56.7331 112.162 59.2146 112.092 61.6781 112.317C61.6781 112.317 61.8025 113.182 62.1318 115.777Z" stroke="#120071" stroke-linecap="round" stroke-linejoin="round"/>
<path d="M57.1598 128.233C55.9187 129.722 54.4961 131.049 52.9251 132.184C50.9769 133.525 50.2048 132.508 52.3957 130.086C53.9305 128.39 55.2862 126.54 56.4414 124.565" stroke="#120071" stroke-linecap="round" stroke-linejoin="round"/>
<path d="M54.931 123.509C55.8464 124.272 56.8722 124.891 57.9747 125.343" stroke="#120071" stroke-linecap="round" stroke-linejoin="round"/>
<path d="M54.7022 127.195C53.2115 128.094 51.6179 128.81 49.956 129.327C47.8018 129.973 47.966 128.659 50.2207 127.475C52.0243 126.432 53.7103 125.198 55.2494 123.793" stroke="#120071" stroke-linecap="round" stroke-linejoin="round"/>
<path d="M52.4146 126.08C51.253 126.384 50.0607 126.555 48.8605 126.59C47.2347 126.527 46.7063 125.649 49.1063 125.078C50.9997 124.638 52.8126 123.904 54.4793 122.904C54.5615 121.704 54.9034 120.537 55.4812 119.482" stroke="#120071" stroke-linecap="round" stroke-linejoin="round"/>
<path d="M68.1436 95.5104L71.8679 91.2946C72.245 91.9722 72.5843 92.6697 72.8868 93.3841" stroke="#120071" stroke-linecap="round" stroke-linejoin="round"/>
<path d="M98.1269 105.095L89.4306 91.5215L98.2782 101.711" stroke="#120071" stroke-linecap="round" stroke-linejoin="round"/>
<path d="M64.7218 113.716C64.4004 109.576 63.9258 99.8964 63.9656 97.7034C66.4531 96.5164 69.9953 94.2965 72.8868 93.3881C74.7604 97.8875 75.7235 103.882 76.4807 109.33C83.5222 110.35 90.7022 109.795 97.5031 107.704C98.1549 105.777 98.4183 103.74 98.2782 101.711C98.1787 101.47 102.733 107.688 109.281 103.583L131.475 89.9335C130.36 84.7157 127.827 79.8382 123.554 77.5507L105.292 90.0877C97.5031 78.2532 97.5021 73.4085 84.8556 75.2622C75.7424 76.6005 66.277 80.7516 57.4056 86.7942C50.7918 91.2986 50.6396 93.7702 50.4296 100.368C50.2369 104.969 50.3189 109.577 50.6754 114.169" stroke="#120071" stroke-linecap="round" stroke-linejoin="round"/>
<path d="M116.9 123.565C116.9 123.565 114.782 124.927 111.474 126.609" stroke="#120071" stroke-linecap="round" stroke-linejoin="round"/>
<path d="M96.522 132.262C91.3575 141.564 85.5522 150.496 79.1483 158.993C77.0192 161.765 74.1418 163.869 70.8557 165.058C67.5696 166.247 64.012 166.472 60.6025 165.705C49.9033 163.298 40.7523 160.6 29.5794 156.99C29.2809 153.279 28.9824 149.754 30.455 145.798C31.3397 143.578 32.5274 141.491 33.9843 139.597C44.1463 142.203 54.4469 144.235 64.8372 145.684C69.1663 139.394 72.8045 132.656 75.6887 125.585" stroke="#120071" stroke-linecap="round" stroke-linejoin="round"/>
<path d="M85.8944 70.4543C85.6854 72.2075 85.3312 73.7378 86.6904 75.0552" stroke="#120071" stroke-linecap="round" stroke-linejoin="round"/>
<path d="M3.26165 154.7C2.6945 154.662 2.08954 154.647 1.52239 154.605C1.3693 154.594 1.22075 154.548 1.08792 154.472C0.955083 154.395 0.84143 154.289 0.755512 154.161C0.669594 154.034 0.613648 153.889 0.591886 153.737C0.570124 153.585 0.583112 153.43 0.629873 153.284C0.692558 153.089 0.811959 152.917 0.974144 152.791C4.7962 149.802 8.86246 147.139 13.1301 144.831C16.8961 142.777 20.2762 141.182 22.9985 139.575C23.9248 139.764 24.8323 139.934 25.7397 140.18" stroke="#120071" stroke-linecap="round" stroke-linejoin="round"/>
<path d="M32.1863 142.244C29.7485 146.336 29.2371 149.499 29.3316 153.927C25.7964 153.398 21.8831 154.002 18.3478 154.286C13.335 154.77 8.29435 154.908 3.26164 154.7C3.32306 154.5 3.44131 154.323 3.60193 154.19C11.8147 147.108 19.9199 143.527 25.7397 140.181C27.927 140.742 30.0796 141.431 32.1863 142.244Z" stroke="#120071" stroke-linecap="round" stroke-linejoin="round"/>
<path d="M120.642 181.716C120.605 182.222 120.585 182.744 120.529 183.249C120.513 183.453 120.436 183.647 120.308 183.807C120.179 183.967 120.006 184.084 119.81 184.144C119.613 184.203 119.404 184.202 119.208 184.14C119.013 184.077 118.841 183.958 118.714 183.797C111.99 175.225 108.714 167.217 105.5 161.772C105.708 160.714 105.973 159.693 106.237 158.653" stroke="#120071" stroke-linecap="round" stroke-linejoin="round"/>
<path d="M119.706 160.54C119.573 158.756 119.634 156.964 119.887 155.194C115.823 155.327 111.795 154.395 108.203 152.49C107.44 154.627 106.81 156.429 106.237 158.653C109.754 164.57 113.382 172.944 120.642 181.716C121.13 172.986 119.919 164.352 119.706 160.54Z" stroke="#120071" stroke-linecap="round" stroke-linejoin="round"/>
<path d="M121.342 76.284L142.157 72.4841" stroke="#120071" stroke-linecap="round" stroke-linejoin="round"/>
<path d="M5.18996 121.864L9.42468 126.836L13.149 118.764" stroke="#120071" stroke-linecap="round" stroke-linejoin="round"/>
<path d="M157.054 177.898L156.506 171.565L145.238 172.548L145.786 178.881C145.842 179.628 146.045 180.357 146.385 181.024C146.724 181.692 147.192 182.286 147.763 182.771C148.333 183.256 148.994 183.623 149.708 183.851C150.421 184.079 151.173 184.163 151.919 184.098C152.665 184.033 153.39 183.82 154.053 183.472C154.717 183.124 155.304 182.648 155.782 182.071C156.26 181.495 156.618 180.829 156.836 180.113C157.055 179.396 157.129 178.644 157.054 177.898Z" stroke="#120071" stroke-linecap="round" stroke-linejoin="round"/>
<path d="M145.238 172.548L144.879 168.503C144.77 167.02 145.248 165.553 146.211 164.42C147.175 163.288 148.546 162.582 150.027 162.452C151.508 162.323 152.981 162.782 154.127 163.73C155.272 164.678 155.998 166.04 156.146 167.52" stroke="#120071" stroke-linecap="round" stroke-linejoin="round"/>
<path d="M150.418 178.39C150.451 178.65 150.583 178.887 150.787 179.052C150.991 179.217 151.25 179.296 151.511 179.274C151.772 179.253 152.015 179.131 152.188 178.934C152.361 178.737 152.452 178.482 152.441 178.22L152.29 176.628C152.267 176.36 152.139 176.111 151.933 175.938C151.728 175.764 151.462 175.679 151.193 175.701C150.925 175.724 150.677 175.852 150.503 176.058C150.329 176.263 150.244 176.53 150.267 176.798L150.418 178.39Z" stroke="#120071" stroke-linecap="round" stroke-linejoin="round"/>
<path d="M39.5781 35.7706C39.6278 36.23 39.5853 36.6946 39.4532 37.1373C39.321 37.58 39.1018 37.9919 38.8085 38.3488C38.5152 38.7057 38.1535 39.0005 37.7448 39.216C37.3361 39.4314 36.8885 39.5631 36.4283 39.6033C35.968 39.6436 35.5044 39.5916 35.0645 39.4504C34.6246 39.3092 34.2173 39.0816 33.8664 38.781C33.5156 38.4804 33.2282 38.1128 33.0212 37.6998C32.8142 37.2868 32.6917 36.8366 32.6609 36.3756C32.6003 35.469 32.8975 34.5747 33.4887 33.8846C34.0799 33.1946 34.918 32.7638 35.8232 32.6846C36.7284 32.6054 37.6286 32.8842 38.3306 33.4612C39.0326 34.0381 39.4805 34.8672 39.5781 35.7706Z" stroke="#120071" stroke-linecap="round" stroke-linejoin="round"/>
<path d="M136.428 84.8102C138.376 84.6401 138.717 87.2679 137.125 87.5136C136.993 87.5345 133.212 88.1942 131.189 88.7235C130.111 84.5834 128.104 80.8023 125.007 78.475C126.463 77.7188 128.277 77.4164 133.438 76.485C134.176 76.3527 136.179 75.9517 136.879 75.8234C138.787 75.4731 139.308 78.1825 137.749 78.5646C137.58 78.6064 135.934 78.9626 135.745 78.9994C135.839 78.9805 136.708 78.9407 136.804 78.9238C138.837 78.5696 139.337 81.3436 137.673 81.7217L136.066 81.9675C136.18 81.9486 136.539 81.9108 136.652 81.8919C138.656 81.665 139.085 84.3028 137.448 84.652C137.203 84.7117 136.693 84.7724 136.428 84.8102Z" stroke="#120071" stroke-linecap="round" stroke-linejoin="round"/>
<path d="M89.2416 59.9123L86.8218 52.0668C86.6663 51.7194 86.3992 51.4339 86.063 51.2557C85.7267 51.0775 85.3406 51.0167 84.9658 51.083C84.5911 51.1493 84.2492 51.3389 83.9946 51.6217C83.7399 51.9045 83.587 52.2642 83.5601 52.6439C83.4336 52.3753 83.2398 52.1442 82.9974 51.9728C82.7551 51.8015 82.4725 51.6958 82.1771 51.666C81.8818 51.6363 81.5838 51.6835 81.3122 51.803C81.0405 51.9226 80.8044 52.1105 80.6269 52.3483C80.3895 52.6676 80.2703 53.0594 80.2896 53.4568C79.3672 51.4469 76.3096 52.9155 77.218 54.808C77.0989 54.5916 76.9328 54.4047 76.7319 54.2611C76.531 54.1174 76.3004 54.0206 76.0571 53.9779C75.8139 53.9351 75.5642 53.9474 75.3263 54.0139C75.0884 54.0805 74.8685 54.1995 74.6828 54.3622C74.3704 54.6318 74.1674 55.0063 74.1121 55.4152C74.0567 55.8241 74.1528 56.2391 74.3823 56.5821C75.4977 58.6805 81.207 69.8534 79.9214 73.8801" stroke="#120071" stroke-linecap="round" stroke-linejoin="round"/>
<path d="M154.407 40.5536L154.691 43.8809" stroke="#120071" stroke-linecap="round" stroke-linejoin="round"/>
<path d="M151.836 47.2838L148.509 47.5863" stroke="#120071" stroke-linecap="round" stroke-linejoin="round"/>
<path d="M161.421 46.4331L158.094 46.7355" stroke="#120071" stroke-linecap="round" stroke-linejoin="round"/>
<path d="M155.523 53.4657L155.239 50.1384" stroke="#120071" stroke-linecap="round" stroke-linejoin="round"/>
<path d="M158.094 46.7355C157.475 46.7906 156.853 46.6605 156.308 46.3618C155.763 46.0632 155.32 45.6094 155.033 45.058C154.843 44.6919 154.727 44.2919 154.691 43.8809C154.727 44.2918 154.682 44.7058 154.558 45.0993C154.434 45.4928 154.234 45.8579 153.969 46.174C153.703 46.49 153.379 46.7507 153.013 46.9411C152.647 47.1315 152.247 47.248 151.836 47.2838C152.455 47.2297 153.076 47.3602 153.621 47.6587C154.165 47.9573 154.609 48.4106 154.897 48.9614C155.087 49.3275 155.203 49.7275 155.239 50.1384C155.184 49.5195 155.314 48.8982 155.613 48.3533C155.911 47.8084 156.365 47.3645 156.917 47.0778C157.283 46.8878 157.683 46.7714 158.094 46.7355Z" stroke="#120071" stroke-linecap="round" stroke-linejoin="round"/>
<path d="M94.5161 135.76L83.9114 132.081" stroke="#120071" stroke-linecap="round" stroke-linejoin="round"/>
<path d="M97.4842 107.704L122.93 100.898C124.674 100.432 126.511 100.441 128.251 100.923C129.99 101.405 131.569 102.344 132.825 103.641C134.08 104.939 134.965 106.548 135.389 108.303C135.814 110.058 135.761 111.894 135.237 113.621L122.666 154.914C119.836 155.365 116.948 155.282 114.148 154.671C111.071 154.064 108.18 152.742 105.708 150.812L111.479 126.613C104.996 129.934 95.8673 133.41 88.2187 132.859C79.4717 132.228 73.0191 126.606 74.5385 116.143C74.8937 113.806 75.5482 111.525 76.4857 109.356" stroke="#120071" stroke-linecap="round" stroke-linejoin="round"/>
<path d="M105.292 90.0847L106.294 91.5215" stroke="#120071" stroke-linecap="round" stroke-linejoin="round"/>
<path d="M114.688 10.3623L118.295 0.614304L125.161 8.45291L136.977 73.4294L126.522 75.3388L114.688 10.3623Z" stroke="#120071" stroke-linejoin="round"/>
<path d="M118.302 0.621262L131.727 74.2921" stroke="#120071" stroke-linecap="round"/>
<path d="M133.517 93.998L137.015 93.3553L135.994 87.7594C134.973 87.9862 133.763 88.1574 132.511 88.4211L133.517 93.998Z" stroke="#120071" stroke-linejoin="round"/>
<path d="M133.914 76.4164L133.479 74.0722L129.982 74.7149L130.417 77.0592C131.048 76.9457 133.542 76.493 133.914 76.4164Z" stroke="#120071" stroke-linejoin="round"/>
</g>
<defs>
<clipPath id="clip0_120_2">
<rect width="162" height="191" fill="white"/>
</clipPath>
</defs>
</svg>
