 <svg
      width="20"
      height="21"
      viewBox="0 0 20 21"
      fill="none"
      xmlns="http://www.w3.org/2000/svg"
    >
      <path
        d="M19.9359 7.75571C19.7866 7.31162 19.4022 6.98783 18.9393 6.91705L13.552 6.09393L11.1321 0.939699C10.9258 0.500366 10.4848 0.220703 10.0003 0.220703C9.51551 0.220703 9.07485 0.500366 8.86849 0.939699L6.44833 6.09425L1.06101 6.91736C0.598121 6.98815 0.213653 7.31162 0.0647542 7.75603C-0.0841441 8.20045 0.0282439 8.68993 0.355566 9.02578L4.28978 13.0595L3.35798 18.766C3.28115 19.2384 3.48148 19.7133 3.8723 19.9894C4.2628 20.2656 4.77839 20.2935 5.19841 20.0618L10.0006 17.4064L14.8028 20.0618C14.9924 20.1666 15.201 20.218 15.4086 20.218C15.6613 20.218 15.914 20.1412 16.1289 19.9894C16.5198 19.7136 16.7198 19.2387 16.643 18.766L15.7111 13.0595L19.6457 9.02578C19.9724 8.68993 20.0848 8.20044 19.9359 7.75571Z"
        fill="#F8DB78"
      />
    </svg>